<?xml version="1.0" standalone="no"?>
<!DOCTYPE svg PUBLIC "-//W3C//DTD SVG 1.1//EN" "http://www.w3.org/Graphics/SVG/1.1/DTD/svg11.dtd" >
<svg xmlns="http://www.w3.org/2000/svg" xmlns:xlink="http://www.w3.org/1999/xlink" version="1.1">
<metadata>
Created by FontForge 20190801 at Wed Aug 30 12:01:13 2023
 By www-data
Copyright 2016 The BioRhyme Project Authors (https://github.com/aoifemooney/makingbiorhyme)
</metadata>
<defs>
<font id="BioRhymeRegular" horiz-adv-x="0" >
  <font-face 
    font-family="BioRhymeRegular"
    font-weight="400"
    font-stretch="normal"
    units-per-em="1000"
    panose-1="0 0 0 0 0 0 0 0 0 0"
    ascent="800"
    descent="-200"
    x-height="471"
    cap-height="686"
    bbox="-120 -370 1355 1117"
    underline-thickness="50"
    underline-position="-125"
    unicode-range="U+000D-1F632"
  />
<missing-glyph horiz-adv-x="827" 
d="M136 837h554v-1030h-554v1030zM273 -85h281v814h-281v-814z" />
    <glyph glyph-name="fi" unicode="fi" horiz-adv-x="780" 
d="M135 36v502q0 63 24 106.5t66.5 66t98.5 22.5q49 0 89.5 -14.5t81.5 -35.5l-36 -76q-32 20 -61.5 31t-62.5 11q-30 0 -53.5 -12.5t-36.5 -36.5t-13 -59v-505h-97zM29 0v79h341v-79h-341zM29 392v79h353v-79h-353zM560 22v449h99v-449h-99zM454 0v79h312v-79h-312z
M454 392v79h182v-79h-182zM598 574q-31 0 -53.5 17t-22.5 42q0 28 22.5 45.5t53.5 17.5q35 0 57 -17.5t22 -45.5q0 -25 -22 -42t-57 -17z" />
    <glyph glyph-name="fl" unicode="fl" horiz-adv-x="774" 
d="M135 36v502q0 63 24 106.5t66.5 66t98.5 22.5q49 0 89.5 -14.5t81.5 -35.5l-36 -76q-32 20 -61.5 31t-62.5 11q-30 0 -53.5 -12.5t-36.5 -36.5t-13 -59v-505h-97zM29 0v79h341v-79h-341zM29 392v79h353v-79h-353zM553 22v664h99v-664h-99zM448 0v79h312v-79h-312z
M448 607v79h198v-79h-198z" />
    <glyph glyph-name=".notdef" horiz-adv-x="827" 
d="M136 837h554v-1030h-554v1030zM273 -85h281v814h-281v-814z" />
    <glyph glyph-name=".null" 
 />
    <glyph glyph-name="nonmarkingreturn" horiz-adv-x="333" 
 />
    <glyph glyph-name="CR" unicode="&#xd;" horiz-adv-x="792" 
 />
    <glyph glyph-name="space" unicode=" " horiz-adv-x="295" 
 />
    <glyph glyph-name="exclam" unicode="!" horiz-adv-x="346" 
d="M153 197l-11 153q-8 84 -18.5 150t-18 112t-7.5 68q0 20 7.5 37t24 28t43.5 11q28 0 44.5 -11t24 -28t7.5 -37q0 -22 -9 -68t-19 -112t-16 -150l-10 -153h-42zM173 121q37 0 60 -19t23 -49q0 -28 -23 -47t-60 -19q-34 0 -58 19t-24 47q0 30 24 49t58 19z" />
    <glyph glyph-name="quotedbl" unicode="&#x22;" horiz-adv-x="448" 
d="M91 738l106 -13l-60 -259l-62 5zM275 738l106 -13l-60 -260l-62 5z" />
    <glyph glyph-name="numbersign" unicode="#" horiz-adv-x="787" 
d="M451 0h-84l235 647h86zM182 0h-85l235 647h86zM73 482h707v-77h-707v77zM8 246h708v-77h-708v77z" />
    <glyph glyph-name="dollar" unicode="$" horiz-adv-x="720" 
d="M444 -14q-54 0 -101 12.5t-88 35.5t-75.5 54t-63.5 69l54 -6v-152h-87v218l54 4q28 -38 61.5 -67t71.5 -50t80 -32t85 -11q39 0 68.5 8.5t46.5 26t17 41.5q0 29 -26 49.5t-79.5 39.5t-137.5 39q-81 21 -134.5 49.5t-79.5 66t-26 84.5q0 52 27 90t74 59t107 21t117 -20.5
t105 -58.5t81 -93l-48 5v154h86v-216l-51 -3q-22 37 -53 65.5t-66.5 48.5t-74.5 30t-76 10q-41 0 -69.5 -9.5t-43.5 -28t-15 -45.5q0 -28 23 -49t70.5 -38.5t121.5 -35.5q81 -19 141 -44.5t93 -62.5t33 -94q0 -50 -28 -87t-78 -57t-116 -20zM334 -146v187l4 14v521l-4 15
v168h78v-170l-5 -16v-519l5 -14v-186h-78z" />
    <glyph glyph-name="percent" unicode="%" horiz-adv-x="890" 
d="M149 -40l-52 52l642 654l51 -51zM218 317q-45 0 -84.5 21t-64.5 58.5t-25 86.5q0 51 25 88t64.5 57t84.5 20q46 0 84.5 -20.5t62.5 -57.5t24 -88q0 -49 -24 -86.5t-62.5 -58t-84.5 -20.5zM218 391q24 0 45 11.5t33 32t12 47.5t-12 47.5t-33 32t-45 11.5t-45 -11
t-34 -31.5t-13 -47.5t13 -47.5t34 -32.5t45 -12zM673 -21q-45 0 -84.5 20.5t-63.5 58t-24 87.5t24 87.5t63.5 58t84.5 20.5q46 0 85 -21.5t63.5 -59t24.5 -86.5q0 -50 -24.5 -87.5t-63.5 -57.5t-85 -20zM673 53q25 0 45.5 11.5t33.5 32t13 47.5t-13 48t-33.5 33t-45.5 12
q-24 0 -45 -12t-33 -32.5t-12 -47.5t12 -47.5t33 -32.5t45 -12z" />
    <glyph glyph-name="ampersand" unicode="&#x26;" horiz-adv-x="779" 
d="M310 -15q-77 -1 -138.5 21.5t-97.5 65t-36 101.5q0 57 31 97.5t93 72t154 59.5q50 16 83.5 33.5t53.5 36t28.5 38t8.5 38.5q0 32 -18.5 50.5t-49.5 18.5q-23 0 -47 -15t-40 -45.5t-16 -78.5q0 -67 18.5 -129t50 -114t71.5 -90t84.5 -59t87.5 -21q34 0 58.5 4.5t47.5 12.5
l18 -76q-24 -8 -53 -13.5t-64 -5.5q-63 0 -123 24.5t-113.5 70t-94 107t-63.5 134.5t-22 155q0 63 26 112.5t71 78t101 28.5q52 0 89.5 -20t57.5 -53.5t20 -73.5q0 -49 -28.5 -90.5t-83.5 -74.5t-135 -58q-72 -22 -117.5 -43t-67.5 -45.5t-22 -59.5q0 -34 22.5 -60
t62.5 -39.5t91 -13.5q59 0 108.5 15t87 41.5t59 61t22.5 72.5q2 32 -6 54t-20 43l84 37q11 -15 20 -35.5t14.5 -45t4.5 -52.5q-2 -35 -18 -72.5t-46.5 -72.5t-75 -63.5t-103 -46t-130.5 -17.5z" />
    <glyph glyph-name="quotesingle" unicode="'" horiz-adv-x="278" 
d="M106 741l105 -22l-75 -254l-61 10z" />
    <glyph glyph-name="parenleft" unicode="(" horiz-adv-x="381" 
d="M338 -145q-35 23 -72 57t-72 78t-62.5 98t-44 118t-16.5 137t15.5 136t42.5 116t61.5 96.5t72 78.5t75.5 60l25 -38q-25 -24 -51.5 -56t-52 -72.5t-46.5 -89.5t-33.5 -106.5t-12.5 -124.5t13 -126t35 -109t48 -91t52 -72.5t48 -52.5z" />
    <glyph glyph-name="parenright" unicode=")" horiz-adv-x="381" 
d="M44 -145l-25 38q24 24 51 56t52.5 72.5t46.5 89.5t33.5 107t12.5 125t-13 126t-35 108.5t-48 90.5t-52.5 72.5t-47.5 52.5l25 37q34 -23 71.5 -57t72 -77.5t62 -98t44 -118t16.5 -136.5t-16 -136t-42.5 -116.5t-61 -97t-72 -78t-74.5 -60.5z" />
    <glyph glyph-name="asterisk" unicode="*" horiz-adv-x="504" 
d="M363 403q-27 0 -37 23q-8 13 -19 41t-24 51l-15 27l24 20l25 -22q15 -12 30 -23t28 -20.5t21 -16.5q9 -8 13 -16.5t4 -18.5q0 -12 -8 -22.5t-19 -16.5t-23 -6zM141 403q-12 0 -23.5 6t-19 16.5t-7.5 22.5q0 10 4 18.5t13 16.5q7 8 20.5 17t29 20t29.5 23l25 22l24 -20
l-15 -27q-13 -23 -24 -50.5t-19 -41.5q-10 -23 -37 -23zM73 596q-19 1 -31 13t-12 31q0 20 12.5 35t33.5 15q17 0 32 -9t32 -21.5t40 -23.5l30 -13l-9 -31l-31 4q-25 3 -52.5 0.5t-44.5 -0.5zM236 644l-4 31q-3 19 -9.5 37.5t-11.5 36t-5 29.5q0 17 11 31t36 15
q25 -1 36 -15t11 -31q0 -12 -5.5 -29.5t-12 -36t-9.5 -37.5l-5 -31h-32zM432 596q-18 -2 -44.5 0.5t-53.5 -0.5l-30 -4l-9 31l29 13q25 11 42.5 23.5t32 21.5t30.5 9q21 0 33.5 -15.5t12.5 -35.5q0 -18 -12 -30t-31 -13z" />
    <glyph glyph-name="plus" unicode="+" horiz-adv-x="600" 
d="M256 67v486h86v-486h-86zM68 269v84h464v-84h-464z" />
    <glyph glyph-name="comma" unicode="," horiz-adv-x="305" 
d="M111 -197l-28 28q28 29 50 56.5t36 53.5t18 53q-9 -3 -20.5 -4.5t-25.5 -1.5q-28 0 -49 17t-21 46q0 30 22.5 49.5t55.5 19.5q42 0 67.5 -28.5t25.5 -71.5q0 -36 -16.5 -73.5t-46 -73.5t-68.5 -70z" />
    <glyph glyph-name="hyphen" unicode="-" horiz-adv-x="314" 
d="M286 279v-85h-257v85h257z" />
    <glyph glyph-name="period" unicode="." horiz-adv-x="283" 
d="M141 -13q-33 0 -57.5 19t-24.5 47q0 30 24.5 49t57.5 19q37 0 60.5 -19t23.5 -49q0 -28 -23.5 -47t-60.5 -19z" />
    <glyph glyph-name="slash" unicode="/" horiz-adv-x="493" 
d="M111 -105h-89l352 845h88z" />
    <glyph glyph-name="zero" unicode="0" horiz-adv-x="692" 
d="M346 -13q-46 0 -89.5 13.5t-82 40.5t-67.5 66t-45.5 90t-16.5 113t16 113.5t45 90t67.5 66t82 41t90.5 13.5q45 0 89 -13.5t82.5 -41t68 -66t46 -90t16.5 -113.5t-17 -113t-45.5 -90t-67 -66t-82.5 -40.5t-90 -13.5zM346 67q43 0 79 17.5t63 49.5t41.5 77t14.5 99
q0 55 -15 100t-41.5 77t-63 49.5t-78.5 17.5q-44 0 -80 -17.5t-62 -49.5t-40.5 -77t-14.5 -100q0 -54 15 -99t41.5 -77t62.5 -49.5t78 -17.5z" />
    <glyph glyph-name="one" unicode="1" horiz-adv-x="457" 
d="M68 414l-19 80q36 7 70 25t59.5 45t37.5 61l30 -68q-8 -38 -34 -67t-63 -47.5t-81 -28.5zM73 0v84h347v-84h-347zM216 22v603h98v-603h-98z" />
    <glyph glyph-name="two" unicode="2" horiz-adv-x="629" 
d="M40 0v84h451v115h83v-199h-534zM556 454q0 -54 -29 -91t-81 -64.5t-120 -55.5q-44 -18 -78 -34.5t-58.5 -35t-37 -43.5t-12.5 -59h-100q0 49 18 86t50.5 66t77 52.5t98.5 45.5q46 19 78.5 34.5t53 30t30 31t9.5 37.5q0 29 -17 50.5t-47.5 34t-70.5 12.5
q-42 0 -81.5 -13.5t-76 -37t-69.5 -55.5l-51 62q53 54 124 90.5t159 36.5q43 0 84.5 -11t74.5 -34t52.5 -56.5t19.5 -78.5z" />
    <glyph glyph-name="three" unicode="3" horiz-adv-x="591" 
d="M292 -10q-64 0 -115 14t-90 35.5t-70 43.5l40 72q31 -22 67.5 -41t79 -30t90.5 -11q44 0 77.5 12t53 33t19.5 49q0 46 -51 73.5t-168 27.5h-85v75h85q66 0 109.5 14.5t64.5 39t21 55.5q0 29 -17.5 51t-48 35t-68.5 13q-63 0 -113.5 -25t-94.5 -62l-50 67q32 27 72.5 50.5
t88.5 38t101 14.5q46 0 88 -11.5t74.5 -33.5t51 -54t18.5 -74q0 -40 -21 -71.5t-59 -54.5t-88 -35t-109 -12v33q72 0 128 -10t94.5 -29.5t58.5 -50t20 -72.5q0 -37 -19 -68t-53 -53.5t-80 -35t-102 -12.5z" />
    <glyph glyph-name="four" unicode="4" horiz-adv-x="636" 
d="M95 184l-73 34l362 416h101zM22 134v84h601v-84h-601zM395 634h95v-647h-95v647z" />
    <glyph glyph-name="five" unicode="5" horiz-adv-x="616" 
d="M107 620h441v-84h-441v84zM572 185q0 -45 -20.5 -83.5t-57 -67t-83.5 -43.5t-102 -13q-61 2 -109.5 16.5t-87 34t-69.5 37.5l33 83q36 -24 74.5 -43.5t79.5 -31t81 -11.5q29 0 57.5 7.5t51.5 23t36.5 38.5t13.5 53q1 53 -43.5 82.5t-119.5 30.5q-39 1 -75 -5t-71.5 -16
t-75.5 -24v81q60 23 123.5 36.5t122.5 11.5q47 -1 90 -14t77 -37t54 -60t20 -86zM85 620h95v-306l-95 -31v337z" />
    <glyph glyph-name="six" unicode="6" horiz-adv-x="626" 
d="M332 -13q-60 0 -112 20.5t-91.5 59.5t-61.5 94t-22 125q0 75 24 139t67.5 111t103 72.5t130.5 25.5q46 0 82.5 -8t66 -20t53.5 -25l-33 -78q-33 20 -72.5 33.5t-92.5 13.5q-48 0 -90 -18.5t-73.5 -52.5t-49.5 -82t-18 -109q0 -68 27.5 -117t72 -74.5t92.5 -25.5
q43 0 76.5 16t53 44.5t20.5 65.5q0 38 -20 64t-53.5 39t-74.5 13t-79 -7.5t-76.5 -23t-78.5 -38.5l-3 63q43 26 82.5 45.5t81.5 30t90 9.5q43 0 84 -11.5t74 -35t52.5 -59.5t19.5 -86q0 -47 -20 -86t-55.5 -67.5t-80.5 -44t-96 -15.5z" />
    <glyph glyph-name="seven" unicode="7" horiz-adv-x="604" 
d="M478 540l101 -8l-342 -546l-82 43zM579 616v-84h-451v-142h-84v226h535z" />
    <glyph glyph-name="eight" unicode="8" horiz-adv-x="669" 
d="M347 -13q-98 0 -163.5 28t-98 72t-32.5 93q0 41 19.5 73t48 55t55.5 36l91 -10q-28 -17 -54.5 -39t-44 -48.5t-17.5 -57.5q0 -33 25.5 -59.5t70.5 -43t103 -16.5q47 0 85.5 11.5t61 34t22.5 52.5q0 22 -11.5 37t-34 26t-57 20t-78.5 17q-71 14 -120 33t-79.5 43
t-44.5 51.5t-14 56.5q0 48 31 89.5t87.5 67.5t133.5 26q83 0 143 -27.5t92.5 -71.5t32.5 -92q0 -30 -11.5 -56t-30 -46t-39 -35.5t-39.5 -25.5l-93 9q25 18 52 40t45.5 48t18.5 57q0 33 -22 59t-61 41.5t-91 15.5q-38 0 -73 -11.5t-57 -33t-22 -51.5q0 -28 20 -47t57 -32
t87 -24q76 -15 129 -34t85.5 -42.5t47 -50.5t14.5 -58q0 -35 -17.5 -67.5t-52 -58t-84.5 -40t-116 -14.5z" />
    <glyph glyph-name="nine" unicode="9" horiz-adv-x="626" 
d="M256 -13q-45 0 -82 8t-66.5 20t-53.5 26l32 77q34 -20 73.5 -33.5t91.5 -13.5q65 0 117 32t83 91t31 139q0 69 -27.5 117t-71.5 74t-93 26q-42 0 -75.5 -16t-53 -44.5t-20.5 -65.5q-1 -38 19 -64t54 -39t75 -13t79 8t76.5 23.5t77.5 38.5l4 -63q-43 -26 -83 -46
t-81.5 -30t-90.5 -10q-43 0 -83.5 11t-73.5 34.5t-52.5 60t-19.5 85.5q0 48 20 87t54.5 68t80 44t97.5 15q60 0 111.5 -20.5t91 -59.5t61.5 -94t22 -125q0 -76 -23.5 -139t-67.5 -110t-103 -73t-130 -26z" />
    <glyph glyph-name="colon" unicode=":" horiz-adv-x="319" 
d="M159 349q-34 0 -58 18.5t-24 47.5t24 48t58 19q37 0 60 -19t23 -48t-23 -47.5t-60 -18.5zM159 -13q-34 0 -58 19t-24 47q0 30 24 49t58 19q37 0 60 -19t23 -49q0 -28 -23 -47t-60 -19z" />
    <glyph glyph-name="semicolon" unicode=";" horiz-adv-x="331" 
d="M123 -197l-28 28q28 29 49.5 56.5t35.5 53.5t19 53q-9 -3 -20 -4.5t-25 -1.5q-29 0 -50 17t-21 46q0 30 23 49.5t55 19.5q43 0 68 -28.5t25 -71.5q0 -36 -16.5 -73.5t-46 -73.5t-68.5 -70zM165 348q-34 0 -58 19t-24 47q0 29 24 48.5t58 19.5q37 0 60 -19.5t23 -48.5
q0 -28 -23 -47t-60 -19z" />
    <glyph glyph-name="less" unicode="&#x3c;" horiz-adv-x="600" 
d="M151 273l-70 25v24l437 263v-95zM518 35l-437 263v24l70 23l367 -214v-96z" />
    <glyph glyph-name="equal" unicode="=" horiz-adv-x="600" 
d="M529 445v-84h-458v84h458zM529 259v-84h-458v84h458z" />
    <glyph glyph-name="greater" unicode="&#x3e;" horiz-adv-x="600" 
d="M518 299l-437 -264v96l367 216l70 -24v-24zM518 299l-70 -24l-367 215v95l437 -262v-24z" />
    <glyph glyph-name="question" unicode="?" horiz-adv-x="468" 
d="M196 -13q-32 0 -55.5 17.5t-23.5 44.5q0 28 23.5 46t55.5 18q34 0 56.5 -18t22.5 -46q0 -27 -22.5 -44.5t-56.5 -17.5zM43 662q44 18 89 28t99 10q59 0 108.5 -19.5t80 -56.5t30.5 -90q0 -42 -21.5 -74t-56 -57t-74.5 -47q-32 -17 -56 -30.5t-40 -25t-23.5 -23.5
t-7.5 -27q0 -16 5 -32t13 -34l-35 -12q-24 37 -40 64t-16 56q0 30 17.5 51.5t48.5 40.5t70 38q33 18 57.5 33.5t37.5 33.5t13 43q0 24 -16 42.5t-43 28.5t-60 10q-41 0 -77 -9t-74 -25z" />
    <glyph glyph-name="at" unicode="@" horiz-adv-x="946" 
d="M443 -183q-72 0 -142.5 26.5t-128.5 79t-93 129.5t-35 178t36 181.5t97.5 137.5t141.5 87.5t168 30.5q93 0 169.5 -31t131.5 -85t84.5 -123t29.5 -146q0 -84 -27 -139.5t-69 -83t-87 -27.5q-44 0 -75.5 20t-48 52t-16.5 66v120q0 42 -30 60.5t-72 18.5q-40 0 -81 -10
t-83 -29l-18 67q48 20 95.5 32t100.5 12q40 0 72 -9.5t54.5 -29.5t34 -49t11.5 -67v-108q0 -40 19.5 -63.5t49.5 -23.5q27 0 52 20t41 62.5t16 108.5t-26 126t-73 107t-112 73.5t-143 26.5t-147.5 -28.5t-122 -81t-82.5 -123t-30 -154.5q0 -82 28.5 -148t77 -113.5
t108 -72.5t123.5 -25q44 0 83 9t70 22.5t53 28.5l22 -48q-23 -16 -56.5 -30.5t-76.5 -24t-94 -9.5zM412 26q-35 0 -67 13t-52.5 40t-20.5 69q0 32 14 56t38.5 40t55.5 24t65 8q43 0 80.5 -7.5t76.5 -21.5v-55q-41 12 -73.5 17t-63.5 5q-25 1 -48.5 -5t-38 -19.5t-14.5 -38.5
q0 -18 9.5 -30.5t25.5 -18.5t38 -6t49.5 8t57 23.5t58.5 37.5l-2 -58q-40 -36 -88 -58.5t-100 -22.5z" />
    <glyph glyph-name="A" unicode="A" horiz-adv-x="851" 
d="M83 18l268 627h146l271 -627h-111l-248 624h22l-248 -624h-100zM4 0v84h325v-84h-325zM238 243l23 75h322l22 -75h-367zM520 0v84h327v-84h-327zM231 603v83h386v-83h-386z" />
    <glyph glyph-name="B" unicode="B" horiz-adv-x="756" 
d="M36 0v84h397q77 0 122.5 25.5t45.5 85.5q0 40 -21 65t-59 36t-88 11h-200v77h169q67 0 108 27t41 85q0 39 -18 62t-48 33.5t-65 10.5h-384v84h391q75 0 125.5 -22.5t76.5 -63t26 -92.5q0 -45 -19 -78.5t-51 -56t-72.5 -33t-83.5 -10.5v38q51 0 99.5 -8t88.5 -27.5
t64 -55.5t24 -90q0 -90 -68 -138.5t-194 -48.5h-407zM165 47v592h102v-592h-102z" />
    <glyph glyph-name="C" unicode="C" horiz-adv-x="758" 
d="M406 -13q-74 0 -138.5 25.5t-113 73.5t-76 113t-27.5 143q0 81 27 147t74 113t107.5 72.5t126.5 25.5q69 0 121.5 -23.5t89 -63t57.5 -89.5l-47 15v147h94v-223l-66 -6q-21 47 -52.5 83t-76 56t-105.5 20q-48 0 -91.5 -18.5t-77.5 -54t-53.5 -86t-19.5 -114.5
q0 -59 19 -108.5t52.5 -86t78.5 -56t97 -19.5q44 0 79.5 10t64 28t51.5 41.5t41 50.5l67 -56q-22 -33 -51.5 -62t-67 -51.5t-83.5 -34.5t-101 -12z" />
    <glyph glyph-name="D" unicode="D" horiz-adv-x="817" 
d="M36 0v84h326q58 0 111 14t95 44.5t66 80t24 120.5q0 72 -24 121.5t-66 79.5t-95 44t-111 14h-326v84h336q78 0 149 -21t126 -63.5t87 -107t32 -151.5q0 -86 -32 -150.5t-87 -107.5t-126 -64t-149 -21h-336zM165 49v589h104v-589h-104z" />
    <glyph glyph-name="E" unicode="E" horiz-adv-x="789" 
d="M36 0v84h586v137h92v-221h-678zM164 47v587h103v-587h-103zM209 305v77h259v-77h-259zM424 212v262h80v-262h-80zM622 465v137h-586v84h678v-221h-92z" />
    <glyph glyph-name="F" unicode="F" horiz-adv-x="738" 
d="M609 460v142h-573v84h666v-226h-93zM36 0v84h367v-84h-367zM165 47v591h102v-591h-102zM210 295v77h261v-77h-261zM427 202v263h80v-263h-80z" />
    <glyph glyph-name="G" unicode="G" horiz-adv-x="801" 
d="M412 -14q-81 0 -147.5 26t-115.5 74t-75 113.5t-26 143.5q0 79 27 144t73.5 113t107.5 74t129 26q72 0 127 -22.5t94 -58.5t61 -78l-43 13v132h91v-214l-66 -4q-21 40 -54.5 73.5t-79.5 54t-107 20.5q-52 0 -97.5 -18.5t-80.5 -54t-54.5 -86t-19.5 -114.5
q0 -61 19 -110.5t54 -85.5t81.5 -55.5t101.5 -19.5q48 0 86.5 8.5t69 23.5t52.5 33v133h-219v79h314v-255q-32 -30 -78 -54.5t-103 -39t-122 -14.5z" />
    <glyph glyph-name="H" unicode="H" horiz-adv-x="935" 
d="M205 309v79h526v-79h-526zM36 0v84h360v-84h-360zM165 47v593h105v-593h-105zM36 602v84h360v-84h-360zM538 0v84h361v-84h-361zM666 49v592h104v-592h-104zM538 602v84h361v-84h-361z" />
    <glyph glyph-name="I" unicode="I" horiz-adv-x="434" 
d="M165 49v591h104v-591h-104zM36 0v84h362v-84h-362zM36 602v84h362v-84h-362z" />
    <glyph glyph-name="J" unicode="J" horiz-adv-x="578" 
d="M216 -13q-46 0 -86 11t-71.5 28.5t-54.5 36.5l45 72q20 -14 45 -29t55 -24.5t62 -8.5q38 1 67 17t45.5 49.5t16.5 85.5l-1 416h105v-418q0 -75 -30.5 -128t-82 -80.5t-115.5 -27.5zM160 602v84h411v-84h-411z" />
    <glyph glyph-name="K" unicode="K" horiz-adv-x="859" 
d="M209 148v95l444 379h118zM36 0v84h356v-84h-356zM165 47v591h104v-591h-104zM36 602v84h356v-84h-356zM527 0v84h322v-84h-322zM653 58l-271 314l80 51l322 -365h-131zM519 602v84h321v-84h-321z" />
    <glyph glyph-name="L" unicode="L" horiz-adv-x="724" 
d="M36 0v84h546v155h98v-239h-644zM165 47v587h103v-587h-103zM36 602v84h360v-84h-360z" />
    <glyph glyph-name="M" unicode="M" horiz-adv-x="1101" 
d="M522 -7l-344 693h100l308 -615l-26 -78h-38zM36 0v84h344v-84h-344zM164 46v640h66q3 -16 7 -41t8 -55t8 -60.5t6 -59.5t2 -53v-371h-97zM36 602v84h224v-84h-224zM716 0v84h349v-84h-349zM539 -7l-20 78l303 615h96l-343 -693h-36zM836 46v371q0 24 2.5 53t7 59.5
t10 60.5t10 55t8.5 41h64v-640h-102zM837 602v84h228v-84h-228z" />
    <glyph glyph-name="N" unicode="N" horiz-adv-x="938" 
d="M744 -6l-609 692h128l436 -507v490h96v-675h-51zM36 0v84h350v-84h-350zM165 15v671h98v-671h-98zM36 602v84h227l-1 -84h-226zM570 602v84h350v-84h-350z" />
    <glyph glyph-name="O" unicode="O" horiz-adv-x="814" 
d="M408 -13q-76 0 -141 26t-113.5 73.5t-75.5 112.5t-27 144t27 144.5t75.5 113t113.5 73.5t141 26q75 0 139.5 -26t112.5 -73.5t75.5 -113t27.5 -144.5t-27.5 -144t-75.5 -112.5t-112.5 -73.5t-139.5 -26zM408 73q54 0 99.5 20t78.5 56t51 85.5t18 108.5q0 60 -18 109.5
t-51 85.5t-78.5 56t-99.5 20q-56 0 -102 -20t-79 -56.5t-50.5 -86t-17.5 -108.5q0 -60 17.5 -109.5t50.5 -85.5t79 -55.5t102 -19.5z" />
    <glyph glyph-name="P" unicode="P" horiz-adv-x="734" 
d="M233 255v84l190 -1q43 0 81.5 12t62.5 42t24 82q0 48 -24 76t-63 40t-84 12h-384v84h391q80 0 140 -25.5t93.5 -73.5t33.5 -114q0 -68 -33 -117t-93 -75t-140 -26h-195zM36 0v84h368v-84h-368zM165 47v594h102v-594h-102z" />
    <glyph glyph-name="Q" unicode="Q" horiz-adv-x="814" 
d="M698 -115q-54 0 -102 24.5t-90 74t-80 127.5l-30 62q-18 36 -35.5 62t-38.5 42.5t-50 25t-70 8.5h-63v77h63q49 0 88.5 -8.5t73 -29.5t62 -56.5t54.5 -89.5l32 -61q31 -61 61.5 -99t64 -56t73.5 -18q18 0 32.5 1t24.5 4l13 -78q-10 -3 -22.5 -6t-28 -4.5t-32.5 -1.5z
M408 -13q-76 0 -141 26t-113.5 73.5t-75.5 112.5t-27 144t27 144.5t75.5 113t113.5 73.5t141 26q75 0 139.5 -26t112.5 -73.5t75.5 -113t27.5 -144.5t-27.5 -144t-75.5 -112.5t-112.5 -73.5t-139.5 -26zM407 70q56 0 102 20t79 56.5t51.5 86.5t18.5 110q0 61 -18.5 111
t-51.5 86.5t-79 56.5t-102 20t-102 -20t-79.5 -56.5t-51.5 -87t-18 -110.5t18 -110t51.5 -86.5t79.5 -56.5t102 -20z" />
    <glyph glyph-name="R" unicode="R" horiz-adv-x="785" 
d="M235 291v78h202q41 0 74.5 14t53.5 41t20 64q0 36 -19 61.5t-52.5 39.5t-76.5 14h-401v83h398q78 0 135 -24.5t88 -69t31 -104.5q0 -57 -30.5 -102t-87 -70t-134.5 -25h-201zM36 0v83h359v-83h-359zM165 47v591h104v-591h-104zM677 -14q-46 1 -85 18.5t-71.5 60
t-59.5 118.5l-43 122l85 11l44 -109q22 -53 45 -80.5t47.5 -37.5t47.5 -10q21 0 34.5 4t25.5 8l22 -84q-17 -9 -40.5 -15t-51.5 -6z" />
    <glyph glyph-name="S" unicode="S" horiz-adv-x="699" 
d="M417 -13q-47 0 -90.5 13.5t-82.5 37.5t-73 57t-63 71l56 -10v-155h-91v231l59 3q27 -39 59.5 -69.5t69.5 -51.5t75 -32t75 -11t65.5 10.5t45 30.5t16.5 47q0 23 -12 42t-38 35.5t-68 32t-102 31.5q-84 22 -137.5 53t-78.5 72.5t-25 92.5q0 56 30.5 96.5t80 63t107.5 22.5
q61 0 112.5 -20t93 -60.5t70.5 -102.5l-52 11v158h92v-228l-56 -3q-28 54 -65 90t-80.5 53.5t-91.5 17.5q-38 0 -68 -11t-47.5 -31.5t-17.5 -50.5q0 -22 11 -40.5t34.5 -35t60 -31t88.5 -28.5q81 -22 140.5 -51t93 -69.5t33.5 -98.5q0 -56 -30 -97t-82 -63t-117 -22z" />
    <glyph glyph-name="T" unicode="T" horiz-adv-x="778" 
d="M38 460v226h702v-226h-92v143h-517v-143h-93zM207 0v84h364v-84h-364zM337 53v587h104v-587h-104z" />
    <glyph glyph-name="U" unicode="U" horiz-adv-x="887" 
d="M443 -14q-70 0 -126.5 21t-97 58.5t-62 87.5t-21.5 111v377h104v-374q0 -57 25.5 -101t71.5 -69t106 -25q61 0 107 25.5t72 69.5t26 101v373h104v-377q0 -61 -22 -111t-63.5 -87.5t-98 -58.5t-125.5 -21zM7 602v84h354v-84h-354zM525 602v84h355v-84h-355z" />
    <glyph glyph-name="V" unicode="V" horiz-adv-x="841" 
d="M333 686v-84h-333v84h333zM841 686v-84h-338v84h338zM394 -14l-309 683h111l230 -536l226 536h104l-311 -683h-51z" />
    <glyph glyph-name="W" unicode="W" horiz-adv-x="1180" 
d="M3 602v84h336v-84h-336zM333 -14l-232 649h111l189 -567l-33 -82h-35zM348 -14l-23 60l238 625h37l21 -94l-237 -591h-36zM796 -14l-248 588l36 97h36l240 -603l-30 -82h-34zM810 -14l-23 60l187 589h103l-231 -649h-36zM842 602v84h335v-84h-335z" />
    <glyph glyph-name="X" unicode="X" horiz-adv-x="815" 
d="M580 64l-199 242h-13l-280 316h137l216 -254h12l264 -304h-137zM13 0v84h136l7 -8h178v-76h-321zM465 0v76h194l8 8h135v-84h-337zM106 64l271 308l15 2l213 248h110l-274 -308l-16 -2l-208 -248h-111zM13 602v84h337v-76h-202l-6 -8h-129zM479 610v76h323v-84h-131l-6 8
h-186z" />
    <glyph glyph-name="Y" unicode="Y" horiz-adv-x="806" 
d="M374 232l-287 398h121l206 -297l202 296h98l-284 -397h-56zM219 0v84h370v-84h-370zM352 36v267h104v-267h-104zM10 602v84h316v-84h-316zM481 602v84h315v-84h-315z" />
    <glyph glyph-name="Z" unicode="Z" horiz-adv-x="741" 
d="M64 0v70l446 503q12 12 29 20.5t28 11.5l-1 5q-11 -2 -27.5 -4.5t-32.5 -2.5h-348v-143h-93v226h614v-70l-449 -505q-11 -12 -27.5 -20t-27.5 -10l1 -4q9 2 27 4.5t33 2.5h356v142h93v-226h-621z" />
    <glyph glyph-name="bracketleft" unicode="[" horiz-adv-x="345" 
d="M121 830h91v-970h-91v970zM146 830h184v-83h-184v83zM146 -57h184v-83h-184v83z" />
    <glyph glyph-name="backslash" unicode="\" horiz-adv-x="490" 
d="M382 -105l-356 845h89l356 -845h-89z" />
    <glyph glyph-name="bracketright" unicode="]" horiz-adv-x="345" 
d="M134 -140v970h90v-970h-90zM16 -140v83h184v-83h-184zM16 747v83h184v-83h-184z" />
    <glyph glyph-name="asciicircum" unicode="^" horiz-adv-x="555" 
d="M312 813l192 -384h-98l-160 352l17 32h49zM304 813l17 -32l-173 -352h-98l205 384h49z" />
    <glyph glyph-name="underscore" unicode="_" horiz-adv-x="406" 
d="M419 -89v-84h-432v84h432z" />
    <glyph glyph-name="grave" unicode="`" horiz-adv-x="465" 
d="M321 754l-223 147l53 73l198 -182z" />
    <glyph glyph-name="a" unicode="a" horiz-adv-x="601" 
d="M510 -8q-29 0 -52 14.5t-36.5 42.5t-13.5 67v185q0 36 -17 57.5t-44.5 31.5t-61.5 10q-45 0 -92 -12t-95 -32l-21 77q54 23 110 36.5t110 13.5q64 0 110 -21t70.5 -62t24.5 -103v-173q0 -26 9 -37.5t25 -11.5q9 0 17 3t14 5l21 -71q-11 -7 -31.5 -13.5t-46.5 -6.5z
M214 -14q-44 0 -82 17t-60.5 50.5t-22.5 82.5q0 50 28.5 84.5t73.5 52t96 17.5q59 0 103 -13.5t91 -33.5v-64q-53 23 -96.5 30.5t-80.5 7.5q-31 1 -57.5 -8t-43.5 -26t-17 -44q0 -23 13 -39t34.5 -23.5t45.5 -7.5q26 0 59 10.5t69.5 32.5t73.5 55l-2 -68
q-34 -34 -71.5 -59.5t-76 -39.5t-77.5 -14z" />
    <glyph glyph-name="b" unicode="b" horiz-adv-x="646" 
d="M3 607v79h190v-79h-190zM387 483q59 0 108.5 -30.5t79.5 -85t30 -127.5q0 -56 -18.5 -102.5t-52 -80t-78 -52.5t-96.5 -19t-91.5 19.5t-70 48.5t-53.5 56v71q24 -28 54.5 -53.5t65.5 -41.5t74 -16q36 0 65.5 12.5t52 35.5t34.5 54t12 69q0 48 -18.5 84t-51.5 55.5
t-76 18.5q-39 0 -78 -23t-72.5 -62.5t-58.5 -91.5v76q23 54 60.5 95.5t84 65.5t94.5 24zM101 0v686h97v-600l-38 -86h-59z" />
    <glyph glyph-name="c" unicode="c" horiz-adv-x="553" 
d="M297 -15q-50 0 -95.5 17.5t-82 50t-57.5 79t-21 102.5q0 54 18.5 99.5t51.5 79t76 52t91 18.5t82 -14.5t59.5 -41t43.5 -64.5l-31 8v100h71v-165l-42 -3q-16 32 -38.5 54t-51.5 33t-66 11q-35 0 -64.5 -11.5t-51 -33.5t-34 -53t-12.5 -68q0 -50 23 -87t59.5 -57.5
t77.5 -21.5q53 -1 91.5 19.5t71.5 51.5l44 -64q-41 -38 -93.5 -64.5t-119.5 -26.5z" />
    <glyph glyph-name="d" unicode="d" horiz-adv-x="652" 
d="M269 -14q-61 0 -113 30.5t-83.5 85.5t-31.5 127q0 57 18.5 103t52.5 80t78.5 52.5t95.5 18.5q52 0 92 -19t70.5 -47t53.5 -56v-72q-24 29 -54.5 54t-65.5 40.5t-74 15.5q-36 0 -66 -12.5t-52.5 -34.5t-34.5 -53.5t-12 -68.5q0 -48 19 -84.5t53.5 -56.5t77.5 -19
q41 1 77.5 18.5t69 44.5t59.5 54v-76q-18 -19 -41.5 -40.5t-51.5 -41t-62 -31.5t-75 -12zM553 -10q-47 0 -77 32t-30 91v573h96v-565q0 -26 9.5 -37t23.5 -11q11 0 19 2.5t14 5.5l20 -72q-11 -7 -31.5 -13t-43.5 -6zM340 607v79h193v-79h-193z" />
    <glyph glyph-name="e" unicode="e" horiz-adv-x="560" 
d="M302 -14q-49 0 -95.5 15.5t-84 45.5t-59.5 74.5t-22 102.5q0 62 22.5 110t60.5 81t85 50.5t97 17.5q60 0 106 -18.5t72.5 -52t26.5 -78.5q0 -46 -27.5 -77t-71.5 -46.5t-93 -15.5q-61 0 -109.5 14.5t-94.5 35.5l-1 60q53 -23 97.5 -32t86.5 -9q32 0 57.5 8t41.5 24t16 38
q0 32 -28 51.5t-72 19.5q-33 0 -64.5 -12.5t-57 -35.5t-41 -55.5t-15.5 -74.5q0 -49 24 -84.5t62.5 -54t83.5 -18.5q56 0 98.5 18.5t75.5 46.5l42 -65q-28 -24 -60.5 -43t-72 -30t-86.5 -11z" />
    <glyph glyph-name="f" unicode="f" horiz-adv-x="425" 
d="M135 36v502q0 63 24 106.5t66.5 66t98.5 22.5q49 0 89.5 -14.5t81.5 -35.5l-36 -76q-32 20 -61.5 31t-62.5 11q-30 0 -53.5 -12.5t-36.5 -36.5t-13 -59v-505h-97zM29 0v79h341v-79h-341zM29 392v79h353v-79h-353z" />
    <glyph glyph-name="g" unicode="g" horiz-adv-x="580" 
d="M250 -218q-65 0 -117 17t-82.5 48t-30.5 75q0 31 15.5 55t37.5 41.5t42 28.5l44 -23q-19 -9 -36 -30.5t-17 -51.5q0 -24 18.5 -42t54 -27.5t85.5 -9.5q53 0 99.5 12t76 34t29.5 52q0 27 -20 39t-54 12q-24 0 -48.5 -3.5t-50.5 -8t-54.5 -8t-61.5 -3.5q-43 0 -76 14.5
t-51.5 40t-18.5 56.5q0 34 17 60t43 45t54 30l42 -28q-18 -9 -34 -22t-25.5 -28.5t-9.5 -33.5q0 -17 9 -29.5t26 -19t41 -6.5q28 0 54 3t52 7.5t53.5 7.5t59.5 3q42 0 74 -14t50.5 -41t18.5 -67q0 -43 -24.5 -77.5t-68 -58t-99 -36.5t-117.5 -13zM289 143q-39 0 -76.5 10.5
t-68.5 32t-49.5 53t-18.5 73.5q0 43 19.5 75t51 53.5t68.5 32t74 10.5q39 0 76.5 -10.5t68.5 -31.5t50 -52.5t19 -73.5t-19 -74.5t-50 -54t-69 -32.5t-76 -11zM289 214q34 0 60.5 12t41.5 35t15 54t-16 53t-42.5 33t-58.5 11q-31 0 -58 -12t-43 -34t-16 -54q0 -31 16 -53
t43 -33.5t58 -11.5zM425 413l-34 29q8 32 22.5 55.5t35.5 39t47.5 24t56.5 9.5v-82q-45 -2 -75 -17.5t-53 -57.5z" />
    <glyph glyph-name="h" unicode="h" horiz-adv-x="717" 
d="M513 0v274q0 29 -6.5 51.5t-20 38t-33.5 23.5t-46 8q-27 0 -54.5 -11.5t-55 -32t-55 -50t-55.5 -65.5v80q32 39 62.5 70t61.5 53t64 33t71 11q40 0 71 -12.5t52 -38.5t32 -64.5t11 -90.5v-277h-99zM23 0v79h290v-79h-290zM427 0v79h278v-79h-278zM227 686v-686h-98v607
h-106v79h204z" />
    <glyph glyph-name="i" unicode="i" horiz-adv-x="355" 
d="M135 22v449h99v-449h-99zM29 0v79h312v-79h-312zM29 392v79h182v-79h-182zM172 574q-31 0 -53.5 17t-22.5 42q0 28 22.5 45.5t53.5 17.5q35 0 57 -17.5t22 -45.5q0 -25 -22 -42t-57 -17z" />
    <glyph glyph-name="j" unicode="j" horiz-adv-x="325" 
d="M49 -238q-44 0 -73.5 10t-52.5 18l25 82q23 -9 46 -16t52 -7q40 0 65 28.5t25 82.5v511h98v-509q0 -64 -24 -109t-66 -68t-95 -23zM30 392v79h182v-79h-182zM172 574q-31 0 -53.5 17t-22.5 42q0 28 22.5 45.5t53.5 17.5q35 0 57 -17.5t22 -45.5q0 -25 -22 -42t-57 -17z
" />
    <glyph glyph-name="k" unicode="k" horiz-adv-x="680" 
d="M396 173q-38 0 -72 7t-65.5 18t-61.5 23v64q35 -14 66.5 -23t59.5 -12.5t52 -3.5q33 1 61 10t45.5 27.5t17.5 45.5q0 34 -24.5 53t-67.5 19q-29 0 -64.5 -12.5t-72.5 -35t-73 -54.5l2 68q34 34 71.5 60t78.5 41t83 15q45 0 84 -17t62.5 -50.5t22.5 -83.5q0 -38 -18 -67.5
t-47 -50t-65.5 -31t-74.5 -10.5zM23 0v79h300v-79h-300zM128 22v664h95v-664h-95zM23 607v79h194v-79h-194zM568 -14q-47 0 -83.5 25t-59.5 72t-30 114h71q9 -44 24.5 -72.5t37 -42.5t47.5 -15q19 0 35.5 4t31.5 12l21 -71q-19 -12 -43.5 -19t-51.5 -7z" />
    <glyph glyph-name="l" unicode="l" horiz-adv-x="349" 
d="M128 22v664h99v-664h-99zM23 0v79h312v-79h-312zM23 607v79h198v-79h-198z" />
    <glyph glyph-name="m" unicode="m" horiz-adv-x="1057" 
d="M29 392v79h177v-79h-177zM135 22v449h99v-449h-99zM29 0v79h291v-79h-291zM496 22v258q0 34 -10.5 58.5t-31 38.5t-51.5 14q-34 0 -70 -18.5t-70 -53.5t-67 -83v80q32 51 70 88.5t81.5 58t89.5 20.5q37 0 65.5 -12.5t49.5 -38t31.5 -62.5t10.5 -87v-261h-98zM410 0v79
h270v-79h-270zM854 22v258q0 25 -5.5 45.5t-17 35t-29 22.5t-40.5 8q-34 0 -70 -18.5t-70 -53.5t-66 -83v80q32 51 69.5 88.5t80.5 58t90 20.5q36 0 65 -12.5t49.5 -38t31 -62.5t10.5 -87v-261h-98zM769 0v79h276v-79h-276z" />
    <glyph glyph-name="n" unicode="n" horiz-adv-x="726" 
d="M523 0v274q0 27 -7 48.5t-20.5 37t-33 23.5t-45.5 8q-27 0 -54.5 -10.5t-55.5 -31t-55.5 -49t-55.5 -64.5v80q32 39 62.5 70t61 53t63 33t68.5 11q41 0 72.5 -12.5t53 -38.5t33 -64.5t11.5 -90.5v-277h-98zM29 0v79h291v-79h-291zM135 0v471h99v-471h-99zM29 392v79h184
v-79h-184zM436 0v79h278v-79h-278z" />
    <glyph glyph-name="o" unicode="o" horiz-adv-x="601" 
d="M301 -14q-52 0 -98.5 17.5t-83 50t-57.5 78t-21 102.5t21 103t57.5 78.5t83 50t98.5 17.5q50 0 97 -17.5t83.5 -50t57.5 -78.5t21 -103t-20.5 -102.5t-56.5 -78t-83 -50t-99 -17.5zM301 64q45 0 80 21t56 59t21 90t-21 90t-56 59t-80 21t-81 -21t-56.5 -59t-20.5 -90
t20.5 -90t56.5 -59t81 -21z" />
    <glyph glyph-name="p" unicode="p" horiz-adv-x="668" 
d="M383 -14q-53 0 -92.5 19.5t-70 48.5t-53.5 56v71q23 -28 53.5 -53.5t66 -41.5t74.5 -16q36 0 66 12.5t52 35.5t34 54t12 69q0 48 -18.5 84t-51.5 55.5t-76 18.5q-39 0 -78 -23t-72.5 -62.5t-58.5 -91.5v76q24 54 61.5 95.5t83.5 65.5t94 24q59 0 108.5 -30.5t80 -85
t30.5 -127.5q0 -56 -19 -102.5t-52.5 -80t-77.5 -52.5t-96 -19zM18 -218v79h310v-79h-310zM123 -197v668h97v-668h-97zM18 392v79h198v-79h-198z" />
    <glyph glyph-name="q" unicode="q" horiz-adv-x="660" 
d="M269 -14q-64 0 -115.5 31.5t-82 86t-30.5 123.5q0 58 20 105.5t56 81t84 51.5t102 18q50 0 97 -13t90 -35.5t80.5 -49t66.5 -53.5v-99q-31 28 -69 57.5t-80 54t-85 39.5t-83 15q-38 0 -70.5 -12t-56 -34.5t-37 -54t-13.5 -70.5q0 -45 19.5 -81.5t54.5 -57t82 -19.5
q34 1 69 15t67.5 44t58.5 76v-76q-25 -42 -59 -74t-75 -50.5t-91 -18.5zM306 -218v79h320v-79h-320zM424 -212v621l59 77h37v-698h-96z" />
    <glyph glyph-name="r" unicode="r" horiz-adv-x="549" 
d="M202 236v78q37 49 79 87.5t87 60t90 21.5h42v-201h-86v104q-31 0 -66 -18t-72 -51.5t-74 -80.5zM29 0v79h312v-79h-312zM135 22v449h99v-449h-99zM29 392v79h199v-79h-199z" />
    <glyph glyph-name="s" unicode="s" horiz-adv-x="547" 
d="M308 -14q-35 0 -69 8.5t-65.5 25t-56.5 38t-43 48.5l47 -1v-106h-73v153l41 4q24 -27 58.5 -51.5t73.5 -39.5t78 -15q25 0 43.5 6t28.5 19t10 31q0 16 -9 29t-27 23t-44.5 19.5t-62.5 18.5q-55 15 -97 35t-66.5 49.5t-24.5 71.5q0 37 20.5 66.5t57.5 47.5t87 18
q45 0 86.5 -14.5t73.5 -40.5t50 -62l-41 1v103h72v-152l-42 -5q-19 33 -48.5 57t-62.5 36.5t-64 12.5q-26 0 -47 -7t-33 -20t-12 -31q0 -15 9.5 -27t27.5 -21.5t43.5 -18.5t58.5 -18q54 -15 97.5 -35.5t69 -51t25.5 -76.5q0 -40 -23 -68.5t-61.5 -44t-85.5 -15.5z" />
    <glyph glyph-name="t" unicode="t" horiz-adv-x="447" 
d="M289 -14q-49 0 -87.5 22t-59.5 63.5t-21 102.5v428h98v-429q0 -35 11.5 -57t31 -32.5t42.5 -10.5q28 0 52 7t44 18l30 -74q-25 -15 -60 -26.5t-81 -11.5zM16 392v79h359v-79h-359z" />
    <glyph glyph-name="u" unicode="u" horiz-adv-x="673" 
d="M267 -14q-39 0 -69 13t-51 39t-32 64.5t-11 89.5v279h98v-276q0 -26 5.5 -47.5t17 -37.5t30.5 -24.5t46 -8.5q25 0 51 11t53 31t54 49.5t53 65.5v-79q-30 -40 -59.5 -71t-59.5 -53t-61 -33.5t-65 -11.5zM10 392v79h172v-79h-172zM575 -10q-33 0 -58 14t-38.5 41.5
t-13.5 67.5v358h98v-350q0 -26 9.5 -37.5t24.5 -11.5q10 0 17 2t14 6l22 -71q-13 -7 -32.5 -13t-42.5 -6zM379 392v79h170v-79h-170z" />
    <glyph glyph-name="v" unicode="v" horiz-adv-x="644" 
d="M296 -14l-233 443h109l159 -321l154 320h89l-227 -442h-51zM11 392v79h255v-72h-148l-6 -7h-101zM391 399v72h242v-79h-104l-6 7h-132z" />
    <glyph glyph-name="w" unicode="w" horiz-adv-x="884" 
d="M14 391v80h257v-73h-145l-4 -7h-108zM240 -13l-165 436h101l130 -374l-23 -62h-43zM272 -13l-32 49l184 422h28l15 -90l-177 -381h-18zM595 -13l-178 381l25 90h37l178 -409l-20 -62h-42zM627 -13l-36 49l135 391h87l-169 -440h-17zM629 398v73h241v-80h-108l-4 7h-129z
" />
    <glyph glyph-name="x" unicode="x" horiz-adv-x="641" 
d="M69 53l233 211h11l158 154h100l-229 -210h-12l-159 -155h-102zM33 -1v80h97l7 -7h142v-73h-246zM342 -1v73h163l5 7h98v-80h-266zM33 392v79h268v-72h-164l-6 -7h-98zM442 53l-151 156h-6l-214 209h127l154 -156h6l211 -209h-127zM364 399v72h244v-79h-97l-7 7h-140z" />
    <glyph glyph-name="y" unicode="y" horiz-adv-x="654" 
d="M155 -238q-30 0 -53.5 6.5t-44.5 18t-41 24.5l40 75q19 -13 43.5 -25t55.5 -12q28 0 52.5 12t45.5 37t39 66l214 490h92l-226 -506q-28 -61 -60 -102t-71 -62.5t-86 -21.5zM316 -55l-237 484h109l194 -430zM19 392v79h264v-72h-150l-6 -7h-108zM405 399v72h239v-79h-105
l-5 7h-129z" />
    <glyph glyph-name="z" unicode="z" horiz-adv-x="590" 
d="M464 484l83 -30q-11 -55 -32 -93.5t-49.5 -66t-64 -48t-77.5 -39.5q-51 -24 -90.5 -51t-69.5 -66.5t-52 -103.5l-80 32q19 59 46.5 101t60 71t67.5 50t69 39q37 19 67.5 36.5t55 38.5t41 52t25.5 78zM376 -14q-48 0 -88.5 17.5t-78 48.5t-76.5 72l31 51q54 -49 102.5 -77
t95.5 -28q44 0 76.5 29.5t39.5 77.5l85 -23q-5 -52 -33 -90t-68.5 -58t-85.5 -20zM52 282v201h64q61 0 106 -9t81 -25.5t68.5 -41t69.5 -55.5l-39 -55q-25 20 -51 38.5t-57 32.5t-69.5 22.5t-88.5 8.5v-117h-84z" />
    <glyph glyph-name="braceleft" unicode="{" horiz-adv-x="481" 
d="M296 -184q-36 0 -70.5 10t-61.5 29.5t-43 49t-16 68.5q0 30 11.5 55.5t29.5 46.5t38.5 40t39 37t30 36t11.5 37q0 40 -35 61t-102 20h-54v73h54q67 0 102 20.5t35 59.5q0 20 -11.5 38t-30 36t-39 37t-38.5 40t-29.5 46t-11.5 56q0 39 16 68.5t43 49t61.5 29.5t70.5 10
q56 0 94.5 -10t75.5 -26l-28 -78q-32 14 -62.5 21.5t-67.5 7.5q-19 0 -38.5 -3.5t-35 -12.5t-25 -24t-9.5 -37q0 -21 11 -38.5t28.5 -34t37 -34t37 -37t28.5 -43t11 -53.5q0 -42 -24 -71t-66.5 -44.5t-98.5 -15.5v13q56 0 98.5 -15.5t66.5 -44.5t24 -71q0 -29 -11 -52.5
t-28.5 -43.5t-37 -37t-37 -33.5t-28.5 -34.5t-11 -38q0 -23 9.5 -38t25 -24t35 -13t38.5 -4q37 0 67.5 8.5t62.5 21.5l28 -78q-37 -15 -75.5 -25.5t-94.5 -10.5z" />
    <glyph glyph-name="bar" unicode="|" horiz-adv-x="345" 
d="M125 837h95v-1030h-95v1030z" />
    <glyph glyph-name="braceright" unicode="}" horiz-adv-x="481" 
d="M185 -184q-56 0 -94.5 10.5t-75.5 25.5l27 78q33 -13 63.5 -21.5t66.5 -8.5q20 0 39 4t35 13t25 24t9 38q0 20 -11 38t-28.5 34.5t-37 33.5t-37 37t-29 43.5t-11.5 52.5q0 42 24.5 71t67.5 44.5t98 15.5v-13q-55 0 -98 15.5t-67.5 44.5t-24.5 71q0 30 11.5 53.5t29 43
t37 37t37 34t28.5 34t11 38.5q0 22 -9 37t-25 24t-35 12.5t-39 3.5q-36 0 -66.5 -7t-63.5 -22l-27 78q37 16 75.5 26t94.5 10q36 0 70.5 -10t61.5 -29.5t43 -49t16 -68.5q0 -31 -11.5 -56t-30 -46t-38.5 -39.5t-38.5 -36.5t-30 -36t-11.5 -39q0 -39 35 -60t102 -20h53v-73
h-53q-67 0 -102 -20.5t-35 -60.5q0 -19 11.5 -37t30 -36t38.5 -36.5t38.5 -40.5t30 -47t11.5 -55q0 -39 -16 -68.5t-43 -49t-61.5 -29.5t-70.5 -10z" />
    <glyph glyph-name="asciitilde" unicode="~" horiz-adv-x="600" 
d="M430 181q-34 0 -62 13.5t-52 37t-48 54.5q-20 27 -36 45.5t-31 28t-32 9.5q-26 0 -43 -18.5t-26 -55.5t-10 -93l-84 2q0 50 9 94.5t28 79t50.5 54.5t75.5 20q34 0 61 -13t51 -35.5t47 -52.5q21 -27 38 -46.5t32 -29.5t32 -10q26 0 43.5 18t26.5 55.5t9 93.5l84 -2
q0 -50 -9 -94.5t-28 -79.5t-50 -55t-76 -20z" />
    <glyph glyph-name="uni00A0" unicode="&#xa0;" horiz-adv-x="295" 
 />
    <glyph glyph-name="exclamdown" unicode="&#xa1;" horiz-adv-x="346" 
d="M194 503l10 -153q9 -83 19 -149.5t18 -112t8 -68.5q0 -19 -7.5 -36.5t-24 -28.5t-44.5 -11q-27 0 -43.5 11t-24 28.5t-7.5 36.5q0 23 8.5 68.5t19 111.5t15.5 150l11 153h42zM174 579q-37 0 -60.5 19t-23.5 49q0 29 23.5 47.5t60.5 18.5q34 0 58 -18.5t24 -47.5
q0 -30 -24 -49t-58 -19z" />
    <glyph glyph-name="cent" unicode="&#xa2;" horiz-adv-x="571" 
d="M313 72q-47 0 -93.5 15t-84.5 45t-61 74.5t-23 102.5q0 54 20 98t54.5 75.5t78 49t89.5 17.5q49 0 84 -15.5t60.5 -42.5t43.5 -61l-38 7v103h72v-166l-49 -1q-24 47 -61.5 73t-93.5 26q-32 0 -61.5 -12t-51.5 -33.5t-35 -51.5t-13 -66q0 -46 22 -82t59 -57.5t84 -21.5
q53 0 91 20.5t69 50.5l47 -66q-24 -22 -54 -40t-67.5 -29.5t-87.5 -11.5zM272 -13v134l4 14v366l-4 15v118h77v-118l-3 -15v-366l3 -14v-134h-77z" />
    <glyph glyph-name="sterling" unicode="&#xa3;" horiz-adv-x="671" 
d="M63 -13v81h27q22 0 45 5.5t42 17t30.5 29t11.5 42.5q0 33 -15 66t-34.5 67t-34 70t-14.5 77q0 59 26.5 102t73 66.5t106.5 23.5q82 0 148 -41.5t113 -116.5l-63 4v140h85v-193l-48 -4q-34 51 -71.5 79.5t-75 40.5t-70.5 12q-35 0 -63.5 -13t-46.5 -38t-18 -62
q0 -36 15.5 -71t36 -70.5t35.5 -71.5t15 -73q0 -47 -26.5 -85.5t-77.5 -61t-125 -22.5h-27zM65 200v61h432v-61h-432zM467 -13q-32 0 -62.5 10.5t-58.5 27.5t-52.5 37.5t-44.5 42.5l14 78q19 -20 43 -40t51 -36.5t55.5 -26.5t55.5 -10q31 0 53.5 14t37 38.5t18.5 55.5
l75 -23q-11 -76 -60.5 -122t-124.5 -46zM66 325v60h433v-60h-433z" />
    <glyph glyph-name="currency" unicode="&#xa4;" horiz-adv-x="564" 
d="M281 136q-49 0 -91 22.5t-67.5 62t-25.5 90.5q0 52 25.5 91.5t67.5 61.5t91 22q52 0 93.5 -22t66 -61.5t24.5 -91.5q0 -51 -24.5 -90.5t-66 -62t-93.5 -22.5zM98 51l-43 37l106 127l43 -38zM467 51l-105 126l41 38l106 -127zM161 406l-106 127l43 38l106 -126zM403 406
l-41 39l105 126l42 -38zM281 206q29 0 53 13.5t37.5 37.5t13.5 55q0 30 -13.5 53.5t-37.5 36.5t-53 13t-52.5 -13t-37.5 -36.5t-14 -53.5q0 -31 14 -55t37.5 -37.5t52.5 -13.5z" />
    <glyph glyph-name="yen" unicode="&#xa5;" horiz-adv-x="857" 
d="M54 537v83h308v-83h-308zM500 537v83h303v-83h-303zM403 203l-270 366h114l215 -310h-52l206 311h97l-259 -367h-51zM101 353v56h656v-56h-656zM101 206v57h656v-57h-656zM380 22v242h100v-242h-100zM246 0v84h367v-84h-367z" />
    <glyph glyph-name="brokenbar" unicode="&#xa6;" horiz-adv-x="345" 
d="M125 837h95v-435h-95v435zM125 243h95v-436h-95v436z" />
    <glyph glyph-name="section" unicode="&#xa7;" horiz-adv-x="746" 
d="M451 -11l-14 45q33 3 62.5 12.5t52.5 25t35.5 36.5t12.5 47q0 35 -25 59.5t-74 44t-120 37.5q-86 24 -146 57t-91 75t-31 92q0 41 15.5 73.5t44 56.5t66.5 37t83 13q59 0 111 -20.5t96.5 -60t81.5 -98.5l-53 5v160h92v-228l-55 -3q-32 50 -75.5 86t-92 55.5t-94.5 19.5
q-34 0 -59 -10.5t-39 -30t-14 -45.5q0 -22 12.5 -40t38 -33.5t64.5 -30t92 -28.5q83 -24 146 -53.5t98 -69.5t35 -98q0 -37 -16 -68t-48.5 -55t-80.5 -40.5t-111 -24.5zM431 -326q-59 0 -110.5 20.5t-96.5 60t-82 98.5l53 -5v-160h-93v226l56 4q33 -49 76 -85t91.5 -56
t94.5 -20q34 0 59 11t39.5 30.5t14.5 44.5q0 30 -22.5 52.5t-68 42t-116.5 39.5q-83 23 -146 52t-98.5 69.5t-35.5 98.5q0 36 16.5 67t49 55t80.5 40.5t111 24.5l15 -44q-34 -3 -63.5 -13t-52.5 -25t-35.5 -36t-12.5 -47q0 -35 25 -59.5t74 -43.5t119 -38q86 -23 146 -56.5
t91 -76t31 -92.5q0 -40 -15.5 -73t-43.5 -56.5t-66 -36.5t-84 -13z" />
    <glyph glyph-name="dieresis" unicode="&#xa8;" horiz-adv-x="576" 
d="M395 795q-28 0 -48 15.5t-20 39.5q0 25 20 41t48 16q29 0 49 -16t20 -41q0 -24 -20 -39.5t-49 -15.5zM176 795q-28 0 -48.5 15.5t-20.5 39.5q0 25 20.5 41t48.5 16q30 0 49 -16t19 -41q0 -24 -19 -39.5t-49 -15.5z" />
    <glyph glyph-name="copyright" unicode="&#xa9;" horiz-adv-x="1022" 
d="M510 -203q-97 0 -181.5 33.5t-148.5 94t-100 143t-36 180.5q0 99 36 181.5t100 143.5t148.5 94t181.5 33q99 0 184 -33t148.5 -94t99.5 -143.5t36 -181.5q0 -98 -36 -180.5t-99.5 -143t-148.5 -94t-184 -33.5zM510 19q-61 0 -113.5 27t-84.5 76t-32 116q0 51 17 92t47 70
t69 44.5t83 15.5q43 0 77.5 -14t59.5 -39.5t38 -58.5l-31 11v94h66v-155l-53 -3q-12 29 -31.5 51t-46.5 34.5t-64 12.5q-39 0 -72.5 -19.5t-54 -54t-20.5 -81.5q0 -43 21.5 -76t55.5 -51t71 -18q33 0 59.5 10t48.5 27t41 39l47 -55q-22 -26 -50 -47.5t-64.5 -34.5t-83.5 -13
zM510 -148q86 0 159.5 30t128.5 83.5t85.5 125.5t29.5 157q1 86 -29.5 158t-85.5 126t-128.5 83.5t-159.5 29.5q-85 0 -158.5 -29.5t-128 -83.5t-85.5 -126t-31 -158q0 -85 31 -157t85.5 -125.5t128 -83.5t158.5 -30z" />
    <glyph glyph-name="ordfeminine" unicode="&#xaa;" horiz-adv-x="441" 
d="M339 406q-34 0 -52.5 19t-18.5 50v118q0 25 -19 39t-53 14q-28 0 -55 -7t-58 -20l-14 48q37 15 68 23t66 8q62 0 94 -29t32 -77v-117q0 -11 5 -18.5t15 -7.5t14.5 8t4.5 17v29h36v-29q0 -31 -18.5 -49.5t-46.5 -18.5zM157 402q-25 0 -48 9.5t-37.5 29t-14.5 49.5t16 50
t42 30.5t54 10.5q33 0 60.5 -6t53.5 -14v-41q-17 6 -33.5 9.5t-32.5 4.5t-32 1q-25 0 -43.5 -10.5t-18.5 -32.5q0 -19 14 -29t35 -10q25 0 54 13t57 37v-41q-28 -28 -61 -44t-65 -16zM61 327h322v-48h-322v48z" />
    <glyph glyph-name="guillemotleft" unicode="&#xab;" horiz-adv-x="794" 
d="M668 -22q-13 53 -39.5 94.5t-64.5 70.5t-87 44t-107 15h-13v84h13q57 0 106 15t87 44t65 70.5t39 94.5l76 -26q-13 -56 -42 -100.5t-74.5 -77t-104 -49.5t-129.5 -17v9q71 0 129.5 -17.5t104 -49.5t75 -77t42.5 -100zM354 -22q-13 53 -40.5 94.5t-67 70.5t-88 44
t-102.5 15h-15v84h14q54 0 102.5 15t87.5 44t67 70.5t40 94.5l76 -26q-13 -56 -42.5 -100.5t-74.5 -77t-103.5 -49.5t-130.5 -17v9q72 0 130.5 -17.5t104 -49.5t75 -77t42.5 -100z" />
    <glyph glyph-name="logicalnot" unicode="&#xac;" horiz-adv-x="600" 
d="M44 353v84h490v-84h-490zM471 108v329h85v-329h-85z" />
    <glyph glyph-name="registered" unicode="&#xae;" horiz-adv-x="1022" 
d="M510 -203q-97 0 -181.5 33.5t-148.5 94t-100 143t-36 180.5q0 99 36 181.5t100 143.5t148.5 94t181.5 33q99 0 184 -33t148.5 -94t99.5 -143.5t36 -181.5q0 -98 -36 -180.5t-99.5 -143t-148.5 -94t-184 -33.5zM279 30v57h75v308h-75v58h271q75 0 113.5 -33.5t38.5 -85.5
q0 -26 -13.5 -51.5t-40 -43.5t-66.5 -23l-15 -1q16 -9 28.5 -24.5t21.5 -37.5q14 -33 24.5 -50t29.5 -17q18 0 26.5 13t8.5 30v20h67v-20q0 -29 -11.5 -53t-34 -38.5t-53.5 -14.5q-33 0 -55.5 15t-37.5 40t-27 55q-10 26 -22 43t-23 26t-19 10h-66v-125h74v-57h-219z
M510 -148q86 0 159.5 30t128.5 83.5t85 125.5t30 157q0 86 -30 158t-85 126t-128.5 83.5t-159.5 29.5q-85 0 -158 -29.5t-128 -83.5t-86 -126t-31 -158q0 -85 31 -157t86 -125.5t128 -83.5t158 -30zM424 271h126q33 0 56 16t23 47q0 29 -22 45t-57 16h-126v-124z" />
    <glyph glyph-name="macron" unicode="&#xaf;" horiz-adv-x="522" 
d="M451 885v-72h-380v72h380z" />
    <glyph glyph-name="degree" unicode="&#xb0;" horiz-adv-x="448" 
d="M225 476q-45 0 -84 22t-62.5 60.5t-23.5 84.5q0 49 23.5 86t62.5 58t84 21q47 0 85 -21t60.5 -58.5t22.5 -86.5q0 -47 -22.5 -84t-60.5 -59.5t-85 -22.5zM225 541q28 0 49.5 13.5t34 36.5t12.5 51q0 29 -12.5 52.5t-34 36.5t-49.5 13q-27 0 -49 -13t-35 -35.5t-13 -52.5
q0 -27 13 -50.5t35 -37.5t49 -14z" />
    <glyph glyph-name="plusminus" unicode="&#xb1;" horiz-adv-x="600" 
d="M254 592h86v-359h-86v359zM496 455v-84h-393v84h393zM492 133v-84h-389v84h389z" />
    <glyph glyph-name="uni00B2" unicode="&#xb2;" horiz-adv-x="384" 
d="M287 542h54v-122h-314v49q2 37 20.5 62.5t50 44.5t71.5 35q38 16 59 28t29.5 23t8.5 25q-1 23 -21 37t-55 14q-24 0 -46.5 -7.5t-43 -20t-39.5 -28.5l-33 40q32 28 73.5 48.5t92.5 21.5q38 0 68.5 -12.5t48.5 -36t18 -56.5q0 -30 -16 -51t-45.5 -38.5t-72.5 -37.5
q-31 -14 -54 -26.5t-35.5 -26.5t-14.5 -33h196v68z" />
    <glyph glyph-name="uni00B3" unicode="&#xb3;" horiz-adv-x="367" 
d="M182 409q-38 0 -69 8.5t-54 21.5t-41 26l30 48q26 -19 61.5 -34t73.5 -15q23 0 41.5 6t29.5 17t11 26q0 26 -29.5 40.5t-92.5 14.5h-51v52h51q52 0 79.5 17t27.5 44q0 24 -20.5 38t-52.5 14t-62 -15t-55 -36l-34 44q18 17 41.5 31t52 22.5t59.5 8.5q38 0 69.5 -11.5
t51 -34.5t19.5 -56q0 -30 -22 -53.5t-59 -35.5t-84 -12v19q58 0 97.5 -10.5t61 -31.5t21.5 -55q0 -28 -19.5 -50.5t-53.5 -35t-79 -12.5z" />
    <glyph glyph-name="acute" unicode="&#xb4;" horiz-adv-x="465" 
d="M127 732l-29 38l198 182l53 -73z" />
    <glyph glyph-name="uni00B5" unicode="&#xb5;" horiz-adv-x="680" 
d="M301 -13q-33 0 -58 10t-42.5 32t-26 58t-8.5 89v295h50v-276q0 -26 5 -47.5t16.5 -37t30.5 -24t45 -8.5q24 0 48.5 10.5t51 30t54 48.5t53.5 67v-79q-25 -36 -49.5 -66.5t-51.5 -53.5t-55.5 -35.5t-62.5 -12.5zM119 -218v689h66v-336q0 -41 7.5 -81.5t15 -79.5t7.5 -77
v-115h-96zM18 388v83h170v-83h-170zM583 -10q-33 0 -58 14t-38.5 41.5t-13.5 67.5v358h98v-350q0 -26 9.5 -37t24.5 -11q9 0 16.5 2t13.5 5l22 -71q-12 -7 -31.5 -13t-42.5 -6z" />
    <glyph glyph-name="paragraph" unicode="&#xb6;" horiz-adv-x="799" 
d="M461 -245q-54 0 -102.5 13t-90.5 31.5t-75 36.5l37 79q28 -17 64 -33.5t77 -27.5t82 -11q28 0 56 9t51 28.5t37 51t14 74.5v680h91v-678q0 -65 -20 -113t-55 -79t-78 -46t-88 -15zM415 -208v878l89 -66v-812h-89zM288 201q-52 0 -99.5 17t-83.5 49.5t-56.5 77.5
t-20.5 100q0 76 36.5 133t100.5 89.5t145 32.5q54 0 105 -13t97.5 -35t85 -48.5t67.5 -55.5v-97q-30 29 -69 58.5t-84 54t-95 39.5t-103 15q-49 0 -89 -22t-64 -61t-24 -90q0 -50 22.5 -86t60 -54.5t82.5 -19.5q42 1 73.5 11t58.5 28.5t53 43.5v-80q-25 -24 -55.5 -43.5
t-66.5 -31.5t-77 -12z" />
    <glyph glyph-name="periodcentered" unicode="&#xb7;" horiz-adv-x="284" 
d="M142 263q-34 0 -58.5 18.5t-24.5 47.5t24.5 48.5t58.5 19.5q37 0 60 -19.5t23 -48.5t-23 -47.5t-60 -18.5z" />
    <glyph glyph-name="cedilla" unicode="&#xb8;" horiz-adv-x="308" 
d="M152 -249q-40 0 -74.5 13t-68.5 36l29 49q29 -21 57 -31.5t57 -10.5t47.5 12t18.5 32q0 23 -17.5 34t-46.5 11q-17 0 -31 -1t-27 -3l-6 9l50 122h52l-34 -84q5 0 11 0.5t12 0.5q46 0 74.5 -24t28.5 -65q0 -31 -18.5 -53.5t-48.5 -34.5t-65 -12z" />
    <glyph glyph-name="uni00B9" unicode="&#xb9;" horiz-adv-x="305" 
d="M61 648l-21 62q33 4 60.5 24.5t34.5 52.5l26 -42q-9 -37 -35 -63.5t-65 -33.5zM47 420v59h222v-59h-222zM135 442v345h73v-345h-73z" />
    <glyph glyph-name="ordmasculine" unicode="&#xba;" horiz-adv-x="417" 
d="M208 406q-43 0 -78.5 18t-57 51t-21.5 78t21.5 77.5t57 51t78.5 17.5q42 1 78 -17.5t58 -51t22 -77.5t-21.5 -78t-57 -51t-79.5 -18zM208 458q39 0 65 26.5t26 68.5q0 41 -26 67.5t-65 26.5q-40 0 -65.5 -26.5t-25.5 -67.5q0 -42 25.5 -68.5t65.5 -26.5zM64 327h288v-48
h-288v48z" />
    <glyph glyph-name="guillemotright" unicode="&#xbb;" horiz-adv-x="794" 
d="M442 -29l-76 25q13 55 43 101.5t75 80t103.5 52t129.5 18.5v-9q-71 0 -130.5 17.5t-104 49.5t-74.5 77t-43 100l76 27q12 -53 39.5 -94.5t67 -70.5t87.5 -44.5t103 -15.5h15v-84h-14q-55 0 -103 -16t-87.5 -46.5t-67 -72.5t-39.5 -95zM127 -29l-76 25q13 55 43 101.5
t74.5 80t103.5 52t130 18.5v-9q-72 0 -130.5 17.5t-103.5 49.5t-75 77t-43 100l76 27q13 -53 40.5 -94.5t66.5 -70.5t87.5 -44.5t102.5 -15.5h15v-84h-14q-54 0 -102.5 -16t-87.5 -46.5t-66.5 -72.5t-40.5 -95z" />
    <glyph glyph-name="onequarter" unicode="&#xbc;" horiz-adv-x="842" 
d="M61 495l-21 61q33 4 60.5 24.5t34.5 52.5l26 -42q-9 -37 -35 -63.5t-65 -32.5zM47 266v59h222v-59h-222zM135 288v345h73v-345h-73zM414 328l168 409l68 -29l-187 -398l-169 -410l-69 29zM504 105l-50 20l221 241h73zM454 67v58h370v-58h-370zM679 366h72v-379h-72v379z
" />
    <glyph glyph-name="onehalf" unicode="&#xbd;" horiz-adv-x="893" 
d="M61 495l-21 61q33 4 60.5 24.5t34.5 52.5l26 -42q-9 -37 -35 -63.5t-65 -32.5zM47 266v59h222v-59h-222zM135 288v345h73v-345h-73zM414 328l168 409l68 -29l-187 -398l-169 -410l-69 29zM798 122h54v-122h-314v49q2 37 20.5 62.5t50.5 44.5t71 35q38 16 59 28t29.5 23
t8.5 25q-1 23 -21 37t-55 14q-24 0 -46 -7.5t-42.5 -20t-39.5 -28.5l-33 40q31 28 72.5 48.5t92.5 21.5q38 0 68.5 -12.5t48.5 -36t18 -56.5q0 -30 -16 -51t-45.5 -38.5t-72.5 -37.5q-31 -14 -53.5 -26.5t-35.5 -26.5t-15 -33h196v68z" />
    <glyph glyph-name="threequarters" unicode="&#xbe;" horiz-adv-x="865" 
d="M182 255q-38 0 -69 8.5t-54 21.5t-41 26l30 48q17 -13 39 -24t46.5 -17.5t49.5 -6.5q23 0 41.5 5.5t29.5 16.5t11 27q0 25 -29.5 39.5t-92.5 14.5h-51v53h51q52 0 79.5 17t27.5 43q0 24 -20.5 38t-52.5 14t-62 -14.5t-55 -35.5l-34 43q18 17 41.5 31.5t52 22.5t59.5 8
q38 0 69.5 -11.5t51 -34.5t19.5 -56q0 -31 -22 -53.5t-59 -35t-84 -12.5v18q58 0 97.5 -10t61 -31t21.5 -55q0 -28 -19.5 -50.5t-53.5 -35t-79 -12.5zM436 328l168 409l68 -29l-187 -398l-169 -410l-69 29zM527 105l-50 20l221 241h73zM477 67v58h370v-58h-370zM702 366h72
v-379h-72v379z" />
    <glyph glyph-name="questiondown" unicode="&#xbf;" horiz-adv-x="498" 
d="M302 704q32 0 55 -17.5t23 -44.5q0 -28 -23 -46t-55 -18q-34 0 -56.5 18t-22.5 46q0 27 22.5 44.5t56.5 17.5zM455 30q-44 -18 -89 -28.5t-100 -10.5q-58 0 -107.5 19.5t-80 57t-30.5 89.5q0 43 21 74.5t56 56.5t75 47q32 18 56 31t39.5 24.5t23.5 23.5t8 28t-5.5 31.5
t-13.5 33.5l36 12q24 -36 40 -63.5t16 -56.5t-18 -51t-48.5 -40t-70.5 -39q-33 -17 -57 -33t-37 -34t-13 -43q0 -24 16 -42t42.5 -28.5t59.5 -10.5q42 0 78 9t73 25z" />
    <glyph glyph-name="Agrave" unicode="&#xc0;" horiz-adv-x="851" 
d="M83 18l268 627h146l271 -627h-111l-248 624h22l-248 -624h-100zM4 0v84h325v-84h-325zM238 243l23 75h322l22 -75h-367zM520 0v84h327v-84h-327zM231 603v83h386v-83h-386zM443 765l-223 147l53 73l198 -182z" />
    <glyph glyph-name="Aacute" unicode="&#xc1;" horiz-adv-x="851" 
d="M83 18l268 627h146l271 -627h-111l-248 624h22l-248 -624h-100zM4 0v84h325v-84h-325zM238 243l23 75h322l22 -75h-367zM520 0v84h327v-84h-327zM231 603v83h386v-83h-386zM401 748l-29 38l198 182l53 -73z" />
    <glyph glyph-name="Acircumflex" unicode="&#xc2;" horiz-adv-x="851" 
d="M83 18l268 627h146l271 -627h-111l-248 624h22l-248 -624h-100zM4 0v84h325v-84h-325zM238 243l23 75h322l22 -75h-367zM520 0v84h327v-84h-327zM231 603v83h386v-83h-386zM277 753l-32 29l152 176h52l153 -176l-32 -29l-148 124z" />
    <glyph glyph-name="Atilde" unicode="&#xc3;" horiz-adv-x="851" 
d="M83 18l268 627h146l271 -627h-111l-248 624h22l-248 -624h-100zM4 0v84h325v-84h-325zM238 243l23 75h322l22 -75h-367zM520 0v84h327v-84h-327zM231 603v83h386v-83h-386zM508 760q-37 0 -62 20t-48 47q-22 27 -37 40.5t-35 13.5q-27 0 -40.5 -27.5t-16.5 -78.5l-59 6
q2 45 15 80.5t38.5 56.5t62.5 21q39 0 64 -19.5t48 -47.5q21 -26 36 -39.5t34 -13.5q18 0 30 12.5t19 35.5t9 56l59 -5q-1 -44 -15 -80t-39.5 -57t-62.5 -21z" />
    <glyph glyph-name="Adieresis" unicode="&#xc4;" horiz-adv-x="851" 
d="M83 18l268 627h146l271 -627h-111l-248 624h22l-248 -624h-100zM4 0v84h325v-84h-325zM238 243l23 75h322l22 -75h-367zM520 0v84h327v-84h-327zM231 603v83h386v-83h-386zM531 794q-28 0 -48 15.5t-20 39.5q0 25 20 41t48 16q29 0 49 -16t20 -41q0 -24 -20 -39.5
t-49 -15.5zM312 794q-28 0 -48.5 15.5t-20.5 39.5q0 25 20.5 41t48.5 16q30 0 49 -16t19 -41q0 -24 -19 -39.5t-49 -15.5z" />
    <glyph glyph-name="Aring" unicode="&#xc5;" horiz-adv-x="851" 
d="M83 18l268 627h146l271 -627h-111l-248 624h22l-248 -624h-100zM4 0v84h325v-84h-325zM238 243l23 75h322l22 -75h-367zM520 0v84h327v-84h-327zM231 603v83h386v-83h-386zM422 751q-38 0 -70.5 18.5t-52.5 50.5t-20 71q0 42 20 73t52.5 48.5t70.5 17.5q40 0 72 -18
t51.5 -49.5t19.5 -72.5q0 -40 -19.5 -72t-51.5 -49.5t-72 -17.5zM422 805q36 0 60.5 25t24.5 60q0 36 -24.5 61t-60.5 25q-35 0 -60 -24t-25 -61q0 -23 11.5 -42.5t31 -31.5t42.5 -12z" />
    <glyph glyph-name="AE" unicode="&#xc6;" horiz-adv-x="1219" 
d="M63 18l389 619h156l169 -619h-106l-160 616h33l-375 -616h-106zM1 0v84h312v-84h-312zM271 244l23 75h357l22 -75h-402zM531 0v84h520v137h93v-221h-613zM1050 469v134h-719v83h813v-217h-94zM848 474h81v-262h-81v93h-223v77h223v92z" />
    <glyph glyph-name="Ccedilla" unicode="&#xc7;" horiz-adv-x="758" 
d="M406 -13q-74 0 -138.5 25.5t-113 73.5t-76 113t-27.5 143q0 81 27 147t74 113t107.5 72.5t126.5 25.5q69 0 121.5 -23.5t89 -63t57.5 -89.5l-47 15v147h94v-223l-66 -6q-21 47 -52.5 83t-76 56t-105.5 20q-48 0 -91.5 -18.5t-77.5 -54t-53.5 -86t-19.5 -114.5
q0 -59 19 -108.5t52.5 -86t78.5 -56t97 -19.5q44 0 79.5 10t64 28t51.5 41.5t41 50.5l67 -56q-22 -33 -51.5 -62t-67 -51.5t-83.5 -34.5t-101 -12zM374 -263q-40 0 -74.5 13t-68.5 36l29 49q29 -21 57 -31.5t57 -10.5t47.5 12t18.5 32q0 23 -17.5 34t-46.5 11q-17 0 -31 -1
t-27 -3l-6 9l50 122h52l-34 -84q5 0 11 0.5t12 0.5q46 0 74.5 -24t28.5 -65q0 -31 -18.5 -53.5t-48.5 -34.5t-65 -12z" />
    <glyph glyph-name="Egrave" unicode="&#xc8;" horiz-adv-x="789" 
d="M36 0v84h586v137h92v-221h-678zM164 47v587h103v-587h-103zM209 305v77h259v-77h-259zM424 212v262h80v-262h-80zM622 465v137h-586v84h678v-221h-92zM428 765l-223 147l53 73l198 -182z" />
    <glyph glyph-name="Eacute" unicode="&#xc9;" horiz-adv-x="789" 
d="M36 0v84h586v137h92v-221h-678zM164 47v587h103v-587h-103zM209 305v77h259v-77h-259zM424 212v262h80v-262h-80zM622 465v137h-586v84h678v-221h-92zM386 748l-29 38l198 182l53 -73z" />
    <glyph glyph-name="Ecircumflex" unicode="&#xca;" horiz-adv-x="789" 
d="M36 0v84h586v137h92v-221h-678zM164 47v587h103v-587h-103zM209 305v77h259v-77h-259zM424 212v262h80v-262h-80zM622 465v137h-586v84h678v-221h-92zM261 753l-32 29l152 176h52l153 -176l-32 -29l-148 124z" />
    <glyph glyph-name="Edieresis" unicode="&#xcb;" horiz-adv-x="789" 
d="M36 0v84h586v137h92v-221h-678zM164 47v587h103v-587h-103zM209 305v77h259v-77h-259zM424 212v262h80v-262h-80zM622 465v137h-586v84h678v-221h-92zM515 794q-28 0 -48 15.5t-20 39.5q0 25 20 41t48 16q29 0 49 -16t20 -41q0 -24 -20 -39.5t-49 -15.5zM296 794
q-28 0 -48.5 15.5t-20.5 39.5q0 25 20.5 41t48.5 16q30 0 49 -16t19 -41q0 -24 -19 -39.5t-49 -15.5z" />
    <glyph glyph-name="Igrave" unicode="&#xcc;" horiz-adv-x="434" 
d="M165 49v591h104v-591h-104zM36 0v84h362v-84h-362zM36 602v84h362v-84h-362zM240 765l-223 147l53 73l198 -182z" />
    <glyph glyph-name="Iacute" unicode="&#xcd;" horiz-adv-x="434" 
d="M165 49v591h104v-591h-104zM36 0v84h362v-84h-362zM36 602v84h362v-84h-362zM198 748l-29 38l198 182l53 -73z" />
    <glyph glyph-name="Icircumflex" unicode="&#xce;" horiz-adv-x="434" 
d="M165 49v591h104v-591h-104zM36 0v84h362v-84h-362zM36 602v84h362v-84h-362zM73 753l-32 29l152 176h52l153 -176l-32 -29l-148 124z" />
    <glyph glyph-name="Idieresis" unicode="&#xcf;" horiz-adv-x="434" 
d="M165 49v591h104v-591h-104zM36 0v84h362v-84h-362zM36 602v84h362v-84h-362zM327 794q-28 0 -48 15.5t-20 39.5q0 25 20 41t48 16q29 0 49 -16t20 -41q0 -24 -20 -39.5t-49 -15.5zM108 794q-28 0 -48.5 15.5t-20.5 39.5q0 25 20.5 41t48.5 16q30 0 49 -16t19 -41
q0 -24 -19 -39.5t-49 -15.5z" />
    <glyph glyph-name="Eth" unicode="&#xd0;" horiz-adv-x="817" 
d="M36 0v84h326q58 0 111 14t95 44.5t66 80t24 120.5q0 72 -24 121.5t-66 79.5t-95 44t-111 14h-326v84h336q78 0 149 -21t126 -63.5t87 -107t32 -151.5q0 -86 -32 -150.5t-87 -107.5t-126 -64t-149 -21h-336zM165 49v589h104v-589h-104zM38 309v64h448v-64h-448z" />
    <glyph glyph-name="Ntilde" unicode="&#xd1;" horiz-adv-x="938" 
d="M744 -6l-609 692h128l436 -507v490h96v-675h-51zM36 0v84h350v-84h-350zM165 15v671h98v-671h-98zM36 602v84h227l-1 -84h-226zM570 602v84h350v-84h-350zM548 760q-37 0 -62 20t-48 47q-22 27 -37 40.5t-35 13.5q-27 0 -40.5 -27.5t-16.5 -78.5l-59 6q2 45 15 80.5
t38.5 56.5t62.5 21q39 0 64 -19.5t48 -47.5q21 -26 36 -39.5t34 -13.5q18 0 30 12.5t19 35.5t9 56l59 -5q-1 -44 -15 -80t-39.5 -57t-62.5 -21z" />
    <glyph glyph-name="Ograve" unicode="&#xd2;" horiz-adv-x="814" 
d="M408 -13q-76 0 -141 26t-113.5 73.5t-75.5 112.5t-27 144t27 144.5t75.5 113t113.5 73.5t141 26q75 0 139.5 -26t112.5 -73.5t75.5 -113t27.5 -144.5t-27.5 -144t-75.5 -112.5t-112.5 -73.5t-139.5 -26zM408 73q54 0 99.5 20t78.5 56t51 85.5t18 108.5q0 60 -18 109.5
t-51 85.5t-78.5 56t-99.5 20q-56 0 -102 -20t-79 -56.5t-50.5 -86t-17.5 -108.5q0 -60 17.5 -109.5t50.5 -85.5t79 -55.5t102 -19.5zM428 779l-223 147l53 73l198 -182z" />
    <glyph glyph-name="Oacute" unicode="&#xd3;" horiz-adv-x="814" 
d="M408 -13q-76 0 -141 26t-113.5 73.5t-75.5 112.5t-27 144t27 144.5t75.5 113t113.5 73.5t141 26q75 0 139.5 -26t112.5 -73.5t75.5 -113t27.5 -144.5t-27.5 -144t-75.5 -112.5t-112.5 -73.5t-139.5 -26zM408 73q54 0 99.5 20t78.5 56t51 85.5t18 108.5q0 60 -18 109.5
t-51 85.5t-78.5 56t-99.5 20q-56 0 -102 -20t-79 -56.5t-50.5 -86t-17.5 -108.5q0 -60 17.5 -109.5t50.5 -85.5t79 -55.5t102 -19.5zM386 762l-29 38l198 182l53 -73z" />
    <glyph glyph-name="Ocircumflex" unicode="&#xd4;" horiz-adv-x="814" 
d="M408 -13q-76 0 -141 26t-113.5 73.5t-75.5 112.5t-27 144t27 144.5t75.5 113t113.5 73.5t141 26q75 0 139.5 -26t112.5 -73.5t75.5 -113t27.5 -144.5t-27.5 -144t-75.5 -112.5t-112.5 -73.5t-139.5 -26zM408 73q54 0 99.5 20t78.5 56t51 85.5t18 108.5q0 60 -18 109.5
t-51 85.5t-78.5 56t-99.5 20q-56 0 -102 -20t-79 -56.5t-50.5 -86t-17.5 -108.5q0 -60 17.5 -109.5t50.5 -85.5t79 -55.5t102 -19.5zM261 767l-32 29l152 176h52l153 -176l-32 -29l-148 124z" />
    <glyph glyph-name="Otilde" unicode="&#xd5;" horiz-adv-x="814" 
d="M408 -13q-76 0 -141 26t-113.5 73.5t-75.5 112.5t-27 144t27 144.5t75.5 113t113.5 73.5t141 26q75 0 139.5 -26t112.5 -73.5t75.5 -113t27.5 -144.5t-27.5 -144t-75.5 -112.5t-112.5 -73.5t-139.5 -26zM408 73q54 0 99.5 20t78.5 56t51 85.5t18 108.5q0 60 -18 109.5
t-51 85.5t-78.5 56t-99.5 20q-56 0 -102 -20t-79 -56.5t-50.5 -86t-17.5 -108.5q0 -60 17.5 -109.5t50.5 -85.5t79 -55.5t102 -19.5zM493 774q-37 0 -62 20t-48 47q-22 27 -37 40.5t-35 13.5q-27 0 -40.5 -27.5t-16.5 -78.5l-59 6q2 45 15 80.5t38.5 56.5t62.5 21
q39 0 64 -19.5t48 -47.5q21 -26 36 -39.5t34 -13.5q18 0 30 12.5t19 35.5t9 56l59 -5q-1 -44 -15 -80t-39.5 -57t-62.5 -21z" />
    <glyph glyph-name="Odieresis" unicode="&#xd6;" horiz-adv-x="814" 
d="M408 -13q-76 0 -141 26t-113.5 73.5t-75.5 112.5t-27 144t27 144.5t75.5 113t113.5 73.5t141 26q75 0 139.5 -26t112.5 -73.5t75.5 -113t27.5 -144.5t-27.5 -144t-75.5 -112.5t-112.5 -73.5t-139.5 -26zM408 73q54 0 99.5 20t78.5 56t51 85.5t18 108.5q0 60 -18 109.5
t-51 85.5t-78.5 56t-99.5 20q-56 0 -102 -20t-79 -56.5t-50.5 -86t-17.5 -108.5q0 -60 17.5 -109.5t50.5 -85.5t79 -55.5t102 -19.5zM515 808q-28 0 -48 15.5t-20 39.5q0 25 20 41t48 16q29 0 49 -16t20 -41q0 -24 -20 -39.5t-49 -15.5zM296 808q-28 0 -48.5 15.5
t-20.5 39.5q0 25 20.5 41t48.5 16q30 0 49 -16t19 -41q0 -24 -19 -39.5t-49 -15.5z" />
    <glyph glyph-name="multiply" unicode="&#xd7;" horiz-adv-x="600" 
d="M435 116l-329 330l60 58l328 -327zM167 116l-61 62l327 326l61 -61z" />
    <glyph glyph-name="Oslash" unicode="&#xd8;" horiz-adv-x="814" 
d="M275 -78h-88l57 133l13 12l234 571v16l48 113h89l-61 -144l-11 -8l-231 -561v-16zM408 -13q-76 0 -141 26t-113.5 73.5t-75.5 112.5t-27 144t27 144.5t75.5 113t113.5 73.5t141 26q75 0 139.5 -26t112.5 -73.5t75.5 -113t27.5 -144.5t-27.5 -144t-75.5 -112.5
t-112.5 -73.5t-139.5 -26zM408 73q54 0 99.5 20t78.5 56t51 85.5t18 108.5q0 60 -18 109.5t-51 85.5t-78.5 56t-99.5 20q-56 0 -102 -20t-79 -56.5t-50.5 -86t-17.5 -108.5q0 -60 17.5 -109.5t50.5 -85.5t79 -55.5t102 -19.5z" />
    <glyph glyph-name="Ugrave" unicode="&#xd9;" horiz-adv-x="887" 
d="M443 -14q-70 0 -126.5 21t-97 58.5t-62 87.5t-21.5 111v377h104v-374q0 -57 25.5 -101t71.5 -69t106 -25q61 0 107 25.5t72 69.5t26 101v373h104v-377q0 -61 -22 -111t-63.5 -87.5t-98 -58.5t-125.5 -21zM7 602v84h354v-84h-354zM525 602v84h355v-84h-355zM466 765
l-223 147l53 73l198 -182z" />
    <glyph glyph-name="Uacute" unicode="&#xda;" horiz-adv-x="887" 
d="M443 -14q-70 0 -126.5 21t-97 58.5t-62 87.5t-21.5 111v377h104v-374q0 -57 25.5 -101t71.5 -69t106 -25q61 0 107 25.5t72 69.5t26 101v373h104v-377q0 -61 -22 -111t-63.5 -87.5t-98 -58.5t-125.5 -21zM7 602v84h354v-84h-354zM525 602v84h355v-84h-355zM425 748
l-29 38l198 182l53 -73z" />
    <glyph glyph-name="Ucircumflex" unicode="&#xdb;" horiz-adv-x="887" 
d="M443 -14q-70 0 -126.5 21t-97 58.5t-62 87.5t-21.5 111v377h104v-374q0 -57 25.5 -101t71.5 -69t106 -25q61 0 107 25.5t72 69.5t26 101v373h104v-377q0 -61 -22 -111t-63.5 -87.5t-98 -58.5t-125.5 -21zM7 602v84h354v-84h-354zM525 602v84h355v-84h-355zM300 753
l-32 29l152 176h52l153 -176l-32 -29l-148 124z" />
    <glyph glyph-name="Udieresis" unicode="&#xdc;" horiz-adv-x="887" 
d="M443 -14q-70 0 -126.5 21t-97 58.5t-62 87.5t-21.5 111v377h104v-374q0 -57 25.5 -101t71.5 -69t106 -25q61 0 107 25.5t72 69.5t26 101v373h104v-377q0 -61 -22 -111t-63.5 -87.5t-98 -58.5t-125.5 -21zM7 602v84h354v-84h-354zM525 602v84h355v-84h-355zM554 794
q-28 0 -48 15.5t-20 39.5q0 25 20 41t48 16q29 0 49 -16t20 -41q0 -24 -20 -39.5t-49 -15.5zM335 794q-28 0 -48.5 15.5t-20.5 39.5q0 25 20.5 41t48.5 16q30 0 49 -16t19 -41q0 -24 -19 -39.5t-49 -15.5z" />
    <glyph glyph-name="Yacute" unicode="&#xdd;" horiz-adv-x="806" 
d="M374 232l-287 398h121l206 -297l202 296h98l-284 -397h-56zM219 0v84h370v-84h-370zM352 36v267h104v-267h-104zM10 602v84h316v-84h-316zM481 602v84h315v-84h-315zM383 748l-29 38l198 182l53 -73z" />
    <glyph glyph-name="Thorn" unicode="&#xde;" horiz-adv-x="709" 
d="M223 180v74h230q35 0 65 8.5t48 27.5t18 52q0 31 -17.5 50t-47 27.5t-66.5 8.5h-229v74h242q65 0 115 -17.5t78 -53t28 -89.5t-28 -89.5t-78 -53t-115 -18.5zM36 0v84h203l5 -8h149v-76h-357zM162 47v595h97v-595h-97zM36 603v83h357v-76h-154l-7 -7h-196z" />
    <glyph glyph-name="germandbls" unicode="&#xdf;" horiz-adv-x="746" 
d="M568 -14q-32 0 -63 9t-59.5 25.5t-51 40t-36.5 51.5l39 -8v-105h-77v153l44 4q21 -30 54 -53.5t69.5 -36.5t67.5 -13q26 0 44 6.5t27.5 18t9.5 29.5q0 19 -13.5 30t-42 20t-71.5 21q-42 12 -76 25t-59 30t-38.5 39.5t-13.5 52.5q0 37 16.5 62.5t45.5 44t66 35.5
q32 16 52.5 30t30.5 29t10 33q0 25 -18.5 45.5t-54 32.5t-85.5 12q-35 0 -63.5 -8.5t-48.5 -25t-30 -41.5t-10 -57v-517h-98v514q0 72 29.5 120.5t85.5 73.5t134 25q77 0 136 -23.5t92.5 -62t33.5 -86.5q0 -36 -17 -62t-45.5 -46t-65.5 -38q-32 -16 -52.5 -27t-31 -22.5
t-10.5 -28.5q0 -18 15 -29t45 -20t76 -22q37 -10 69 -22t57 -29t39 -40t14 -54q0 -43 -22.5 -73t-61 -46t-87.5 -16zM29 0v79h184v-79h-184zM29 392v79h181v-79h-181z" />
    <glyph glyph-name="agrave" unicode="&#xe0;" horiz-adv-x="601" 
d="M510 -8q-29 0 -52 14.5t-36.5 42.5t-13.5 67v185q0 36 -17 57.5t-44.5 31.5t-61.5 10q-45 0 -92 -12t-95 -32l-21 77q54 23 110 36.5t110 13.5q64 0 110 -21t70.5 -62t24.5 -103v-173q0 -26 9 -37.5t25 -11.5q9 0 17 3t14 5l21 -71q-11 -7 -31.5 -13.5t-46.5 -6.5z
M214 -14q-44 0 -82 17t-60.5 50.5t-22.5 82.5q0 50 28.5 84.5t73.5 52t96 17.5q59 0 103 -13.5t91 -33.5v-64q-53 23 -96.5 30.5t-80.5 7.5q-31 1 -57.5 -8t-43.5 -26t-17 -44q0 -23 13 -39t34.5 -23.5t45.5 -7.5q26 0 59 10.5t69.5 32.5t73.5 55l-2 -68
q-34 -34 -71.5 -59.5t-76 -39.5t-77.5 -14zM314 563l-223 147l53 73l198 -182z" />
    <glyph glyph-name="aacute" unicode="&#xe1;" horiz-adv-x="601" 
d="M510 -8q-29 0 -52 14.5t-36.5 42.5t-13.5 67v185q0 36 -17 57.5t-44.5 31.5t-61.5 10q-45 0 -92 -12t-95 -32l-21 77q54 23 110 36.5t110 13.5q64 0 110 -21t70.5 -62t24.5 -103v-173q0 -26 9 -37.5t25 -11.5q9 0 17 3t14 5l21 -71q-11 -7 -31.5 -13.5t-46.5 -6.5z
M214 -14q-44 0 -82 17t-60.5 50.5t-22.5 82.5q0 50 28.5 84.5t73.5 52t96 17.5q59 0 103 -13.5t91 -33.5v-64q-53 23 -96.5 30.5t-80.5 7.5q-31 1 -57.5 -8t-43.5 -26t-17 -44q0 -23 13 -39t34.5 -23.5t45.5 -7.5q26 0 59 10.5t69.5 32.5t73.5 55l-2 -68
q-34 -34 -71.5 -59.5t-76 -39.5t-77.5 -14zM273 546l-29 38l198 182l53 -73z" />
    <glyph glyph-name="acircumflex" unicode="&#xe2;" horiz-adv-x="601" 
d="M510 -8q-29 0 -52 14.5t-36.5 42.5t-13.5 67v185q0 36 -17 57.5t-44.5 31.5t-61.5 10q-45 0 -92 -12t-95 -32l-21 77q54 23 110 36.5t110 13.5q64 0 110 -21t70.5 -62t24.5 -103v-173q0 -26 9 -37.5t25 -11.5q9 0 17 3t14 5l21 -71q-11 -7 -31.5 -13.5t-46.5 -6.5z
M214 -14q-44 0 -82 17t-60.5 50.5t-22.5 82.5q0 50 28.5 84.5t73.5 52t96 17.5q59 0 103 -13.5t91 -33.5v-64q-53 23 -96.5 30.5t-80.5 7.5q-31 1 -57.5 -8t-43.5 -26t-17 -44q0 -23 13 -39t34.5 -23.5t45.5 -7.5q26 0 59 10.5t69.5 32.5t73.5 55l-2 -68
q-34 -34 -71.5 -59.5t-76 -39.5t-77.5 -14zM148 551l-32 29l152 176h52l153 -176l-32 -29l-148 124z" />
    <glyph glyph-name="atilde" unicode="&#xe3;" horiz-adv-x="601" 
d="M510 -8q-29 0 -52 14.5t-36.5 42.5t-13.5 67v185q0 36 -17 57.5t-44.5 31.5t-61.5 10q-45 0 -92 -12t-95 -32l-21 77q54 23 110 36.5t110 13.5q64 0 110 -21t70.5 -62t24.5 -103v-173q0 -26 9 -37.5t25 -11.5q9 0 17 3t14 5l21 -71q-11 -7 -31.5 -13.5t-46.5 -6.5z
M214 -14q-44 0 -82 17t-60.5 50.5t-22.5 82.5q0 50 28.5 84.5t73.5 52t96 17.5q59 0 103 -13.5t91 -33.5v-64q-53 23 -96.5 30.5t-80.5 7.5q-31 1 -57.5 -8t-43.5 -26t-17 -44q0 -23 13 -39t34.5 -23.5t45.5 -7.5q26 0 59 10.5t69.5 32.5t73.5 55l-2 -68
q-34 -34 -71.5 -59.5t-76 -39.5t-77.5 -14zM380 558q-37 0 -62 20t-48 47q-22 27 -37 40.5t-35 13.5q-27 0 -40.5 -27.5t-16.5 -78.5l-59 6q2 45 15 80.5t38.5 56.5t62.5 21q39 0 64 -19.5t48 -47.5q21 -26 36 -39.5t34 -13.5q18 0 30 12.5t19 35.5t9 56l59 -5
q-1 -44 -15 -80t-39.5 -57t-62.5 -21z" />
    <glyph glyph-name="adieresis" unicode="&#xe4;" horiz-adv-x="601" 
d="M510 -8q-29 0 -52 14.5t-36.5 42.5t-13.5 67v185q0 36 -17 57.5t-44.5 31.5t-61.5 10q-45 0 -92 -12t-95 -32l-21 77q54 23 110 36.5t110 13.5q64 0 110 -21t70.5 -62t24.5 -103v-173q0 -26 9 -37.5t25 -11.5q9 0 17 3t14 5l21 -71q-11 -7 -31.5 -13.5t-46.5 -6.5z
M214 -14q-44 0 -82 17t-60.5 50.5t-22.5 82.5q0 50 28.5 84.5t73.5 52t96 17.5q59 0 103 -13.5t91 -33.5v-64q-53 23 -96.5 30.5t-80.5 7.5q-31 1 -57.5 -8t-43.5 -26t-17 -44q0 -23 13 -39t34.5 -23.5t45.5 -7.5q26 0 59 10.5t69.5 32.5t73.5 55l-2 -68
q-34 -34 -71.5 -59.5t-76 -39.5t-77.5 -14zM402 592q-28 0 -48 15.5t-20 39.5q0 25 20 41t48 16q29 0 49 -16t20 -41q0 -24 -20 -39.5t-49 -15.5zM183 592q-28 0 -48.5 15.5t-20.5 39.5q0 25 20.5 41t48.5 16q30 0 49 -16t19 -41q0 -24 -19 -39.5t-49 -15.5z" />
    <glyph glyph-name="aring" unicode="&#xe5;" horiz-adv-x="601" 
d="M510 -8q-29 0 -52 14.5t-36.5 42.5t-13.5 67v185q0 36 -17 57.5t-44.5 31.5t-61.5 10q-45 0 -92 -12t-95 -32l-21 77q54 23 110 36.5t110 13.5q64 0 110 -21t70.5 -62t24.5 -103v-173q0 -26 9 -37.5t25 -11.5q9 0 17 3t14 5l21 -71q-11 -7 -31.5 -13.5t-46.5 -6.5z
M214 -14q-44 0 -82 17t-60.5 50.5t-22.5 82.5q0 50 28.5 84.5t73.5 52t96 17.5q59 0 103 -13.5t91 -33.5v-64q-53 23 -96.5 30.5t-80.5 7.5q-31 1 -57.5 -8t-43.5 -26t-17 -44q0 -23 13 -39t34.5 -23.5t45.5 -7.5q26 0 59 10.5t69.5 32.5t73.5 55l-2 -68
q-34 -34 -71.5 -59.5t-76 -39.5t-77.5 -14zM293 549q-38 0 -70.5 18.5t-52.5 50.5t-20 71q0 42 20 73t52.5 48.5t70.5 17.5q40 0 72 -18t51.5 -49.5t19.5 -72.5q0 -40 -19.5 -72t-51.5 -49.5t-72 -17.5zM293 603q36 0 60.5 25t24.5 60q0 36 -24.5 61t-60.5 25q-35 0 -60 -24
t-25 -61q0 -23 11.5 -42.5t31 -31.5t42.5 -12z" />
    <glyph glyph-name="ae" unicode="&#xe6;" horiz-adv-x="927" 
d="M666 -14q-49 0 -95 16.5t-82.5 47.5t-58 77t-21.5 106v31q0 55 -16.5 84t-45.5 40.5t-65 11.5q-29 0 -59.5 -5.5t-61.5 -15t-63 -23.5l-21 77q54 23 109 36.5t107 13.5q60 0 102 -21t64.5 -64.5t22.5 -109.5h-41q5 48 28 84.5t57 61t74.5 37.5t80.5 13q55 0 100 -18.5
t71.5 -51t26.5 -78.5q0 -47 -28 -79t-72.5 -48t-94.5 -16q-59 0 -107.5 12t-95.5 29v59q35 -12 66.5 -19.5t59.5 -10t55 -2.5q33 1 60 9.5t43 25t16 40.5q0 23 -13.5 38t-35.5 23.5t-51 8.5q-33 0 -64.5 -12.5t-57.5 -36t-41.5 -56t-15.5 -74.5q0 -49 24 -83.5t63.5 -52
t83.5 -17.5q56 0 98 18t76 45l41 -67q-41 -36 -96.5 -60t-125.5 -24zM214 -14q-44 0 -82 17t-60.5 50.5t-22.5 82.5q0 50 28.5 84.5t73.5 52t96 17.5q59 0 103 -12t91 -29v-62q-51 18 -95.5 24t-81.5 6q-31 0 -57.5 -8.5t-43.5 -25.5t-17 -44q0 -23 13 -39t34.5 -23.5
t45.5 -7.5q44 0 98 25t111 78l4 -65q-58 -57 -114.5 -89t-123.5 -32z" />
    <glyph glyph-name="ccedilla" unicode="&#xe7;" horiz-adv-x="553" 
d="M297 -15q-50 0 -95.5 17.5t-82 50t-57.5 79t-21 102.5q0 54 18.5 99.5t51.5 79t76 52t91 18.5t82 -14.5t59.5 -41t43.5 -64.5l-31 8v100h71v-165l-42 -3q-16 32 -38.5 54t-51.5 33t-66 11q-35 0 -64.5 -11.5t-51 -33.5t-34 -53t-12.5 -68q0 -50 23 -87t59.5 -57.5
t77.5 -21.5q53 -1 91.5 19.5t71.5 51.5l44 -64q-41 -38 -93.5 -64.5t-119.5 -26.5zM266 -263q-40 0 -74.5 13t-68.5 36l29 49q29 -21 57 -31.5t57 -10.5t47.5 12t18.5 32q0 23 -17.5 34t-46.5 11q-17 0 -31 -1t-27 -3l-6 9l50 122h52l-34 -84q5 0 11 0.5t12 0.5
q46 0 74.5 -24t28.5 -65q0 -31 -18.5 -53.5t-48.5 -34.5t-65 -12z" />
    <glyph glyph-name="egrave" unicode="&#xe8;" horiz-adv-x="560" 
d="M302 -14q-49 0 -95.5 15.5t-84 45.5t-59.5 74.5t-22 102.5q0 62 22.5 110t60.5 81t85 50.5t97 17.5q60 0 106 -18.5t72.5 -52t26.5 -78.5q0 -46 -27.5 -77t-71.5 -46.5t-93 -15.5q-61 0 -109.5 14.5t-94.5 35.5l-1 60q53 -23 97.5 -32t86.5 -9q32 0 57.5 8t41.5 24t16 38
q0 32 -28 51.5t-72 19.5q-33 0 -64.5 -12.5t-57 -35.5t-41 -55.5t-15.5 -74.5q0 -49 24 -84.5t62.5 -54t83.5 -18.5q56 0 98.5 18.5t75.5 46.5l42 -65q-28 -24 -60.5 -43t-72 -30t-86.5 -11zM312 562l-223 147l53 73l198 -182z" />
    <glyph glyph-name="eacute" unicode="&#xe9;" horiz-adv-x="560" 
d="M302 -14q-49 0 -95.5 15.5t-84 45.5t-59.5 74.5t-22 102.5q0 62 22.5 110t60.5 81t85 50.5t97 17.5q60 0 106 -18.5t72.5 -52t26.5 -78.5q0 -46 -27.5 -77t-71.5 -46.5t-93 -15.5q-61 0 -109.5 14.5t-94.5 35.5l-1 60q53 -23 97.5 -32t86.5 -9q32 0 57.5 8t41.5 24t16 38
q0 32 -28 51.5t-72 19.5q-33 0 -64.5 -12.5t-57 -35.5t-41 -55.5t-15.5 -74.5q0 -49 24 -84.5t62.5 -54t83.5 -18.5q56 0 98.5 18.5t75.5 46.5l42 -65q-28 -24 -60.5 -43t-72 -30t-86.5 -11zM270 545l-29 38l198 182l53 -73z" />
    <glyph glyph-name="ecircumflex" unicode="&#xea;" horiz-adv-x="560" 
d="M302 -14q-49 0 -95.5 15.5t-84 45.5t-59.5 74.5t-22 102.5q0 62 22.5 110t60.5 81t85 50.5t97 17.5q60 0 106 -18.5t72.5 -52t26.5 -78.5q0 -46 -27.5 -77t-71.5 -46.5t-93 -15.5q-61 0 -109.5 14.5t-94.5 35.5l-1 60q53 -23 97.5 -32t86.5 -9q32 0 57.5 8t41.5 24t16 38
q0 32 -28 51.5t-72 19.5q-33 0 -64.5 -12.5t-57 -35.5t-41 -55.5t-15.5 -74.5q0 -49 24 -84.5t62.5 -54t83.5 -18.5q56 0 98.5 18.5t75.5 46.5l42 -65q-28 -24 -60.5 -43t-72 -30t-86.5 -11zM145 550l-32 29l152 176h52l153 -176l-32 -29l-148 124z" />
    <glyph glyph-name="edieresis" unicode="&#xeb;" horiz-adv-x="560" 
d="M302 -14q-49 0 -95.5 15.5t-84 45.5t-59.5 74.5t-22 102.5q0 62 22.5 110t60.5 81t85 50.5t97 17.5q60 0 106 -18.5t72.5 -52t26.5 -78.5q0 -46 -27.5 -77t-71.5 -46.5t-93 -15.5q-61 0 -109.5 14.5t-94.5 35.5l-1 60q53 -23 97.5 -32t86.5 -9q32 0 57.5 8t41.5 24t16 38
q0 32 -28 51.5t-72 19.5q-33 0 -64.5 -12.5t-57 -35.5t-41 -55.5t-15.5 -74.5q0 -49 24 -84.5t62.5 -54t83.5 -18.5q56 0 98.5 18.5t75.5 46.5l42 -65q-28 -24 -60.5 -43t-72 -30t-86.5 -11zM399 591q-28 0 -48 15.5t-20 39.5q0 25 20 41t48 16q29 0 49 -16t20 -41
q0 -24 -20 -39.5t-49 -15.5zM180 591q-28 0 -48.5 15.5t-20.5 39.5q0 25 20.5 41t48.5 16q30 0 49 -16t19 -41q0 -24 -19 -39.5t-49 -15.5z" />
    <glyph glyph-name="igrave" unicode="&#xec;" horiz-adv-x="355" 
d="M135 22v449h99v-449h-99zM29 0v79h312v-79h-312zM29 392v79h182v-79h-182zM193 550l-223 147l53 73l198 -182z" />
    <glyph glyph-name="iacute" unicode="&#xed;" horiz-adv-x="355" 
d="M135 22v449h99v-449h-99zM29 0v79h312v-79h-312zM29 392v79h182v-79h-182zM152 533l-29 38l198 182l53 -73z" />
    <glyph glyph-name="icircumflex" unicode="&#xee;" horiz-adv-x="355" 
d="M135 22v449h99v-449h-99zM29 0v79h312v-79h-312zM29 392v79h182v-79h-182zM27 538l-32 29l152 176h52l153 -176l-32 -29l-148 124z" />
    <glyph glyph-name="idieresis" unicode="&#xef;" horiz-adv-x="355" 
d="M135 22v449h99v-449h-99zM29 0v79h312v-79h-312zM29 392v79h182v-79h-182zM281 579q-28 0 -48 15.5t-20 39.5q0 25 20 41t48 16q29 0 49 -16t20 -41q0 -24 -20 -39.5t-49 -15.5zM62 579q-28 0 -48.5 15.5t-20.5 39.5q0 25 20.5 41t48.5 16q30 0 49 -16t19 -41
q0 -24 -19 -39.5t-49 -15.5z" />
    <glyph glyph-name="eth" unicode="&#xf0;" horiz-adv-x="605" 
d="M282 -13q-53 0 -98.5 15t-79.5 44t-53 69t-19 88q0 64 32 114t87 78.5t121 28.5q49 0 91.5 -12.5t79 -36.5t66.5 -59l-2 -73q-24 32 -59 55t-74.5 35.5t-79.5 12.5q-44 0 -79 -18.5t-55.5 -51t-20.5 -72.5t19 -71.5t51.5 -49.5t73.5 -18q34 0 66 14t58 41.5t41 69.5
t15 97q0 104 -39.5 178.5t-114 132.5t-178.5 111l39 81q88 -42 160 -94t124.5 -114t81 -135t28.5 -159q0 -71 -22.5 -126.5t-61.5 -95t-90 -59.5t-108 -20zM232 493l-59 46l226 270l58 -47z" />
    <glyph glyph-name="ntilde" unicode="&#xf1;" horiz-adv-x="726" 
d="M523 0v274q0 27 -7 48.5t-20.5 37t-33 23.5t-45.5 8q-27 0 -54.5 -10.5t-55.5 -31t-55.5 -49t-55.5 -64.5v80q32 39 62.5 70t61 53t63 33t68.5 11q41 0 72.5 -12.5t53 -38.5t33 -64.5t11.5 -90.5v-277h-98zM29 0v79h291v-79h-291zM135 0v471h99v-471h-99zM29 392v79h184
v-79h-184zM436 0v79h278v-79h-278zM469 557q-37 0 -62 20t-48 47q-22 27 -37 40.5t-35 13.5q-27 0 -40.5 -27.5t-16.5 -78.5l-59 6q2 45 15 80.5t38.5 56.5t62.5 21q39 0 64 -19.5t48 -47.5q21 -26 36 -39.5t34 -13.5q18 0 30 12.5t19 35.5t9 56l59 -5q-1 -44 -15 -80
t-39.5 -57t-62.5 -21z" />
    <glyph glyph-name="ograve" unicode="&#xf2;" horiz-adv-x="601" 
d="M301 -14q-52 0 -98.5 17.5t-83 50t-57.5 78t-21 102.5t21 103t57.5 78.5t83 50t98.5 17.5q50 0 97 -17.5t83.5 -50t57.5 -78.5t21 -103t-20.5 -102.5t-56.5 -78t-83 -50t-99 -17.5zM301 64q45 0 80 21t56 59t21 90t-21 90t-56 59t-80 21t-81 -21t-56.5 -59t-20.5 -90
t20.5 -90t56.5 -59t81 -21zM322 562l-223 147l53 73l198 -182z" />
    <glyph glyph-name="oacute" unicode="&#xf3;" horiz-adv-x="601" 
d="M301 -14q-52 0 -98.5 17.5t-83 50t-57.5 78t-21 102.5t21 103t57.5 78.5t83 50t98.5 17.5q50 0 97 -17.5t83.5 -50t57.5 -78.5t21 -103t-20.5 -102.5t-56.5 -78t-83 -50t-99 -17.5zM301 64q45 0 80 21t56 59t21 90t-21 90t-56 59t-80 21t-81 -21t-56.5 -59t-20.5 -90
t20.5 -90t56.5 -59t81 -21zM280 545l-29 38l198 182l53 -73z" />
    <glyph glyph-name="ocircumflex" unicode="&#xf4;" horiz-adv-x="601" 
d="M301 -14q-52 0 -98.5 17.5t-83 50t-57.5 78t-21 102.5t21 103t57.5 78.5t83 50t98.5 17.5q50 0 97 -17.5t83.5 -50t57.5 -78.5t21 -103t-20.5 -102.5t-56.5 -78t-83 -50t-99 -17.5zM301 64q45 0 80 21t56 59t21 90t-21 90t-56 59t-80 21t-81 -21t-56.5 -59t-20.5 -90
t20.5 -90t56.5 -59t81 -21zM155 550l-32 29l152 176h52l153 -176l-32 -29l-148 124z" />
    <glyph glyph-name="otilde" unicode="&#xf5;" horiz-adv-x="601" 
d="M301 -14q-52 0 -98.5 17.5t-83 50t-57.5 78t-21 102.5t21 103t57.5 78.5t83 50t98.5 17.5q50 0 97 -17.5t83.5 -50t57.5 -78.5t21 -103t-20.5 -102.5t-56.5 -78t-83 -50t-99 -17.5zM301 64q45 0 80 21t56 59t21 90t-21 90t-56 59t-80 21t-81 -21t-56.5 -59t-20.5 -90
t20.5 -90t56.5 -59t81 -21zM387 557q-37 0 -62 20t-48 47q-22 27 -37 40.5t-35 13.5q-27 0 -40.5 -27.5t-16.5 -78.5l-59 6q2 45 15 80.5t38.5 56.5t62.5 21q39 0 64 -19.5t48 -47.5q21 -26 36 -39.5t34 -13.5q18 0 30 12.5t19 35.5t9 56l59 -5q-1 -44 -15 -80t-39.5 -57
t-62.5 -21z" />
    <glyph glyph-name="odieresis" unicode="&#xf6;" horiz-adv-x="601" 
d="M301 -14q-52 0 -98.5 17.5t-83 50t-57.5 78t-21 102.5t21 103t57.5 78.5t83 50t98.5 17.5q50 0 97 -17.5t83.5 -50t57.5 -78.5t21 -103t-20.5 -102.5t-56.5 -78t-83 -50t-99 -17.5zM301 64q45 0 80 21t56 59t21 90t-21 90t-56 59t-80 21t-81 -21t-56.5 -59t-20.5 -90
t20.5 -90t56.5 -59t81 -21zM409 591q-28 0 -48 15.5t-20 39.5q0 25 20 41t48 16q29 0 49 -16t20 -41q0 -24 -20 -39.5t-49 -15.5zM190 591q-28 0 -48.5 15.5t-20.5 39.5q0 25 20.5 41t48.5 16q30 0 49 -16t19 -41q0 -24 -19 -39.5t-49 -15.5z" />
    <glyph glyph-name="divide" unicode="&#xf7;" horiz-adv-x="600" 
d="M300 61q-34 0 -58.5 18.5t-24.5 46.5q0 31 24.5 50t58.5 19q37 0 60 -19t23 -50q0 -28 -23 -46.5t-60 -18.5zM300 426q-34 0 -58.5 19t-24.5 47q0 30 24.5 49t58.5 19q37 0 60 -19t23 -49q0 -28 -23 -47t-60 -19zM529 353v-84h-458v84h458z" />
    <glyph glyph-name="oslash" unicode="&#xf8;" horiz-adv-x="601" 
d="M213 -78h-85l54 127l13 12l145 359v15l48 113h85l-61 -144l-12 -9l-140 -346l1 -16zM301 -14q-52 0 -98.5 17.5t-83 50t-57.5 78t-21 102.5t21 103t57.5 78.5t83 50t98.5 17.5q50 0 97 -17.5t83.5 -50t57.5 -78.5t21 -103t-20.5 -102.5t-56.5 -78t-83 -50t-99 -17.5z
M301 64q45 0 80 21t56 59t21 90t-21 90t-56 59t-80 21t-81 -21t-56.5 -59t-20.5 -90t20.5 -90t56.5 -59t81 -21z" />
    <glyph glyph-name="ugrave" unicode="&#xf9;" horiz-adv-x="673" 
d="M267 -14q-39 0 -69 13t-51 39t-32 64.5t-11 89.5v279h98v-276q0 -26 5.5 -47.5t17 -37.5t30.5 -24.5t46 -8.5q25 0 51 11t53 31t54 49.5t53 65.5v-79q-30 -40 -59.5 -71t-59.5 -53t-61 -33.5t-65 -11.5zM10 392v79h172v-79h-172zM575 -10q-33 0 -58 14t-38.5 41.5
t-13.5 67.5v358h98v-350q0 -26 9.5 -37.5t24.5 -11.5q10 0 17 2t14 6l22 -71q-13 -7 -32.5 -13t-42.5 -6zM379 392v79h170v-79h-170zM332 550l-223 147l53 73l198 -182z" />
    <glyph glyph-name="uacute" unicode="&#xfa;" horiz-adv-x="673" 
d="M267 -14q-39 0 -69 13t-51 39t-32 64.5t-11 89.5v279h98v-276q0 -26 5.5 -47.5t17 -37.5t30.5 -24.5t46 -8.5q25 0 51 11t53 31t54 49.5t53 65.5v-79q-30 -40 -59.5 -71t-59.5 -53t-61 -33.5t-65 -11.5zM10 392v79h172v-79h-172zM575 -10q-33 0 -58 14t-38.5 41.5
t-13.5 67.5v358h98v-350q0 -26 9.5 -37.5t24.5 -11.5q10 0 17 2t14 6l22 -71q-13 -7 -32.5 -13t-42.5 -6zM379 392v79h170v-79h-170zM290 533l-29 38l198 182l53 -73z" />
    <glyph glyph-name="ucircumflex" unicode="&#xfb;" horiz-adv-x="673" 
d="M267 -14q-39 0 -69 13t-51 39t-32 64.5t-11 89.5v279h98v-276q0 -26 5.5 -47.5t17 -37.5t30.5 -24.5t46 -8.5q25 0 51 11t53 31t54 49.5t53 65.5v-79q-30 -40 -59.5 -71t-59.5 -53t-61 -33.5t-65 -11.5zM10 392v79h172v-79h-172zM575 -10q-33 0 -58 14t-38.5 41.5
t-13.5 67.5v358h98v-350q0 -26 9.5 -37.5t24.5 -11.5q10 0 17 2t14 6l22 -71q-13 -7 -32.5 -13t-42.5 -6zM379 392v79h170v-79h-170zM166 538l-32 29l152 176h52l153 -176l-32 -29l-148 124z" />
    <glyph glyph-name="udieresis" unicode="&#xfc;" horiz-adv-x="673" 
d="M267 -14q-39 0 -69 13t-51 39t-32 64.5t-11 89.5v279h98v-276q0 -26 5.5 -47.5t17 -37.5t30.5 -24.5t46 -8.5q25 0 51 11t53 31t54 49.5t53 65.5v-79q-30 -40 -59.5 -71t-59.5 -53t-61 -33.5t-65 -11.5zM10 392v79h172v-79h-172zM575 -10q-33 0 -58 14t-38.5 41.5
t-13.5 67.5v358h98v-350q0 -26 9.5 -37.5t24.5 -11.5q10 0 17 2t14 6l22 -71q-13 -7 -32.5 -13t-42.5 -6zM379 392v79h170v-79h-170zM419 579q-28 0 -48 15.5t-20 39.5q0 25 20 41t48 16q29 0 49 -16t20 -41q0 -24 -20 -39.5t-49 -15.5zM200 579q-28 0 -48.5 15.5
t-20.5 39.5q0 25 20.5 41t48.5 16q30 0 49 -16t19 -41q0 -24 -19 -39.5t-49 -15.5z" />
    <glyph glyph-name="yacute" unicode="&#xfd;" horiz-adv-x="654" 
d="M155 -238q-30 0 -53.5 6.5t-44.5 18t-41 24.5l40 75q19 -13 43.5 -25t55.5 -12q28 0 52.5 12t45.5 37t39 66l214 490h92l-226 -506q-28 -61 -60 -102t-71 -62.5t-86 -21.5zM316 -55l-237 484h109l194 -430zM19 392v79h264v-72h-150l-6 -7h-108zM405 399v72h239v-79h-105
l-5 7h-129zM323 533l-29 38l198 182l53 -73z" />
    <glyph glyph-name="thorn" unicode="&#xfe;" horiz-adv-x="651" 
d="M366 -14q-53 0 -92.5 19.5t-69.5 48.5t-54 56v69q24 -28 54 -53.5t65.5 -41.5t74.5 -16q36 0 66 13t52 36t34.5 54.5t12.5 69.5q0 48 -19 84t-52 56t-75 19q-40 0 -79 -23.5t-72.5 -63.5t-58.5 -91v76q23 54 60.5 96t84 66t94.5 24q59 0 109 -30.5t79.5 -85.5t29.5 -128
q0 -56 -18.5 -102.5t-52 -80t-78 -52.5t-95.5 -19zM3 -218v79h320v-79h-320zM109 -218v826h-106v78h202v-904h-96z" />
    <glyph glyph-name="ydieresis" unicode="&#xff;" horiz-adv-x="654" 
d="M155 -238q-30 0 -53.5 6.5t-44.5 18t-41 24.5l40 75q19 -13 43.5 -25t55.5 -12q28 0 52.5 12t45.5 37t39 66l214 490h92l-226 -506q-28 -61 -60 -102t-71 -62.5t-86 -21.5zM316 -55l-237 484h109l194 -430zM19 392v79h264v-72h-150l-6 -7h-108zM405 399v72h239v-79h-105
l-5 7h-129zM452 579q-28 0 -48 15.5t-20 39.5q0 25 20 41t48 16q29 0 49 -16t20 -41q0 -24 -20 -39.5t-49 -15.5zM233 579q-28 0 -48.5 15.5t-20.5 39.5q0 25 20.5 41t48.5 16q30 0 49 -16t19 -41q0 -24 -19 -39.5t-49 -15.5z" />
    <glyph glyph-name="Amacron" unicode="&#x100;" horiz-adv-x="851" 
d="M83 18l268 627h146l271 -627h-111l-248 624h22l-248 -624h-100zM4 0v84h325v-84h-325zM238 243l23 75h322l22 -75h-367zM520 0v84h327v-84h-327zM231 603v83h386v-83h-386zM609 863v-72h-380v72h380z" />
    <glyph glyph-name="amacron" unicode="&#x101;" horiz-adv-x="601" 
d="M510 -8q-29 0 -52 14.5t-36.5 42.5t-13.5 67v185q0 36 -17 57.5t-44.5 31.5t-61.5 10q-45 0 -92 -12t-95 -32l-21 77q54 23 110 36.5t110 13.5q64 0 110 -21t70.5 -62t24.5 -103v-173q0 -26 9 -37.5t25 -11.5q9 0 17 3t14 5l21 -71q-11 -7 -31.5 -13.5t-46.5 -6.5z
M214 -14q-44 0 -82 17t-60.5 50.5t-22.5 82.5q0 50 28.5 84.5t73.5 52t96 17.5q59 0 103 -13.5t91 -33.5v-64q-53 23 -96.5 30.5t-80.5 7.5q-31 1 -57.5 -8t-43.5 -26t-17 -44q0 -23 13 -39t34.5 -23.5t45.5 -7.5q26 0 59 10.5t69.5 32.5t73.5 55l-2 -68
q-34 -34 -71.5 -59.5t-76 -39.5t-77.5 -14zM480 661v-72h-380v72h380z" />
    <glyph glyph-name="Abreve" unicode="&#x102;" horiz-adv-x="851" 
d="M83 18l268 627h146l271 -627h-111l-248 624h22l-248 -624h-100zM4 0v84h325v-84h-325zM238 243l23 75h322l22 -75h-367zM520 0v84h327v-84h-327zM231 603v83h386v-83h-386zM423 770q-55 0 -94.5 24.5t-62 62.5t-25.5 77l61 12q7 -26 24 -47.5t41.5 -33.5t55.5 -12
q30 0 54.5 12t41.5 33.5t24 47.5l61 -12q-4 -39 -26 -77t-61 -62.5t-94 -24.5z" />
    <glyph glyph-name="abreve" unicode="&#x103;" horiz-adv-x="601" 
d="M510 -8q-29 0 -52 14.5t-36.5 42.5t-13.5 67v185q0 36 -17 57.5t-44.5 31.5t-61.5 10q-45 0 -92 -12t-95 -32l-21 77q54 23 110 36.5t110 13.5q64 0 110 -21t70.5 -62t24.5 -103v-173q0 -26 9 -37.5t25 -11.5q9 0 17 3t14 5l21 -71q-11 -7 -31.5 -13.5t-46.5 -6.5z
M214 -14q-44 0 -82 17t-60.5 50.5t-22.5 82.5q0 50 28.5 84.5t73.5 52t96 17.5q59 0 103 -13.5t91 -33.5v-64q-53 23 -96.5 30.5t-80.5 7.5q-31 1 -57.5 -8t-43.5 -26t-17 -44q0 -23 13 -39t34.5 -23.5t45.5 -7.5q26 0 59 10.5t69.5 32.5t73.5 55l-2 -68
q-34 -34 -71.5 -59.5t-76 -39.5t-77.5 -14zM294 568q-55 0 -94.5 24.5t-62 62.5t-25.5 77l61 12q7 -26 24 -47.5t41.5 -33.5t55.5 -12q30 0 54.5 12t41.5 33.5t24 47.5l61 -12q-4 -39 -26 -77t-61 -62.5t-94 -24.5z" />
    <glyph glyph-name="Aogonek" unicode="&#x104;" horiz-adv-x="851" 
d="M83 18l268 627h146l271 -627h-111l-248 624h22l-248 -624h-100zM4 0v84h325v-84h-325zM238 243l23 75h322l22 -75h-367zM520 0v84h327v-84h-327zM231 603v83h386v-83h-386zM647 -274q-29 0 -56.5 12t-44.5 36t-17 59q0 38 21 72t55 61.5t72 46.5l56 -5
q-69 -40 -99.5 -79.5t-30.5 -71.5q0 -29 17.5 -44t40.5 -15q22 0 40 11t32 27l33 -51q-21 -24 -52 -41.5t-67 -17.5z" />
    <glyph glyph-name="aogonek" unicode="&#x105;" horiz-adv-x="601" 
d="M510 -8q-29 0 -52 14.5t-36.5 42.5t-13.5 67v185q0 36 -17 57.5t-44.5 31.5t-61.5 10q-45 0 -92 -12t-95 -32l-21 77q54 23 110 36.5t110 13.5q64 0 110 -21t70.5 -62t24.5 -103v-173q0 -26 9 -37.5t25 -11.5q9 0 17 3t14 5l21 -71q-11 -7 -31.5 -13.5t-46.5 -6.5z
M214 -14q-44 0 -82 17t-60.5 50.5t-22.5 82.5q0 50 28.5 84.5t73.5 52t96 17.5q59 0 103 -13.5t91 -33.5v-64q-53 23 -96.5 30.5t-80.5 7.5q-31 1 -57.5 -8t-43.5 -26t-17 -44q0 -23 13 -39t34.5 -23.5t45.5 -7.5q26 0 59 10.5t69.5 32.5t73.5 55l-2 -68
q-34 -34 -71.5 -59.5t-76 -39.5t-77.5 -14zM484 -269q-29 0 -56.5 12t-44.5 36t-17 59q0 38 21 72t55 61.5t72 46.5l56 -5q-69 -40 -99.5 -79.5t-30.5 -71.5q0 -29 17.5 -44t40.5 -15q22 0 40 11t32 27l33 -51q-21 -24 -52 -41.5t-67 -17.5z" />
    <glyph glyph-name="Cacute" unicode="&#x106;" horiz-adv-x="758" 
d="M406 -13q-74 0 -138.5 25.5t-113 73.5t-76 113t-27.5 143q0 81 27 147t74 113t107.5 72.5t126.5 25.5q69 0 121.5 -23.5t89 -63t57.5 -89.5l-47 15v147h94v-223l-66 -6q-21 47 -52.5 83t-76 56t-105.5 20q-48 0 -91.5 -18.5t-77.5 -54t-53.5 -86t-19.5 -114.5
q0 -59 19 -108.5t52.5 -86t78.5 -56t97 -19.5q44 0 79.5 10t64 28t51.5 41.5t41 50.5l67 -56q-22 -33 -51.5 -62t-67 -51.5t-83.5 -34.5t-101 -12zM374 762l-29 38l198 182l53 -73z" />
    <glyph glyph-name="cacute" unicode="&#x107;" horiz-adv-x="553" 
d="M297 -15q-50 0 -95.5 17.5t-82 50t-57.5 79t-21 102.5q0 54 18.5 99.5t51.5 79t76 52t91 18.5t82 -14.5t59.5 -41t43.5 -64.5l-31 8v100h71v-165l-42 -3q-16 32 -38.5 54t-51.5 33t-66 11q-35 0 -64.5 -11.5t-51 -33.5t-34 -53t-12.5 -68q0 -50 23 -87t59.5 -57.5
t77.5 -21.5q53 -1 91.5 19.5t71.5 51.5l44 -64q-41 -38 -93.5 -64.5t-119.5 -26.5zM261 545l-29 38l198 182l53 -73z" />
    <glyph glyph-name="Cdotaccent" unicode="&#x10a;" horiz-adv-x="758" 
d="M406 -13q-74 0 -138.5 25.5t-113 73.5t-76 113t-27.5 143q0 81 27 147t74 113t107.5 72.5t126.5 25.5q69 0 121.5 -23.5t89 -63t57.5 -89.5l-47 15v147h94v-223l-66 -6q-21 47 -52.5 83t-76 56t-105.5 20q-48 0 -91.5 -18.5t-77.5 -54t-53.5 -86t-19.5 -114.5
q0 -59 19 -108.5t52.5 -86t78.5 -56t97 -19.5q44 0 79.5 10t64 28t51.5 41.5t41 50.5l67 -56q-22 -33 -51.5 -62t-67 -51.5t-83.5 -34.5t-101 -12zM395 803q-31 0 -53.5 17t-22.5 42q0 28 22.5 45.5t53.5 17.5q35 0 57 -17.5t22 -45.5q0 -25 -22 -42t-57 -17z" />
    <glyph glyph-name="cdotaccent" unicode="&#x10b;" horiz-adv-x="553" 
d="M297 -15q-50 0 -95.5 17.5t-82 50t-57.5 79t-21 102.5q0 54 18.5 99.5t51.5 79t76 52t91 18.5t82 -14.5t59.5 -41t43.5 -64.5l-31 8v100h71v-165l-42 -3q-16 32 -38.5 54t-51.5 33t-66 11q-35 0 -64.5 -11.5t-51 -33.5t-34 -53t-12.5 -68q0 -50 23 -87t59.5 -57.5
t77.5 -21.5q53 -1 91.5 19.5t71.5 51.5l44 -64q-41 -38 -93.5 -64.5t-119.5 -26.5zM282 586q-31 0 -53.5 17t-22.5 42q0 28 22.5 45.5t53.5 17.5q35 0 57 -17.5t22 -45.5q0 -25 -22 -42t-57 -17z" />
    <glyph glyph-name="Ccaron" unicode="&#x10c;" horiz-adv-x="758" 
d="M406 -13q-74 0 -138.5 25.5t-113 73.5t-76 113t-27.5 143q0 81 27 147t74 113t107.5 72.5t126.5 25.5q69 0 121.5 -23.5t89 -63t57.5 -89.5l-47 15v147h94v-223l-66 -6q-21 47 -52.5 83t-76 56t-105.5 20q-48 0 -91.5 -18.5t-77.5 -54t-53.5 -86t-19.5 -114.5
q0 -59 19 -108.5t52.5 -86t78.5 -56t97 -19.5q44 0 79.5 10t64 28t51.5 41.5t41 50.5l67 -56q-22 -33 -51.5 -62t-67 -51.5t-83.5 -34.5t-101 -12zM542 983l32 -31l-153 -176h-52l-152 176l32 31l146 -125z" />
    <glyph glyph-name="ccaron" unicode="&#x10d;" horiz-adv-x="553" 
d="M297 -15q-50 0 -95.5 17.5t-82 50t-57.5 79t-21 102.5q0 54 18.5 99.5t51.5 79t76 52t91 18.5t82 -14.5t59.5 -41t43.5 -64.5l-31 8v100h71v-165l-42 -3q-16 32 -38.5 54t-51.5 33t-66 11q-35 0 -64.5 -11.5t-51 -33.5t-34 -53t-12.5 -68q0 -50 23 -87t59.5 -57.5
t77.5 -21.5q53 -1 91.5 19.5t71.5 51.5l44 -64q-41 -38 -93.5 -64.5t-119.5 -26.5zM429 766l32 -31l-153 -176h-52l-152 176l32 31l146 -125z" />
    <glyph glyph-name="Dcaron" unicode="&#x10e;" horiz-adv-x="817" 
d="M36 0v84h326q58 0 111 14t95 44.5t66 80t24 120.5q0 72 -24 121.5t-66 79.5t-95 44t-111 14h-326v84h336q78 0 149 -21t126 -63.5t87 -107t32 -151.5q0 -86 -32 -150.5t-87 -107.5t-126 -64t-149 -21h-336zM165 49v589h104v-589h-104zM533 969l32 -31l-153 -176h-52
l-152 176l32 31l146 -125z" />
    <glyph glyph-name="dcaron" unicode="&#x10f;" horiz-adv-x="652" 
d="M269 -14q-61 0 -113 30.5t-83.5 85.5t-31.5 127q0 57 18.5 103t52.5 80t78.5 52.5t95.5 18.5q52 0 92 -19t70.5 -47t53.5 -56v-72q-24 29 -54.5 54t-65.5 40.5t-74 15.5q-36 0 -66 -12.5t-52.5 -34.5t-34.5 -53.5t-12 -68.5q0 -48 19 -84.5t53.5 -56.5t77.5 -19
q41 1 77.5 18.5t69 44.5t59.5 54v-76q-18 -19 -41.5 -40.5t-51.5 -41t-62 -31.5t-75 -12zM553 -10q-47 0 -77 32t-30 91v573h96v-565q0 -26 9.5 -37t23.5 -11q11 0 19 2.5t14 5.5l20 -72q-11 -7 -31.5 -13t-43.5 -6zM340 607v79h193v-79h-193zM628 696l81 -10
q-2 -52 -21.5 -97.5t-49.5 -84.5l-43 12q13 30 21 60t11 60.5t1 59.5z" />
    <glyph glyph-name="Dcroat" unicode="&#x110;" horiz-adv-x="817" 
d="M36 0v84h326q58 0 111 14t95 44.5t66 80t24 120.5q0 72 -24 121.5t-66 79.5t-95 44t-111 14h-326v84h336q78 0 149 -21t126 -63.5t87 -107t32 -151.5q0 -86 -32 -150.5t-87 -107.5t-126 -64t-149 -21h-336zM165 49v589h104v-589h-104zM38 309v64h448v-64h-448z" />
    <glyph glyph-name="dcroat" unicode="&#x111;" horiz-adv-x="650" 
d="M269 -14q-61 0 -113 31t-83.5 85.5t-31.5 126.5q0 57 18.5 103.5t52.5 80t78.5 52t95.5 18.5q52 0 92 -19t70.5 -47t53.5 -56v-71q-24 29 -54.5 54t-65.5 41t-74 16q-36 0 -66 -13t-52.5 -35.5t-34.5 -54t-12 -68.5q0 -48 19 -84.5t53.5 -56t77.5 -19.5q41 1 77.5 18.5
t69 44.5t59.5 54v-76q-18 -19 -41.5 -40.5t-51.5 -41t-62 -31.5t-75 -12zM553 -10q-31 0 -55.5 14t-38 41.5t-13.5 67.5v573h96v-565q0 -26 9.5 -37t23.5 -11q11 0 19 2.5t14 5.5l20 -72q-11 -7 -31.5 -13t-43.5 -6zM244 537v65h384v-65h-384zM337 608v78h196v-78h-196z" />
    <glyph glyph-name="Emacron" unicode="&#x112;" horiz-adv-x="789" 
d="M36 0v84h586v137h92v-221h-678zM164 47v587h103v-587h-103zM209 305v77h259v-77h-259zM424 212v262h80v-262h-80zM622 465v137h-586v84h678v-221h-92zM593 863v-72h-380v72h380z" />
    <glyph glyph-name="emacron" unicode="&#x113;" horiz-adv-x="560" 
d="M302 -14q-49 0 -95.5 15.5t-84 45.5t-59.5 74.5t-22 102.5q0 62 22.5 110t60.5 81t85 50.5t97 17.5q60 0 106 -18.5t72.5 -52t26.5 -78.5q0 -46 -27.5 -77t-71.5 -46.5t-93 -15.5q-61 0 -109.5 14.5t-94.5 35.5l-1 60q53 -23 97.5 -32t86.5 -9q32 0 57.5 8t41.5 24t16 38
q0 32 -28 51.5t-72 19.5q-33 0 -64.5 -12.5t-57 -35.5t-41 -55.5t-15.5 -74.5q0 -49 24 -84.5t62.5 -54t83.5 -18.5q56 0 98.5 18.5t75.5 46.5l42 -65q-28 -24 -60.5 -43t-72 -30t-86.5 -11zM477 660v-72h-380v72h380z" />
    <glyph glyph-name="Edotaccent" unicode="&#x116;" horiz-adv-x="789" 
d="M36 0v84h586v137h92v-221h-678zM164 47v587h103v-587h-103zM209 305v77h259v-77h-259zM424 212v262h80v-262h-80zM622 465v137h-586v84h678v-221h-92zM407 789q-31 0 -53.5 17t-22.5 42q0 28 22.5 45.5t53.5 17.5q35 0 57 -17.5t22 -45.5q0 -25 -22 -42t-57 -17z" />
    <glyph glyph-name="edotaccent" unicode="&#x117;" horiz-adv-x="560" 
d="M302 -14q-49 0 -95.5 15.5t-84 45.5t-59.5 74.5t-22 102.5q0 62 22.5 110t60.5 81t85 50.5t97 17.5q60 0 106 -18.5t72.5 -52t26.5 -78.5q0 -46 -27.5 -77t-71.5 -46.5t-93 -15.5q-61 0 -109.5 14.5t-94.5 35.5l-1 60q53 -23 97.5 -32t86.5 -9q32 0 57.5 8t41.5 24t16 38
q0 32 -28 51.5t-72 19.5q-33 0 -64.5 -12.5t-57 -35.5t-41 -55.5t-15.5 -74.5q0 -49 24 -84.5t62.5 -54t83.5 -18.5q56 0 98.5 18.5t75.5 46.5l42 -65q-28 -24 -60.5 -43t-72 -30t-86.5 -11zM291 586q-31 0 -53.5 17t-22.5 42q0 28 22.5 45.5t53.5 17.5q35 0 57 -17.5
t22 -45.5q0 -25 -22 -42t-57 -17z" />
    <glyph glyph-name="Eogonek" unicode="&#x118;" horiz-adv-x="789" 
d="M36 0v84h586v137h92v-221h-678zM164 47v587h103v-587h-103zM209 305v77h259v-77h-259zM424 212v262h80v-262h-80zM622 465v137h-586v84h678v-221h-92zM628 -282q-29 0 -56.5 12t-44.5 36t-17 59q0 38 21 72t55 61.5t72 46.5l56 -5q-69 -40 -99.5 -79.5t-30.5 -71.5
q0 -29 17.5 -44t40.5 -15q22 0 40 11t32 27l33 -51q-21 -24 -52 -41.5t-67 -17.5z" />
    <glyph glyph-name="eogonek" unicode="&#x119;" horiz-adv-x="560" 
d="M302 -14q-49 0 -95.5 15.5t-84 45.5t-59.5 74.5t-22 102.5q0 62 22.5 110t60.5 81t85 50.5t97 17.5q60 0 106 -18.5t72.5 -52t26.5 -78.5q0 -46 -27.5 -77t-71.5 -46.5t-93 -15.5q-61 0 -109.5 14.5t-94.5 35.5l-1 60q53 -23 97.5 -32t86.5 -9q32 0 57.5 8t41.5 24t16 38
q0 32 -28 51.5t-72 19.5q-33 0 -64.5 -12.5t-57 -35.5t-41 -55.5t-15.5 -74.5q0 -49 24 -84.5t62.5 -54t83.5 -18.5q56 0 98.5 18.5t75.5 46.5l42 -65q-28 -24 -60.5 -43t-72 -30t-86.5 -11zM369 -257q-29 0 -56.5 12t-44.5 36t-17 59q0 38 21 72t55 61.5t72 46.5l56 -5
q-69 -40 -99.5 -79.5t-30.5 -71.5q0 -29 17.5 -44t40.5 -15q22 0 40 11t32 27l33 -51q-21 -24 -52 -41.5t-67 -17.5z" />
    <glyph glyph-name="Ecaron" unicode="&#x11a;" horiz-adv-x="789" 
d="M36 0v84h586v137h92v-221h-678zM164 47v587h103v-587h-103zM209 305v77h259v-77h-259zM424 212v262h80v-262h-80zM622 465v137h-586v84h678v-221h-92zM554 969l32 -31l-153 -176h-52l-152 176l32 31l146 -125z" />
    <glyph glyph-name="ecaron" unicode="&#x11b;" horiz-adv-x="560" 
d="M302 -14q-49 0 -95.5 15.5t-84 45.5t-59.5 74.5t-22 102.5q0 62 22.5 110t60.5 81t85 50.5t97 17.5q60 0 106 -18.5t72.5 -52t26.5 -78.5q0 -46 -27.5 -77t-71.5 -46.5t-93 -15.5q-61 0 -109.5 14.5t-94.5 35.5l-1 60q53 -23 97.5 -32t86.5 -9q32 0 57.5 8t41.5 24t16 38
q0 32 -28 51.5t-72 19.5q-33 0 -64.5 -12.5t-57 -35.5t-41 -55.5t-15.5 -74.5q0 -49 24 -84.5t62.5 -54t83.5 -18.5q56 0 98.5 18.5t75.5 46.5l42 -65q-28 -24 -60.5 -43t-72 -30t-86.5 -11zM438 766l32 -31l-153 -176h-52l-152 176l32 31l146 -125z" />
    <glyph glyph-name="Gbreve" unicode="&#x11e;" horiz-adv-x="801" 
d="M412 -14q-81 0 -147.5 26t-115.5 74t-75 113.5t-26 143.5q0 79 27 144t73.5 113t107.5 74t129 26q72 0 127 -22.5t94 -58.5t61 -78l-43 13v132h91v-214l-66 -4q-21 40 -54.5 73.5t-79.5 54t-107 20.5q-52 0 -97.5 -18.5t-80.5 -54t-54.5 -86t-19.5 -114.5
q0 -61 19 -110.5t54 -85.5t81.5 -55.5t101.5 -19.5q48 0 86.5 8.5t69 23.5t52.5 33v133h-219v79h314v-255q-32 -30 -78 -54.5t-103 -39t-122 -14.5zM404 784q-55 0 -94.5 24.5t-62 62.5t-25.5 77l61 12q7 -26 24 -47.5t41.5 -33.5t55.5 -12q30 0 54.5 12t41.5 33.5t24 47.5
l61 -12q-4 -39 -26 -77t-61 -62.5t-94 -24.5z" />
    <glyph glyph-name="gbreve" unicode="&#x11f;" horiz-adv-x="580" 
d="M250 -218q-65 0 -117 17t-82.5 48t-30.5 75q0 31 15.5 55t37.5 41.5t42 28.5l44 -23q-19 -9 -36 -30.5t-17 -51.5q0 -24 18.5 -42t54 -27.5t85.5 -9.5q53 0 99.5 12t76 34t29.5 52q0 27 -20 39t-54 12q-24 0 -48.5 -3.5t-50.5 -8t-54.5 -8t-61.5 -3.5q-43 0 -76 14.5
t-51.5 40t-18.5 56.5q0 34 17 60t43 45t54 30l42 -28q-18 -9 -34 -22t-25.5 -28.5t-9.5 -33.5q0 -17 9 -29.5t26 -19t41 -6.5q28 0 54 3t52 7.5t53.5 7.5t59.5 3q42 0 74 -14t50.5 -41t18.5 -67q0 -43 -24.5 -77.5t-68 -58t-99 -36.5t-117.5 -13zM289 143q-39 0 -76.5 10.5
t-68.5 32t-49.5 53t-18.5 73.5q0 43 19.5 75t51 53.5t68.5 32t74 10.5q39 0 76.5 -10.5t68.5 -31.5t50 -52.5t19 -73.5t-19 -74.5t-50 -54t-69 -32.5t-76 -11zM289 214q34 0 60.5 12t41.5 35t15 54t-16 53t-42.5 33t-58.5 11q-31 0 -58 -12t-43 -34t-16 -54q0 -31 16 -53
t43 -33.5t58 -11.5zM425 413l-34 29q8 32 22.5 55.5t35.5 39t47.5 24t56.5 9.5v-82q-45 -2 -75 -17.5t-53 -57.5zM289 567q-55 0 -94.5 24.5t-62 62.5t-25.5 77l61 12q7 -26 24 -47.5t41.5 -33.5t55.5 -12q30 0 54.5 12t41.5 33.5t24 47.5l61 -12q-4 -39 -26 -77t-61 -62.5
t-94 -24.5z" />
    <glyph glyph-name="Gdotaccent" unicode="&#x120;" horiz-adv-x="801" 
d="M412 -14q-81 0 -147.5 26t-115.5 74t-75 113.5t-26 143.5q0 79 27 144t73.5 113t107.5 74t129 26q72 0 127 -22.5t94 -58.5t61 -78l-43 13v132h91v-214l-66 -4q-21 40 -54.5 73.5t-79.5 54t-107 20.5q-52 0 -97.5 -18.5t-80.5 -54t-54.5 -86t-19.5 -114.5
q0 -61 19 -110.5t54 -85.5t81.5 -55.5t101.5 -19.5q48 0 86.5 8.5t69 23.5t52.5 33v133h-219v79h314v-255q-32 -30 -78 -54.5t-103 -39t-122 -14.5zM403 803q-31 0 -53.5 17t-22.5 42q0 28 22.5 45.5t53.5 17.5q35 0 57 -17.5t22 -45.5q0 -25 -22 -42t-57 -17z" />
    <glyph glyph-name="gdotaccent" unicode="&#x121;" horiz-adv-x="580" 
d="M250 -218q-65 0 -117 17t-82.5 48t-30.5 75q0 31 15.5 55t37.5 41.5t42 28.5l44 -23q-19 -9 -36 -30.5t-17 -51.5q0 -24 18.5 -42t54 -27.5t85.5 -9.5q53 0 99.5 12t76 34t29.5 52q0 27 -20 39t-54 12q-24 0 -48.5 -3.5t-50.5 -8t-54.5 -8t-61.5 -3.5q-43 0 -76 14.5
t-51.5 40t-18.5 56.5q0 34 17 60t43 45t54 30l42 -28q-18 -9 -34 -22t-25.5 -28.5t-9.5 -33.5q0 -17 9 -29.5t26 -19t41 -6.5q28 0 54 3t52 7.5t53.5 7.5t59.5 3q42 0 74 -14t50.5 -41t18.5 -67q0 -43 -24.5 -77.5t-68 -58t-99 -36.5t-117.5 -13zM289 143q-39 0 -76.5 10.5
t-68.5 32t-49.5 53t-18.5 73.5q0 43 19.5 75t51 53.5t68.5 32t74 10.5q39 0 76.5 -10.5t68.5 -31.5t50 -52.5t19 -73.5t-19 -74.5t-50 -54t-69 -32.5t-76 -11zM289 214q34 0 60.5 12t41.5 35t15 54t-16 53t-42.5 33t-58.5 11q-31 0 -58 -12t-43 -34t-16 -54q0 -31 16 -53
t43 -33.5t58 -11.5zM425 413l-34 29q8 32 22.5 55.5t35.5 39t47.5 24t56.5 9.5v-82q-45 -2 -75 -17.5t-53 -57.5zM289 586q-31 0 -53.5 17t-22.5 42q0 28 22.5 45.5t53.5 17.5q35 0 57 -17.5t22 -45.5q0 -25 -22 -42t-57 -17z" />
    <glyph glyph-name="uni0122" unicode="&#x122;" horiz-adv-x="801" 
d="M412 -14q-81 0 -147.5 26t-115.5 74t-75 113.5t-26 143.5q0 79 27 144t73.5 113t107.5 74t129 26q72 0 127 -22.5t94 -58.5t61 -78l-43 13v132h91v-214l-66 -4q-21 40 -54.5 73.5t-79.5 54t-107 20.5q-52 0 -97.5 -18.5t-80.5 -54t-54.5 -86t-19.5 -114.5
q0 -61 19 -110.5t54 -85.5t81.5 -55.5t101.5 -19.5q48 0 86.5 8.5t69 23.5t52.5 33v133h-219v79h314v-255q-32 -30 -78 -54.5t-103 -39t-122 -14.5zM481 -199q0 -42 -29 -88t-74 -83l-24 26q36 34 56 67.5t21 61.5q-9 -5 -18 -6t-21 -1q-24 0 -41.5 14t-17.5 37
q0 24 20.5 40.5t48.5 16.5q35 0 57 -22.5t22 -62.5z" />
    <glyph glyph-name="uni0123" unicode="&#x123;" horiz-adv-x="580" 
d="M250 -218q-65 0 -117 17t-82.5 48t-30.5 75q0 31 15.5 55t37.5 41.5t42 28.5l44 -23q-19 -9 -36 -30.5t-17 -51.5q0 -24 18.5 -42t54 -27.5t85.5 -9.5q53 0 99.5 12t76 34t29.5 52q0 27 -20 39t-54 12q-24 0 -48.5 -3.5t-50.5 -8t-54.5 -8t-61.5 -3.5q-43 0 -76 14.5
t-51.5 40t-18.5 56.5q0 34 17 60t43 45t54 30l42 -28q-18 -9 -34 -22t-25.5 -28.5t-9.5 -33.5q0 -17 9 -29.5t26 -19t41 -6.5q28 0 54 3t52 7.5t53.5 7.5t59.5 3q42 0 74 -14t50.5 -41t18.5 -67q0 -43 -24.5 -77.5t-68 -58t-99 -36.5t-117.5 -13zM289 143q-39 0 -76.5 10.5
t-68.5 32t-49.5 53t-18.5 73.5q0 43 19.5 75t51 53.5t68.5 32t74 10.5q39 0 76.5 -10.5t68.5 -31.5t50 -52.5t19 -73.5t-19 -74.5t-50 -54t-69 -32.5t-76 -11zM289 214q34 0 60.5 12t41.5 35t15 54t-16 53t-42.5 33t-58.5 11q-31 0 -58 -12t-43 -34t-16 -54q0 -31 16 -53
t43 -33.5t58 -11.5zM425 413l-34 29q8 32 22.5 55.5t35.5 39t47.5 24t56.5 9.5v-82q-45 -2 -75 -17.5t-53 -57.5zM210 669q0 42 29.5 87.5t74.5 81.5l24 -26q-37 -34 -56 -67.5t-21 -60.5q9 4 18 5.5t20 1.5q25 0 42.5 -14t17.5 -37q0 -24 -20.5 -40.5t-49.5 -16.5
q-34 0 -56.5 23t-22.5 63z" />
    <glyph glyph-name="Hbar" unicode="&#x126;" horiz-adv-x="935" 
d="M61 445v65h813v-65h-813zM36 0v84h360v-84h-360zM538 0v84h361v-84h-361zM165 47v593h105v-593h-105zM197 279v76h541v-76h-541zM36 602v84h360v-84h-360zM666 49v592h104v-592h-104zM538 602v84h361v-84h-361z" />
    <glyph glyph-name="hbar" unicode="&#x127;" horiz-adv-x="717" 
d="M513 0v274q0 29 -6.5 51.5t-20 38t-33.5 23.5t-46 8q-27 0 -54.5 -11.5t-55 -32t-55 -50t-55.5 -65.5v80q32 39 62.5 70t61.5 53t64 33t71 11q40 0 71 -12.5t52 -38.5t32 -64.5t11 -90.5v-277h-99zM23 0v79h290v-79h-290zM129 0v607h-106v79h204v-686h-98zM23 534v65h384
v-65h-384zM427 0v79h278v-79h-278z" />
    <glyph glyph-name="Imacron" unicode="&#x12a;" horiz-adv-x="434" 
d="M165 49v591h104v-591h-104zM36 0v84h362v-84h-362zM36 602v84h362v-84h-362zM405 863v-72h-380v72h380z" />
    <glyph glyph-name="imacron" unicode="&#x12b;" horiz-adv-x="355" 
d="M135 22v449h99v-449h-99zM29 0v79h312v-79h-312zM29 392v79h182v-79h-182zM314 648v-72h-290v72h290z" />
    <glyph glyph-name="Iogonek" unicode="&#x12e;" horiz-adv-x="434" 
d="M165 49v591h104v-591h-104zM36 0v84h362v-84h-362zM36 602v84h362v-84h-362zM229 -282q-51 0 -84.5 33.5t-33.5 86.5q0 34 9 64t25.5 56t37.5 47l64 -5q-22 -24 -35.5 -48.5t-20.5 -48t-7 -42.5q0 -31 16 -48t40 -17q30 0 49.5 20.5t31.5 43.5l49 -46q-25 -44 -61 -70
t-80 -26z" />
    <glyph glyph-name="iogonek" unicode="&#x12f;" horiz-adv-x="355" 
d="M135 22v449h99v-449h-99zM29 0v79h312v-79h-312zM29 392v79h182v-79h-182zM172 574q-31 0 -53.5 17t-22.5 42q0 28 22.5 45.5t53.5 17.5q35 0 57 -17.5t22 -45.5q0 -25 -22 -42t-57 -17zM202 -282q-51 0 -84.5 33.5t-33.5 86.5q0 34 9 64t25.5 56t37.5 47l64 -5
q-22 -24 -35.5 -48.5t-20.5 -48t-7 -42.5q0 -31 16 -48t40 -17q30 0 49.5 20.5t31.5 43.5l49 -46q-25 -44 -61 -70t-80 -26z" />
    <glyph glyph-name="Idotaccent" unicode="&#x130;" horiz-adv-x="434" 
d="M165 49v591h104v-591h-104zM36 0v84h362v-84h-362zM36 602v84h362v-84h-362zM219 789q-31 0 -53.5 17t-22.5 42q0 28 22.5 45.5t53.5 17.5q35 0 57 -17.5t22 -45.5q0 -25 -22 -42t-57 -17z" />
    <glyph glyph-name="dotlessi" unicode="&#x131;" horiz-adv-x="355" 
d="M135 22v449h99v-449h-99zM29 0v79h312v-79h-312zM29 392v79h182v-79h-182z" />
    <glyph glyph-name="IJ" unicode="&#x132;" horiz-adv-x="1012" 
d="M165 49v591h104v-591h-104zM36 0v84h362v-84h-362zM36 602v84h362v-84h-362zM650 -13q-46 0 -86 11t-71.5 28.5t-54.5 36.5l45 72q20 -14 45 -29t55 -24.5t62 -8.5q38 1 67 17t45.5 49.5t16.5 85.5l-1 416h105v-418q0 -75 -30.5 -128t-82 -80.5t-115.5 -27.5zM594 602v84
h411v-84h-411z" />
    <glyph glyph-name="ij" unicode="&#x133;" horiz-adv-x="669" 
d="M135 22v449h99v-449h-99zM29 0v79h312v-79h-312zM29 392v79h182v-79h-182zM172 574q-31 0 -53.5 17t-22.5 42q0 28 22.5 45.5t53.5 17.5q35 0 57 -17.5t22 -45.5q0 -25 -22 -42t-57 -17zM393 -238q-44 0 -73.5 10t-52.5 18l25 82q23 -9 46 -16t52 -7q40 0 65 28.5
t25 82.5v511h98v-509q0 -64 -24 -109t-66 -68t-95 -23zM374 392v79h182v-79h-182zM516 574q-31 0 -53.5 17t-22.5 42q0 28 22.5 45.5t53.5 17.5q35 0 57 -17.5t22 -45.5q0 -25 -22 -42t-57 -17z" />
    <glyph glyph-name="uni0136" unicode="&#x136;" horiz-adv-x="859" 
d="M209 148v95l444 379h118zM36 0v84h356v-84h-356zM165 47v591h104v-591h-104zM36 602v84h356v-84h-356zM527 0v84h322v-84h-322zM653 58l-271 314l80 51l322 -365h-131zM519 602v84h321v-84h-321zM538 -185q0 -42 -29 -88t-74 -83l-24 26q36 34 56 67.5t21 61.5
q-9 -5 -18 -6t-21 -1q-24 0 -41.5 14t-17.5 37q0 24 20.5 40.5t48.5 16.5q35 0 57 -22.5t22 -62.5z" />
    <glyph glyph-name="uni0137" unicode="&#x137;" horiz-adv-x="680" 
d="M396 173q-38 0 -72 7t-65.5 18t-61.5 23v64q35 -14 66.5 -23t59.5 -12.5t52 -3.5q33 1 61 10t45.5 27.5t17.5 45.5q0 34 -24.5 53t-67.5 19q-29 0 -64.5 -12.5t-72.5 -35t-73 -54.5l2 68q34 34 71.5 60t78.5 41t83 15q45 0 84 -17t62.5 -50.5t22.5 -83.5q0 -38 -18 -67.5
t-47 -50t-65.5 -31t-74.5 -10.5zM23 0v79h300v-79h-300zM128 22v664h95v-664h-95zM23 607v79h194v-79h-194zM568 -14q-47 0 -83.5 25t-59.5 72t-30 114h71q9 -44 24.5 -72.5t37 -42.5t47.5 -15q19 0 35.5 4t31.5 12l21 -71q-19 -12 -43.5 -19t-51.5 -7zM460 -185
q0 -42 -29 -88t-74 -83l-24 26q36 34 56 67.5t21 61.5q-9 -5 -18 -6t-21 -1q-24 0 -41.5 14t-17.5 37q0 24 20.5 40.5t48.5 16.5q35 0 57 -22.5t22 -62.5z" />
    <glyph glyph-name="Lacute" unicode="&#x139;" horiz-adv-x="724" 
d="M36 0v84h546v155h98v-239h-644zM165 47v587h103v-587h-103zM36 602v84h360v-84h-360zM257 748l-29 38l198 182l53 -73z" />
    <glyph glyph-name="lacute" unicode="&#x13a;" horiz-adv-x="349" 
d="M128 22v664h99v-664h-99zM23 0v79h312v-79h-312zM23 607v79h198v-79h-198zM158 748l-29 38l198 182l53 -73z" />
    <glyph glyph-name="uni013B" unicode="&#x13b;" horiz-adv-x="724" 
d="M36 0v84h546v155h98v-239h-644zM165 47v587h103v-587h-103zM36 602v84h360v-84h-360zM454 -185q0 -42 -29 -88t-74 -83l-24 26q36 34 56 67.5t21 61.5q-9 -5 -18 -6t-21 -1q-24 0 -41.5 14t-17.5 37q0 24 20.5 40.5t48.5 16.5q35 0 57 -22.5t22 -62.5z" />
    <glyph glyph-name="uni013C" unicode="&#x13c;" horiz-adv-x="349" 
d="M128 22v664h99v-664h-99zM23 0v79h312v-79h-312zM23 607v79h198v-79h-198zM257 -185q0 -42 -29 -88t-74 -83l-24 26q36 34 56 67.5t21 61.5q-9 -5 -18 -6t-21 -1q-24 0 -41.5 14t-17.5 37q0 24 20.5 40.5t48.5 16.5q35 0 57 -22.5t22 -62.5z" />
    <glyph glyph-name="Lcaron" unicode="&#x13d;" horiz-adv-x="724" 
d="M36 0v84h546v155h98v-239h-644zM165 47v587h103v-587h-103zM36 602v84h360v-84h-360zM502 692l81 -10q-2 -52 -21.5 -97.5t-49.5 -84.5l-43 12q13 30 21 60t11 60.5t1 59.5z" />
    <glyph glyph-name="lcaron" unicode="&#x13e;" horiz-adv-x="349" 
d="M128 22v664h99v-664h-99zM23 0v79h312v-79h-312zM23 607v79h198v-79h-198zM314 696l81 -10q-2 -52 -21.5 -97.5t-49.5 -84.5l-43 12q13 30 21 60t11 60.5t1 59.5z" />
    <glyph glyph-name="Ldot" unicode="&#x13f;" horiz-adv-x="724" 
d="M36 0v84h546v155h98v-239h-644zM165 47v587h103v-587h-103zM36 602v84h360v-84h-360zM581 361q-33 0 -57.5 19t-24.5 47q0 30 24.5 49t57.5 19q37 0 60.5 -19t23.5 -49q0 -28 -23.5 -47t-60.5 -19z" />
    <glyph glyph-name="ldot" unicode="&#x140;" horiz-adv-x="349" 
d="M128 22v664h99v-664h-99zM23 0v79h312v-79h-312zM23 607v79h198v-79h-198zM352 277q-27 0 -47 15t-20 38q0 24 20 40t47 16q31 0 49.5 -16t18.5 -40q0 -23 -18.5 -38t-49.5 -15z" />
    <glyph glyph-name="Lslash" unicode="&#x141;" horiz-adv-x="721" 
d="M37 232v65l358 139v-65zM36 0v84h546v155h98v-239h-644zM165 47v587h103v-587h-103zM36 602v84h360v-84h-360z" />
    <glyph glyph-name="lslash" unicode="&#x142;" horiz-adv-x="348" 
d="M24 240v64l307 126v-64zM128 22v664h99v-664h-99zM23 0v79h312v-79h-312zM23 607v79h198v-79h-198z" />
    <glyph glyph-name="Nacute" unicode="&#x143;" horiz-adv-x="938" 
d="M744 -6l-609 692h128l436 -507v490h96v-675h-51zM36 0v84h350v-84h-350zM165 15v671h98v-671h-98zM36 602v84h227l-1 -84h-226zM570 602v84h350v-84h-350zM441 748l-29 38l198 182l53 -73z" />
    <glyph glyph-name="nacute" unicode="&#x144;" horiz-adv-x="726" 
d="M523 0v274q0 27 -7 48.5t-20.5 37t-33 23.5t-45.5 8q-27 0 -54.5 -10.5t-55.5 -31t-55.5 -49t-55.5 -64.5v80q32 39 62.5 70t61 53t63 33t68.5 11q41 0 72.5 -12.5t53 -38.5t33 -64.5t11.5 -90.5v-277h-98zM29 0v79h291v-79h-291zM135 0v471h99v-471h-99zM29 392v79h184
v-79h-184zM436 0v79h278v-79h-278zM362 545l-29 38l198 182l53 -73z" />
    <glyph glyph-name="uni0145" unicode="&#x145;" horiz-adv-x="938" 
d="M744 -6l-609 692h128l436 -507v490h96v-675h-51zM36 0v84h350v-84h-350zM165 15v671h98v-671h-98zM36 602v84h227l-1 -84h-226zM570 602v84h350v-84h-350zM605 -171q0 -42 -29 -88t-74 -83l-24 26q36 34 56 67.5t21 61.5q-9 -5 -18 -6t-21 -1q-24 0 -41.5 14t-17.5 37
q0 24 20.5 40.5t48.5 16.5q35 0 57 -22.5t22 -62.5z" />
    <glyph glyph-name="uni0146" unicode="&#x146;" horiz-adv-x="726" 
d="M523 0v274q0 27 -7 48.5t-20.5 37t-33 23.5t-45.5 8q-27 0 -54.5 -10.5t-55.5 -31t-55.5 -49t-55.5 -64.5v80q32 39 62.5 70t61 53t63 33t68.5 11q41 0 72.5 -12.5t53 -38.5t33 -64.5t11.5 -90.5v-277h-98zM29 0v79h291v-79h-291zM135 0v471h99v-471h-99zM29 392v79h184
v-79h-184zM436 0v79h278v-79h-278zM460 -185q0 -42 -29 -88t-74 -83l-24 26q36 34 56 67.5t21 61.5q-9 -5 -18 -6t-21 -1q-24 0 -41.5 14t-17.5 37q0 24 20.5 40.5t48.5 16.5q35 0 57 -22.5t22 -62.5z" />
    <glyph glyph-name="Ncaron" unicode="&#x147;" horiz-adv-x="938" 
d="M744 -6l-609 692h128l436 -507v490h96v-675h-51zM36 0v84h350v-84h-350zM165 15v671h98v-671h-98zM36 602v84h227l-1 -84h-226zM570 602v84h350v-84h-350zM609 969l32 -31l-153 -176h-52l-152 176l32 31l146 -125z" />
    <glyph glyph-name="ncaron" unicode="&#x148;" horiz-adv-x="726" 
d="M523 0v274q0 27 -7 48.5t-20.5 37t-33 23.5t-45.5 8q-27 0 -54.5 -10.5t-55.5 -31t-55.5 -49t-55.5 -64.5v80q32 39 62.5 70t61 53t63 33t68.5 11q41 0 72.5 -12.5t53 -38.5t33 -64.5t11.5 -90.5v-277h-98zM29 0v79h291v-79h-291zM135 0v471h99v-471h-99zM29 392v79h184
v-79h-184zM436 0v79h278v-79h-278zM530 766l32 -31l-153 -176h-52l-152 176l32 31l146 -125z" />
    <glyph glyph-name="Eng" unicode="&#x14a;" horiz-adv-x="938" 
d="M574 -244q-46 0 -85.5 11t-71 29t-54.5 37l46 73q19 -14 44 -29t54.5 -24.5t61.5 -9.5q39 2 68 18t46 49t17 85v48l-565 643h128l436 -507v490h96v-679q-1 -75 -30.5 -127t-79.5 -79.5t-111 -27.5zM36 0v84h350v-84h-350zM165 15v671h98v-671h-98zM36 603v83h227l-1 -83
h-226zM570 603v83h350v-83h-350z" />
    <glyph glyph-name="eng" unicode="&#x14b;" horiz-adv-x="713" 
d="M435 -238q-44 0 -72.5 10t-53.5 18l25 82q24 -9 47.5 -16t50.5 -7q41 0 66 28.5t25 82.5v314q0 27 -7 48.5t-20.5 37t-33 23.5t-45.5 8q-27 0 -54.5 -10.5t-55.5 -30.5t-55.5 -49t-55.5 -65v80q32 39 62.5 70t61 52.5t63 32.5t68.5 11q41 0 72.5 -12.5t53 -38t33 -64
t11.5 -90.5v-315q0 -64 -24 -109t-66 -68t-96 -23zM29 0v79h291v-79h-291zM135 0v471h99v-471h-99zM29 392v79h184v-79h-184z" />
    <glyph glyph-name="Omacron" unicode="&#x14c;" horiz-adv-x="814" 
d="M408 -13q-76 0 -141 26t-113.5 73.5t-75.5 112.5t-27 144t27 144.5t75.5 113t113.5 73.5t141 26q75 0 139.5 -26t112.5 -73.5t75.5 -113t27.5 -144.5t-27.5 -144t-75.5 -112.5t-112.5 -73.5t-139.5 -26zM408 73q54 0 99.5 20t78.5 56t51 85.5t18 108.5q0 60 -18 109.5
t-51 85.5t-78.5 56t-99.5 20q-56 0 -102 -20t-79 -56.5t-50.5 -86t-17.5 -108.5q0 -60 17.5 -109.5t50.5 -85.5t79 -55.5t102 -19.5zM594 877v-72h-380v72h380z" />
    <glyph glyph-name="omacron" unicode="&#x14d;" horiz-adv-x="601" 
d="M301 -14q-52 0 -98.5 17.5t-83 50t-57.5 78t-21 102.5t21 103t57.5 78.5t83 50t98.5 17.5q50 0 97 -17.5t83.5 -50t57.5 -78.5t21 -103t-20.5 -102.5t-56.5 -78t-83 -50t-99 -17.5zM301 64q45 0 80 21t56 59t21 90t-21 90t-56 59t-80 21t-81 -21t-56.5 -59t-20.5 -90
t20.5 -90t56.5 -59t81 -21zM487 660v-72h-380v72h380z" />
    <glyph glyph-name="Ohungarumlaut" unicode="&#x150;" horiz-adv-x="814" 
d="M408 -13q-76 0 -141 26t-113.5 73.5t-75.5 112.5t-27 144t27 144.5t75.5 113t113.5 73.5t141 26q75 0 139.5 -26t112.5 -73.5t75.5 -113t27.5 -144.5t-27.5 -144t-75.5 -112.5t-112.5 -73.5t-139.5 -26zM408 73q54 0 99.5 20t78.5 56t51 85.5t18 108.5q0 60 -18 109.5
t-51 85.5t-78.5 56t-99.5 20q-56 0 -102 -20t-79 -56.5t-50.5 -86t-17.5 -108.5q0 -60 17.5 -109.5t50.5 -85.5t79 -55.5t102 -19.5zM485 775l-46 34l114 195l72 -52zM295 775l-46 34l113 195l72 -52z" />
    <glyph glyph-name="ohungarumlaut" unicode="&#x151;" horiz-adv-x="601" 
d="M301 -14q-52 0 -98.5 17.5t-83 50t-57.5 78t-21 102.5t21 103t57.5 78.5t83 50t98.5 17.5q50 0 97 -17.5t83.5 -50t57.5 -78.5t21 -103t-20.5 -102.5t-56.5 -78t-83 -50t-99 -17.5zM301 64q45 0 80 21t56 59t21 90t-21 90t-56 59t-80 21t-81 -21t-56.5 -59t-20.5 -90
t20.5 -90t56.5 -59t81 -21zM379 558l-46 34l114 195l72 -52zM189 558l-46 34l113 195l72 -52z" />
    <glyph glyph-name="OE" unicode="&#x152;" horiz-adv-x="1134" 
d="M435 0q-62 0 -119 13t-105.5 40t-84.5 68t-55.5 95.5t-19.5 124.5q0 69 19.5 124.5t55.5 97t84.5 68.5t105.5 41t119 14h624v-219h-93v136h-509q-46 0 -90 -9t-81.5 -28t-66 -50t-44.5 -74.5t-16 -100.5t16 -100t44.5 -73t66 -48.5t81.5 -27t90 -8.5h509v135h93v-219
h-624zM529 47v587h104v-587h-104zM575 304v84h244v-84h-244zM772 215v262h84v-262h-84z" />
    <glyph glyph-name="oe" unicode="&#x153;" horiz-adv-x="970" 
d="M298 -14q-51 0 -97 17.5t-82 50.5t-57 78.5t-21 102.5t21 103t57 78.5t82 50t97 17.5q49 0 94 -17.5t80 -50t55 -78.5t20 -103t-19.5 -102.5t-54 -78.5t-79.5 -50.5t-96 -17.5zM298 64q32 0 59.5 12t48.5 34.5t33 54t12 70.5t-12 70.5t-33 53.5t-48.5 34t-59.5 12
q-33 0 -61 -12t-49 -34t-32.5 -53.5t-11.5 -70.5t11.5 -70.5t32.5 -54t49 -34.5t61 -12zM716 -14q-50 0 -95 17t-79.5 49t-54.5 77.5t-20 103.5q0 63 24 110t62.5 78t83.5 47t86 16q58 0 102.5 -19t70.5 -52.5t26 -78.5q0 -46 -28 -77t-72 -46.5t-92 -15.5
q-60 0 -109.5 14.5t-96.5 35.5v60q35 -15 66.5 -24.5t61 -13t56.5 -3.5q32 0 58 8t41.5 24t15.5 38q0 32 -28 52t-72 20q-33 0 -64.5 -12.5t-57 -36t-41 -56t-15.5 -74.5q0 -49 26 -85.5t66.5 -55.5t85.5 -19q56 0 94.5 18t72.5 46l41 -61q-27 -24 -59.5 -43t-71 -30
t-84.5 -11z" />
    <glyph glyph-name="Racute" unicode="&#x154;" horiz-adv-x="785" 
d="M235 291v78h202q41 0 74.5 14t53.5 41t20 64q0 36 -19 61.5t-52.5 39.5t-76.5 14h-401v83h398q78 0 135 -24.5t88 -69t31 -104.5q0 -57 -30.5 -102t-87 -70t-134.5 -25h-201zM36 0v83h359v-83h-359zM165 47v591h104v-591h-104zM677 -14q-46 1 -85 18.5t-71.5 60
t-59.5 118.5l-43 122l85 11l44 -109q22 -53 45 -80.5t47.5 -37.5t47.5 -10q21 0 34.5 4t25.5 8l22 -84q-17 -9 -40.5 -15t-51.5 -6zM386 748l-29 38l198 182l53 -73z" />
    <glyph glyph-name="racute" unicode="&#x155;" horiz-adv-x="549" 
d="M202 236v78q37 49 79 87.5t87 60t90 21.5h42v-201h-86v104q-31 0 -66 -18t-72 -51.5t-74 -80.5zM29 0v79h312v-79h-312zM135 22v449h99v-449h-99zM29 392v79h199v-79h-199zM280 533l-29 38l198 182l53 -73z" />
    <glyph glyph-name="uni0156" unicode="&#x156;" horiz-adv-x="785" 
d="M235 291v78h202q41 0 74.5 14t53.5 41t20 64q0 36 -19 61.5t-52.5 39.5t-76.5 14h-401v83h398q78 0 135 -24.5t88 -69t31 -104.5q0 -57 -30.5 -102t-87 -70t-134.5 -25h-201zM36 0v83h359v-83h-359zM165 47v591h104v-591h-104zM677 -14q-46 1 -85 18.5t-71.5 60
t-59.5 118.5l-43 122l85 11l44 -109q22 -53 45 -80.5t47.5 -37.5t47.5 -10q21 0 34.5 4t25.5 8l22 -84q-17 -9 -40.5 -15t-51.5 -6zM538 -185q0 -42 -29 -88t-74 -83l-24 26q36 34 56 67.5t21 61.5q-9 -5 -18 -6t-21 -1q-24 0 -41.5 14t-17.5 37q0 24 20.5 40.5t48.5 16.5
q35 0 57 -22.5t22 -62.5z" />
    <glyph glyph-name="uni0157" unicode="&#x157;" horiz-adv-x="549" 
d="M202 236v78q37 49 79 87.5t87 60t90 21.5h42v-201h-86v104q-31 0 -66 -18t-72 -51.5t-74 -80.5zM29 0v79h312v-79h-312zM135 22v449h99v-449h-99zM29 392v79h199v-79h-199zM258 -185q0 -42 -29 -88t-74 -83l-24 26q36 34 56 67.5t21 61.5q-9 -5 -18 -6t-21 -1
q-24 0 -41.5 14t-17.5 37q0 24 20.5 40.5t48.5 16.5q35 0 57 -22.5t22 -62.5z" />
    <glyph glyph-name="Rcaron" unicode="&#x158;" horiz-adv-x="785" 
d="M235 291v78h202q41 0 74.5 14t53.5 41t20 64q0 36 -19 61.5t-52.5 39.5t-76.5 14h-401v83h398q78 0 135 -24.5t88 -69t31 -104.5q0 -57 -30.5 -102t-87 -70t-134.5 -25h-201zM36 0v83h359v-83h-359zM165 47v591h104v-591h-104zM677 -14q-46 1 -85 18.5t-71.5 60
t-59.5 118.5l-43 122l85 11l44 -109q22 -53 45 -80.5t47.5 -37.5t47.5 -10q21 0 34.5 4t25.5 8l22 -84q-17 -9 -40.5 -15t-51.5 -6zM555 969l32 -31l-153 -176h-52l-152 176l32 31l146 -125z" />
    <glyph glyph-name="rcaron" unicode="&#x159;" horiz-adv-x="549" 
d="M202 236v78q37 49 79 87.5t87 60t90 21.5h42v-201h-86v104q-31 0 -66 -18t-72 -51.5t-74 -80.5zM29 0v79h312v-79h-312zM135 22v449h99v-449h-99zM29 392v79h199v-79h-199zM449 754l32 -31l-153 -176h-52l-152 176l32 31l146 -125z" />
    <glyph glyph-name="Sacute" unicode="&#x15a;" horiz-adv-x="699" 
d="M417 -13q-47 0 -90.5 13.5t-82.5 37.5t-73 57t-63 71l56 -10v-155h-91v231l59 3q27 -39 59.5 -69.5t69.5 -51.5t75 -32t75 -11t65.5 10.5t45 30.5t16.5 47q0 23 -12 42t-38 35.5t-68 32t-102 31.5q-84 22 -137.5 53t-78.5 72.5t-25 92.5q0 56 30.5 96.5t80 63t107.5 22.5
q61 0 112.5 -20t93 -60.5t70.5 -102.5l-52 11v158h92v-228l-56 -3q-28 54 -65 90t-80.5 53.5t-91.5 17.5q-38 0 -68 -11t-47.5 -31.5t-17.5 -50.5q0 -22 11 -40.5t34.5 -35t60 -31t88.5 -28.5q81 -22 140.5 -51t93 -69.5t33.5 -98.5q0 -56 -30 -97t-82 -63t-117 -22z
M329 762l-29 38l198 182l53 -73z" />
    <glyph glyph-name="sacute" unicode="&#x15b;" horiz-adv-x="516" 
d="M308 -14q-35 0 -69 8.5t-65.5 25t-56.5 38t-43 48.5l47 -1v-106h-73v153l41 4q24 -27 58.5 -51.5t73.5 -39.5t78 -15q25 0 43.5 6t28.5 19t10 31q0 16 -9 29t-27 23t-44.5 19.5t-62.5 18.5q-55 15 -97 35t-66.5 49.5t-24.5 71.5q0 37 20.5 66.5t57.5 47.5t87 18
q45 0 86.5 -14.5t73.5 -40.5t50 -62l-41 1v103h72v-152l-42 -5q-19 33 -48.5 57t-62.5 36.5t-64 12.5q-26 0 -47 -7t-33 -20t-12 -31q0 -15 9.5 -27t27.5 -21.5t43.5 -18.5t58.5 -18q54 -15 97.5 -35.5t69 -51t25.5 -76.5q0 -40 -23 -68.5t-61.5 -44t-85.5 -15.5zM226 544
l-29 38l198 182l53 -73z" />
    <glyph glyph-name="Scedilla" unicode="&#x15e;" horiz-adv-x="699" 
d="M417 -13q-47 0 -90.5 13.5t-82.5 37.5t-73 57t-63 71l56 -10v-155h-91v231l59 3q27 -39 59.5 -69.5t69.5 -51.5t75 -32t75 -11t65.5 10.5t45 30.5t16.5 47q0 23 -12 42t-38 35.5t-68 32t-102 31.5q-84 22 -137.5 53t-78.5 72.5t-25 92.5q0 56 30.5 96.5t80 63t107.5 22.5
q61 0 112.5 -20t93 -60.5t70.5 -102.5l-52 11v158h92v-228l-56 -3q-28 54 -65 90t-80.5 53.5t-91.5 17.5q-38 0 -68 -11t-47.5 -31.5t-17.5 -50.5q0 -22 11 -40.5t34.5 -35t60 -31t88.5 -28.5q81 -22 140.5 -51t93 -69.5t33.5 -98.5q0 -56 -30 -97t-82 -63t-117 -22z
M345 -263q-40 0 -74.5 13t-68.5 36l29 49q29 -21 57 -31.5t57 -10.5t47.5 12t18.5 32q0 23 -17.5 34t-46.5 11q-17 0 -31 -1t-27 -3l-6 9l50 122h52l-34 -84q5 0 11 0.5t12 0.5q46 0 74.5 -24t28.5 -65q0 -31 -18.5 -53.5t-48.5 -34.5t-65 -12z" />
    <glyph glyph-name="scedilla" unicode="&#x15f;" horiz-adv-x="516" 
d="M308 -14q-35 0 -69 8.5t-65.5 25t-56.5 38t-43 48.5l47 -1v-106h-73v153l41 4q24 -27 58.5 -51.5t73.5 -39.5t78 -15q25 0 43.5 6t28.5 19t10 31q0 16 -9 29t-27 23t-44.5 19.5t-62.5 18.5q-55 15 -97 35t-66.5 49.5t-24.5 71.5q0 37 20.5 66.5t57.5 47.5t87 18
q45 0 86.5 -14.5t73.5 -40.5t50 -62l-41 1v103h72v-152l-42 -5q-19 33 -48.5 57t-62.5 36.5t-64 12.5q-26 0 -47 -7t-33 -20t-12 -31q0 -15 9.5 -27t27.5 -21.5t43.5 -18.5t58.5 -18q54 -15 97.5 -35.5t69 -51t25.5 -76.5q0 -40 -23 -68.5t-61.5 -44t-85.5 -15.5zM248 -262
q-40 0 -74.5 13t-68.5 36l29 49q29 -21 57 -31.5t57 -10.5t47.5 12t18.5 32q0 23 -17.5 34t-46.5 11q-17 0 -31 -1t-27 -3l-6 9l50 122h52l-34 -84q5 0 11 0.5t12 0.5q46 0 74.5 -24t28.5 -65q0 -31 -18.5 -53.5t-48.5 -34.5t-65 -12z" />
    <glyph glyph-name="Scaron" unicode="&#x160;" horiz-adv-x="699" 
d="M417 -13q-47 0 -90.5 13.5t-82.5 37.5t-73 57t-63 71l56 -10v-155h-91v231l59 3q27 -39 59.5 -69.5t69.5 -51.5t75 -32t75 -11t65.5 10.5t45 30.5t16.5 47q0 23 -12 42t-38 35.5t-68 32t-102 31.5q-84 22 -137.5 53t-78.5 72.5t-25 92.5q0 56 30.5 96.5t80 63t107.5 22.5
q61 0 112.5 -20t93 -60.5t70.5 -102.5l-52 11v158h92v-228l-56 -3q-28 54 -65 90t-80.5 53.5t-91.5 17.5q-38 0 -68 -11t-47.5 -31.5t-17.5 -50.5q0 -22 11 -40.5t34.5 -35t60 -31t88.5 -28.5q81 -22 140.5 -51t93 -69.5t33.5 -98.5q0 -56 -30 -97t-82 -63t-117 -22z
M497 983l32 -31l-153 -176h-52l-152 176l32 31l146 -125z" />
    <glyph glyph-name="scaron" unicode="&#x161;" horiz-adv-x="516" 
d="M308 -14q-35 0 -69 8.5t-65.5 25t-56.5 38t-43 48.5l47 -1v-106h-73v153l41 4q24 -27 58.5 -51.5t73.5 -39.5t78 -15q25 0 43.5 6t28.5 19t10 31q0 16 -9 29t-27 23t-44.5 19.5t-62.5 18.5q-55 15 -97 35t-66.5 49.5t-24.5 71.5q0 37 20.5 66.5t57.5 47.5t87 18
q45 0 86.5 -14.5t73.5 -40.5t50 -62l-41 1v103h72v-152l-42 -5q-19 33 -48.5 57t-62.5 36.5t-64 12.5q-26 0 -47 -7t-33 -20t-12 -31q0 -15 9.5 -27t27.5 -21.5t43.5 -18.5t58.5 -18q54 -15 97.5 -35.5t69 -51t25.5 -76.5q0 -40 -23 -68.5t-61.5 -44t-85.5 -15.5zM394 765
l32 -31l-153 -176h-52l-152 176l32 31l146 -125z" />
    <glyph glyph-name="uni0162" unicode="&#x162;" horiz-adv-x="778" 
d="M38 460v226h702v-226h-92v143h-517v-143h-93zM207 0v84h364v-84h-364zM337 53v587h104v-587h-104zM376 -249q-40 0 -74.5 13t-68.5 36l29 49q29 -21 57 -31.5t57 -10.5t47.5 12t18.5 32q0 23 -17.5 34t-46.5 11q-17 0 -31 -1t-27 -3l-6 9l50 122h52l-34 -84q5 0 11 0.5
t12 0.5q46 0 74.5 -24t28.5 -65q0 -31 -18.5 -53.5t-48.5 -34.5t-65 -12z" />
    <glyph glyph-name="uni0163" unicode="&#x163;" horiz-adv-x="447" 
d="M289 -14q-49 0 -87.5 22t-59.5 63.5t-21 102.5v428h98v-429q0 -35 11.5 -57t31 -32.5t42.5 -10.5q28 0 52 7t44 18l30 -74q-25 -15 -60 -26.5t-81 -11.5zM16 392v79h359v-79h-359zM251 -263q-40 0 -74.5 13t-68.5 36l29 49q29 -21 57 -31.5t57 -10.5t47.5 12t18.5 32
q0 23 -17.5 34t-46.5 11q-17 0 -31 -1t-27 -3l-6 9l50 122h52l-34 -84q5 0 11 0.5t12 0.5q46 0 74.5 -24t28.5 -65q0 -31 -18.5 -53.5t-48.5 -34.5t-65 -12z" />
    <glyph glyph-name="Tcaron" unicode="&#x164;" horiz-adv-x="778" 
d="M38 460v226h702v-226h-92v143h-517v-143h-93zM207 0v84h364v-84h-364zM337 53v587h104v-587h-104zM533 980l32 -31l-153 -176h-52l-152 176l32 31l146 -125z" />
    <glyph glyph-name="tcaron" unicode="&#x165;" horiz-adv-x="447" 
d="M289 -14q-49 0 -87.5 22t-59.5 63.5t-21 102.5v428h98v-429q0 -35 11.5 -57t31 -32.5t42.5 -10.5q28 0 52 7t44 18l30 -74q-25 -15 -60 -26.5t-81 -11.5zM16 392v79h359v-79h-359zM301 738l81 -10q-2 -52 -21.5 -97.5t-49.5 -84.5l-43 12q13 30 21 60t11 60.5t1 59.5z
" />
    <glyph glyph-name="Tbar" unicode="&#x166;" horiz-adv-x="778" 
d="M149 270v66h479v-66h-479zM38 460v226h702v-226h-92v143h-517v-143h-93zM207 0v84h364v-84h-364zM337 53v587h104v-587h-104z" />
    <glyph glyph-name="tbar" unicode="&#x167;" horiz-adv-x="447" 
d="M16 265v63h360v-63h-360zM289 -14q-49 0 -87.5 22t-59.5 63.5t-21 102.5v428h98v-429q0 -35 11.5 -57t31 -32.5t42.5 -10.5q28 0 52 7t44 18l30 -74q-25 -15 -60 -26.5t-81 -11.5zM16 392v79h359v-79h-359z" />
    <glyph glyph-name="Umacron" unicode="&#x16a;" horiz-adv-x="887" 
d="M443 -14q-70 0 -126.5 21t-97 58.5t-62 87.5t-21.5 111v377h104v-374q0 -57 25.5 -101t71.5 -69t106 -25q61 0 107 25.5t72 69.5t26 101v373h104v-377q0 -61 -22 -111t-63.5 -87.5t-98 -58.5t-125.5 -21zM7 602v84h354v-84h-354zM525 602v84h355v-84h-355zM632 863v-72
h-380v72h380z" />
    <glyph glyph-name="umacron" unicode="&#x16b;" horiz-adv-x="673" 
d="M267 -14q-39 0 -69 13t-51 39t-32 64.5t-11 89.5v279h98v-276q0 -26 5.5 -47.5t17 -37.5t30.5 -24.5t46 -8.5q25 0 51 11t53 31t54 49.5t53 65.5v-79q-30 -40 -59.5 -71t-59.5 -53t-61 -33.5t-65 -11.5zM10 392v79h172v-79h-172zM575 -10q-33 0 -58 14t-38.5 41.5
t-13.5 67.5v358h98v-350q0 -26 9.5 -37.5t24.5 -11.5q10 0 17 2t14 6l22 -71q-13 -7 -32.5 -13t-42.5 -6zM379 392v79h170v-79h-170zM498 648v-72h-380v72h380z" />
    <glyph glyph-name="Ubreve" unicode="&#x16c;" horiz-adv-x="887" 
d="M443 -14q-70 0 -126.5 21t-97 58.5t-62 87.5t-21.5 111v377h104v-374q0 -57 25.5 -101t71.5 -69t106 -25q61 0 107 25.5t72 69.5t26 101v373h104v-377q0 -61 -22 -111t-63.5 -87.5t-98 -58.5t-125.5 -21zM7 602v84h354v-84h-354zM525 602v84h355v-84h-355zM446 770
q-55 0 -94.5 24.5t-62 62.5t-25.5 77l61 12q7 -26 24 -47.5t41.5 -33.5t55.5 -12q30 0 54.5 12t41.5 33.5t24 47.5l61 -12q-4 -39 -26 -77t-61 -62.5t-94 -24.5z" />
    <glyph glyph-name="ubreve" unicode="&#x16d;" horiz-adv-x="673" 
d="M267 -14q-39 0 -69 13t-51 39t-32 64.5t-11 89.5v279h98v-276q0 -26 5.5 -47.5t17 -37.5t30.5 -24.5t46 -8.5q25 0 51 11t53 31t54 49.5t53 65.5v-79q-30 -40 -59.5 -71t-59.5 -53t-61 -33.5t-65 -11.5zM10 392v79h172v-79h-172zM575 -10q-33 0 -58 14t-38.5 41.5
t-13.5 67.5v358h98v-350q0 -26 9.5 -37.5t24.5 -11.5q10 0 17 2t14 6l22 -71q-13 -7 -32.5 -13t-42.5 -6zM379 392v79h170v-79h-170zM312 555q-55 0 -94.5 24.5t-62 62.5t-25.5 77l61 12q7 -26 24 -47.5t41.5 -33.5t55.5 -12q30 0 54.5 12t41.5 33.5t24 47.5l61 -12
q-4 -39 -26 -77t-61 -62.5t-94 -24.5z" />
    <glyph glyph-name="Uring" unicode="&#x16e;" horiz-adv-x="887" 
d="M443 -14q-70 0 -126.5 21t-97 58.5t-62 87.5t-21.5 111v377h104v-374q0 -57 25.5 -101t71.5 -69t106 -25q61 0 107 25.5t72 69.5t26 101v373h104v-377q0 -61 -22 -111t-63.5 -87.5t-98 -58.5t-125.5 -21zM7 602v84h354v-84h-354zM525 602v84h355v-84h-355zM445 751
q-38 0 -70.5 18.5t-52.5 50.5t-20 71q0 42 20 73t52.5 48.5t70.5 17.5q40 0 72 -18t51.5 -49.5t19.5 -72.5q0 -40 -19.5 -72t-51.5 -49.5t-72 -17.5zM445 805q36 0 60.5 25t24.5 60q0 36 -24.5 61t-60.5 25q-35 0 -60 -24t-25 -61q0 -23 11.5 -42.5t31 -31.5t42.5 -12z" />
    <glyph glyph-name="uring" unicode="&#x16f;" horiz-adv-x="673" 
d="M267 -14q-39 0 -69 13t-51 39t-32 64.5t-11 89.5v279h98v-276q0 -26 5.5 -47.5t17 -37.5t30.5 -24.5t46 -8.5q25 0 51 11t53 31t54 49.5t53 65.5v-79q-30 -40 -59.5 -71t-59.5 -53t-61 -33.5t-65 -11.5zM10 392v79h172v-79h-172zM575 -10q-33 0 -58 14t-38.5 41.5
t-13.5 67.5v358h98v-350q0 -26 9.5 -37.5t24.5 -11.5q10 0 17 2t14 6l22 -71q-13 -7 -32.5 -13t-42.5 -6zM379 392v79h170v-79h-170zM311 536q-38 0 -70.5 18.5t-52.5 50.5t-20 71q0 42 20 73t52.5 48.5t70.5 17.5q40 0 72 -18t51.5 -49.5t19.5 -72.5q0 -40 -19.5 -72
t-51.5 -49.5t-72 -17.5zM311 590q36 0 60.5 25t24.5 60q0 36 -24.5 61t-60.5 25q-35 0 -60 -24t-25 -61q0 -23 11.5 -42.5t31 -31.5t42.5 -12z" />
    <glyph glyph-name="Uhungarumlaut" unicode="&#x170;" horiz-adv-x="887" 
d="M443 -14q-70 0 -126.5 21t-97 58.5t-62 87.5t-21.5 111v377h104v-374q0 -57 25.5 -101t71.5 -69t106 -25q61 0 107 25.5t72 69.5t26 101v373h104v-377q0 -61 -22 -111t-63.5 -87.5t-98 -58.5t-125.5 -21zM7 602v84h354v-84h-354zM525 602v84h355v-84h-355zM524 761
l-46 34l114 195l72 -52zM334 761l-46 34l113 195l72 -52z" />
    <glyph glyph-name="uhungarumlaut" unicode="&#x171;" horiz-adv-x="673" 
d="M267 -14q-39 0 -69 13t-51 39t-32 64.5t-11 89.5v279h98v-276q0 -26 5.5 -47.5t17 -37.5t30.5 -24.5t46 -8.5q25 0 51 11t53 31t54 49.5t53 65.5v-79q-30 -40 -59.5 -71t-59.5 -53t-61 -33.5t-65 -11.5zM10 392v79h172v-79h-172zM575 -10q-33 0 -58 14t-38.5 41.5
t-13.5 67.5v358h98v-350q0 -26 9.5 -37.5t24.5 -11.5q10 0 17 2t14 6l22 -71q-13 -7 -32.5 -13t-42.5 -6zM379 392v79h170v-79h-170zM390 546l-46 34l114 195l72 -52zM200 546l-46 34l113 195l72 -52z" />
    <glyph glyph-name="Uogonek" unicode="&#x172;" horiz-adv-x="887" 
d="M443 -14q-70 0 -126.5 21t-97 58.5t-62 87.5t-21.5 111v377h104v-374q0 -57 25.5 -101t71.5 -69t106 -25q61 0 107 25.5t72 69.5t26 101v373h104v-377q0 -61 -22 -111t-63.5 -87.5t-98 -58.5t-125.5 -21zM7 602v84h354v-84h-354zM525 602v84h355v-84h-355zM467 -277
q-51 0 -84.5 33.5t-33.5 86.5q0 34 9 64t25.5 56t37.5 47l64 -5q-22 -24 -35.5 -48.5t-20.5 -48t-7 -42.5q0 -31 16 -48t40 -17q30 0 49.5 20.5t31.5 43.5l49 -46q-25 -44 -61 -70t-80 -26z" />
    <glyph glyph-name="uogonek" unicode="&#x173;" horiz-adv-x="673" 
d="M267 -14q-39 0 -69 13t-51 39t-32 64.5t-11 89.5v279h98v-276q0 -26 5.5 -47.5t17 -37.5t30.5 -24.5t46 -8.5q25 0 51 11t53 31t54 49.5t53 65.5v-79q-30 -40 -59.5 -71t-59.5 -53t-61 -33.5t-65 -11.5zM10 392v79h172v-79h-172zM575 -10q-33 0 -58 14t-38.5 41.5
t-13.5 67.5v358h98v-350q0 -26 9.5 -37.5t24.5 -11.5q10 0 17 2t14 6l22 -71q-13 -7 -32.5 -13t-42.5 -6zM379 392v79h170v-79h-170zM544 -271q-29 0 -56.5 12t-44.5 36t-17 59q0 38 21 72t55 61.5t72 46.5l56 -5q-69 -40 -99.5 -79.5t-30.5 -71.5q0 -29 17.5 -44t40.5 -15
q22 0 40 11t32 27l33 -51q-21 -24 -52 -41.5t-67 -17.5z" />
    <glyph glyph-name="Wcircumflex" unicode="&#x174;" horiz-adv-x="1180" 
d="M3 602v84h336v-84h-336zM333 -14l-232 649h111l189 -567l-33 -82h-35zM348 -14l-23 60l238 625h37l21 -94l-237 -591h-36zM796 -14l-248 588l36 97h36l240 -603l-30 -82h-34zM810 -14l-23 60l187 589h103l-231 -649h-36zM842 602v84h335v-84h-335zM443 753l-32 29
l152 176h52l153 -176l-32 -29l-148 124z" />
    <glyph glyph-name="wcircumflex" unicode="&#x175;" horiz-adv-x="884" 
d="M14 391v80h257v-73h-145l-4 -7h-108zM240 -13l-165 436h101l130 -374l-23 -62h-43zM272 -13l-32 49l184 422h28l15 -90l-177 -381h-18zM595 -13l-178 381l25 90h37l178 -409l-20 -62h-42zM627 -13l-36 49l135 391h87l-169 -440h-17zM629 398v73h241v-80h-108l-4 7h-129z
M300 538l-32 29l152 176h52l153 -176l-32 -29l-148 124z" />
    <glyph glyph-name="Ycircumflex" unicode="&#x176;" horiz-adv-x="806" 
d="M374 232l-287 398h121l206 -297l202 296h98l-284 -397h-56zM219 0v84h370v-84h-370zM352 36v267h104v-267h-104zM10 602v84h316v-84h-316zM481 602v84h315v-84h-315zM258 753l-32 29l152 176h52l153 -176l-32 -29l-148 124z" />
    <glyph glyph-name="ycircumflex" unicode="&#x177;" horiz-adv-x="654" 
d="M155 -238q-30 0 -53.5 6.5t-44.5 18t-41 24.5l40 75q19 -13 43.5 -25t55.5 -12q28 0 52.5 12t45.5 37t39 66l214 490h92l-226 -506q-28 -61 -60 -102t-71 -62.5t-86 -21.5zM316 -55l-237 484h109l194 -430zM19 392v79h264v-72h-150l-6 -7h-108zM405 399v72h239v-79h-105
l-5 7h-129zM198 538l-32 29l152 176h52l153 -176l-32 -29l-148 124z" />
    <glyph glyph-name="Ydieresis" unicode="&#x178;" horiz-adv-x="806" 
d="M374 232l-287 398h121l206 -297l202 296h98l-284 -397h-56zM219 0v84h370v-84h-370zM352 36v267h104v-267h-104zM10 602v84h316v-84h-316zM481 602v84h315v-84h-315zM512 794q-28 0 -48 15.5t-20 39.5q0 25 20 41t48 16q29 0 49 -16t20 -41q0 -24 -20 -39.5t-49 -15.5z
M293 794q-28 0 -48.5 15.5t-20.5 39.5q0 25 20.5 41t48.5 16q30 0 49 -16t19 -41q0 -24 -19 -39.5t-49 -15.5z" />
    <glyph glyph-name="Zacute" unicode="&#x179;" horiz-adv-x="741" 
d="M64 0v70l446 503q12 12 29 20.5t28 11.5l-1 5q-11 -2 -27.5 -4.5t-32.5 -2.5h-348v-143h-93v226h614v-70l-449 -505q-11 -12 -27.5 -20t-27.5 -10l1 -4q9 2 27 4.5t33 2.5h356v142h93v-226h-621zM368 748l-29 38l198 182l53 -73z" />
    <glyph glyph-name="zacute" unicode="&#x17a;" horiz-adv-x="590" 
d="M464 484l83 -30q-11 -55 -32 -93.5t-49.5 -66t-64 -48t-77.5 -39.5q-51 -24 -90.5 -51t-69.5 -66.5t-52 -103.5l-80 32q19 59 46.5 101t60 71t67.5 50t69 39q37 19 67.5 36.5t55 38.5t41 52t25.5 78zM376 -14q-48 0 -88.5 17.5t-78 48.5t-76.5 72l31 51q54 -49 102.5 -77
t95.5 -28q44 0 76.5 29.5t39.5 77.5l85 -23q-5 -52 -33 -90t-68.5 -58t-85.5 -20zM52 282v201h64q61 0 106 -9t81 -25.5t68.5 -41t69.5 -55.5l-39 -55q-25 20 -51 38.5t-57 32.5t-69.5 22.5t-88.5 8.5v-117h-84zM279 545l-29 38l198 182l53 -73z" />
    <glyph glyph-name="Zdotaccent" unicode="&#x17b;" horiz-adv-x="741" 
d="M64 0v70l446 503q12 12 29 20.5t28 11.5l-1 5q-11 -2 -27.5 -4.5t-32.5 -2.5h-348v-143h-93v226h614v-70l-449 -505q-11 -12 -27.5 -20t-27.5 -10l1 -4q9 2 27 4.5t33 2.5h356v142h93v-226h-621zM389 789q-31 0 -53.5 17t-22.5 42q0 28 22.5 45.5t53.5 17.5
q35 0 57 -17.5t22 -45.5q0 -25 -22 -42t-57 -17z" />
    <glyph glyph-name="zdotaccent" unicode="&#x17c;" horiz-adv-x="590" 
d="M464 484l83 -30q-11 -55 -32 -93.5t-49.5 -66t-64 -48t-77.5 -39.5q-51 -24 -90.5 -51t-69.5 -66.5t-52 -103.5l-80 32q19 59 46.5 101t60 71t67.5 50t69 39q37 19 67.5 36.5t55 38.5t41 52t25.5 78zM376 -14q-48 0 -88.5 17.5t-78 48.5t-76.5 72l31 51q54 -49 102.5 -77
t95.5 -28q44 0 76.5 29.5t39.5 77.5l85 -23q-5 -52 -33 -90t-68.5 -58t-85.5 -20zM52 282v201h64q61 0 106 -9t81 -25.5t68.5 -41t69.5 -55.5l-39 -55q-25 20 -51 38.5t-57 32.5t-69.5 22.5t-88.5 8.5v-117h-84zM300 586q-31 0 -53.5 17t-22.5 42q0 28 22.5 45.5t53.5 17.5
q35 0 57 -17.5t22 -45.5q0 -25 -22 -42t-57 -17z" />
    <glyph glyph-name="Zcaron" unicode="&#x17d;" horiz-adv-x="741" 
d="M64 0v70l446 503q12 12 29 20.5t28 11.5l-1 5q-11 -2 -27.5 -4.5t-32.5 -2.5h-348v-143h-93v226h614v-70l-449 -505q-11 -12 -27.5 -20t-27.5 -10l1 -4q9 2 27 4.5t33 2.5h356v142h93v-226h-621zM536 969l32 -31l-153 -176h-52l-152 176l32 31l146 -125z" />
    <glyph glyph-name="zcaron" unicode="&#x17e;" horiz-adv-x="590" 
d="M464 484l83 -30q-11 -55 -32 -93.5t-49.5 -66t-64 -48t-77.5 -39.5q-51 -24 -90.5 -51t-69.5 -66.5t-52 -103.5l-80 32q19 59 46.5 101t60 71t67.5 50t69 39q37 19 67.5 36.5t55 38.5t41 52t25.5 78zM376 -14q-48 0 -88.5 17.5t-78 48.5t-76.5 72l31 51q54 -49 102.5 -77
t95.5 -28q44 0 76.5 29.5t39.5 77.5l85 -23q-5 -52 -33 -90t-68.5 -58t-85.5 -20zM52 282v201h64q61 0 106 -9t81 -25.5t68.5 -41t69.5 -55.5l-39 -55q-25 20 -51 38.5t-57 32.5t-69.5 22.5t-88.5 8.5v-117h-84zM447 766l32 -31l-153 -176h-52l-152 176l32 31l146 -125z" />
    <glyph glyph-name="florin" unicode="&#x192;" horiz-adv-x="465" 
d="M86 -199q-18 0 -38 2.5t-35 6.5l19 83q11 -2 21.5 -3t21.5 -1q36 0 58 14.5t32 41t10 63.5v530q0 63 24 106.5t66.5 66t98.5 22.5q49 0 88.5 -14t76.5 -31l-35 -79q-28 16 -56.5 26.5t-62.5 10.5q-30 0 -53 -12t-36.5 -35t-13.5 -58v-531q0 -66 -21 -113t-62.5 -71.5
t-102.5 -24.5zM69 395v78h353v-78h-353z" />
    <glyph glyph-name="uni0218" unicode="&#x218;" horiz-adv-x="699" 
d="M417 -13q-47 0 -90.5 13.5t-82.5 37.5t-73 57t-63 71l56 -10v-155h-91v231l59 3q27 -39 59.5 -69.5t69.5 -51.5t75 -32t75 -11t65.5 10.5t45 30.5t16.5 47q0 23 -12 42t-38 35.5t-68 32t-102 31.5q-84 22 -137.5 53t-78.5 72.5t-25 92.5q0 56 30.5 96.5t80 63t107.5 22.5
q61 0 112.5 -20t93 -60.5t70.5 -102.5l-52 11v158h92v-228l-56 -3q-28 54 -65 90t-80.5 53.5t-91.5 17.5q-38 0 -68 -11t-47.5 -31.5t-17.5 -50.5q0 -22 11 -40.5t34.5 -35t60 -31t88.5 -28.5q81 -22 140.5 -51t93 -69.5t33.5 -98.5q0 -56 -30 -97t-82 -63t-117 -22z
M454 -199q0 -42 -29 -88t-74 -83l-24 26q36 34 56 67.5t21 61.5q-9 -5 -18 -6t-21 -1q-24 0 -41.5 14t-17.5 37q0 24 20.5 40.5t48.5 16.5q35 0 57 -22.5t22 -62.5z" />
    <glyph glyph-name="uni0219" unicode="&#x219;" horiz-adv-x="516" 
d="M308 -14q-35 0 -69 8.5t-65.5 25t-56.5 38t-43 48.5l47 -1v-106h-73v153l41 4q24 -27 58.5 -51.5t73.5 -39.5t78 -15q25 0 43.5 6t28.5 19t10 31q0 16 -9 29t-27 23t-44.5 19.5t-62.5 18.5q-55 15 -97 35t-66.5 49.5t-24.5 71.5q0 37 20.5 66.5t57.5 47.5t87 18
q45 0 86.5 -14.5t73.5 -40.5t50 -62l-41 1v103h72v-152l-42 -5q-19 33 -48.5 57t-62.5 36.5t-64 12.5q-26 0 -47 -7t-33 -20t-12 -31q0 -15 9.5 -27t27.5 -21.5t43.5 -18.5t58.5 -18q54 -15 97.5 -35.5t69 -51t25.5 -76.5q0 -40 -23 -68.5t-61.5 -44t-85.5 -15.5zM357 -198
q0 -42 -29 -88t-74 -83l-24 26q36 34 56 67.5t21 61.5q-9 -5 -18 -6t-21 -1q-24 0 -41.5 14t-17.5 37q0 24 20.5 40.5t48.5 16.5q35 0 57 -22.5t22 -62.5z" />
    <glyph glyph-name="uni021A" unicode="&#x21a;" horiz-adv-x="778" 
d="M38 460v226h702v-226h-92v143h-517v-143h-93zM207 0v84h364v-84h-364zM337 53v587h104v-587h-104zM484 -185q0 -42 -29 -88t-74 -83l-24 26q36 34 56 67.5t21 61.5q-9 -5 -18 -6t-21 -1q-24 0 -41.5 14t-17.5 37q0 24 20.5 40.5t48.5 16.5q35 0 57 -22.5t22 -62.5z" />
    <glyph glyph-name="uni021B" unicode="&#x21b;" horiz-adv-x="447" 
d="M289 -14q-49 0 -87.5 22t-59.5 63.5t-21 102.5v428h98v-429q0 -35 11.5 -57t31 -32.5t42.5 -10.5q28 0 52 7t44 18l30 -74q-25 -15 -60 -26.5t-81 -11.5zM16 392v79h359v-79h-359zM360 -199q0 -42 -29 -88t-74 -83l-24 26q36 34 56 67.5t21 61.5q-9 -5 -18 -6t-21 -1
q-24 0 -41.5 14t-17.5 37q0 24 20.5 40.5t48.5 16.5q35 0 57 -22.5t22 -62.5z" />
    <glyph glyph-name="uni0237" unicode="&#x237;" horiz-adv-x="325" 
d="M49 -238q-44 0 -73.5 10t-52.5 18l25 82q23 -9 46 -16t52 -7q40 0 65 28.5t25 82.5v511h98v-509q0 -64 -24 -109t-66 -68t-95 -23zM30 392v79h182v-79h-182z" />
    <glyph glyph-name="uni0259" unicode="&#x259;" horiz-adv-x="560" 
d="M257 485q50 0 96.5 -15.5t84 -45.5t59.5 -74.5t22 -102.5q0 -61 -22.5 -109.5t-60.5 -81.5t-85 -50.5t-97 -17.5q-60 0 -106 18.5t-73 52.5t-27 78q0 47 28 77.5t72 46t93 15.5q60 0 109 -14.5t95 -35.5v-60q-52 23 -96.5 32t-86.5 9q-31 0 -57.5 -8t-42 -23.5
t-15.5 -38.5q0 -32 27.5 -51.5t72.5 -19.5q32 0 63.5 12.5t57 35.5t41 56t15.5 74q0 50 -23.5 85t-62.5 53.5t-84 18.5q-56 0 -98 -18t-76 -47l-42 65q28 24 61 43t72.5 30t85.5 11z" />
    <glyph glyph-name="uni02B9" unicode="&#x2b9;" horiz-adv-x="325" 
d="M142 739l101 -22l-82 -253l-60 10z" />
    <glyph glyph-name="uni02BA" unicode="&#x2ba;" horiz-adv-x="501" 
d="M126 736l103 -14l-66 -257l-62 5zM317 736l103 -15l-67 -257l-61 5z" />
    <glyph glyph-name="uni02BB" unicode="&#x2bb;" horiz-adv-x="277" 
d="M64 -253q0 28 13.5 58.5t37 59.5t53.5 52l24 -25q-24 -23 -41 -45.5t-26 -43.5t-10 -39q9 4 18 5.5t20 1.5q25 0 42.5 -15t17.5 -37q0 -24 -20.5 -40.5t-49.5 -16.5q-34 0 -56.5 22.5t-22.5 62.5z" />
    <glyph glyph-name="circumflex" unicode="&#x2c6;" horiz-adv-x="432" 
d="M70 754l-32 29l152 176h52l153 -176l-32 -29l-148 124z" />
    <glyph glyph-name="caron" unicode="&#x2c7;" horiz-adv-x="432" 
d="M363 969l32 -31l-153 -176h-52l-152 176l32 31l146 -125z" />
    <glyph glyph-name="breve" unicode="&#x2d8;" horiz-adv-x="492" 
d="M246 770q-55 0 -94.5 24.5t-62 62.5t-25.5 77l61 12q7 -26 24 -47.5t41.5 -33.5t55.5 -12q30 0 54.5 12t41.5 33.5t24 47.5l61 -12q-4 -39 -26 -77t-61 -62.5t-94 -24.5z" />
    <glyph glyph-name="dotaccent" unicode="&#x2d9;" horiz-adv-x="295" 
d="M147 851q-31 0 -53.5 17t-22.5 42q0 28 22.5 45.5t53.5 17.5q35 0 57 -17.5t22 -45.5q0 -25 -22 -42t-57 -17z" />
    <glyph glyph-name="ring" unicode="&#x2da;" horiz-adv-x="414" 
d="M207 751q-38 0 -70.5 18.5t-52.5 50.5t-20 71q0 42 20 73t52.5 48.5t70.5 17.5q40 0 72 -18t51.5 -49.5t19.5 -72.5q0 -40 -19.5 -72t-51.5 -49.5t-72 -17.5zM207 805q36 0 60.5 25t24.5 60q0 36 -24.5 61t-60.5 25q-35 0 -60 -24t-25 -61q0 -23 11.5 -42.5t31 -31.5
t42.5 -12z" />
    <glyph glyph-name="ogonek" unicode="&#x2db;" horiz-adv-x="327" 
d="M144 -282q-29 0 -56.5 12t-44.5 36t-17 59q0 38 21 72t55 61.5t72 46.5l56 -5q-69 -40 -99.5 -79.5t-30.5 -71.5q0 -29 17.5 -44t40.5 -15q22 0 40 11t32 27l33 -51q-21 -24 -52 -41.5t-67 -17.5z" />
    <glyph glyph-name="tilde" unicode="&#x2dc;" horiz-adv-x="543" 
d="M362 760q-37 0 -62 20t-48 47q-22 27 -37 40.5t-35 13.5q-27 0 -40.5 -27.5t-16.5 -78.5l-59 6q2 45 15 80.5t38.5 56.5t62.5 21q39 0 64 -19.5t48 -47.5q21 -26 36 -39.5t34 -13.5q18 0 30 12.5t19 35.5t9 56l59 -5q-1 -44 -15 -80t-39.5 -57t-62.5 -21z" />
    <glyph glyph-name="hungarumlaut" unicode="&#x2dd;" horiz-adv-x="605" 
d="M355 753l-46 34l114 195l72 -52zM165 753l-46 34l113 195l72 -52z" />
    <glyph glyph-name="gravecomb" unicode="&#x300;" 
d="M321 754l-223 147l53 73l198 -182z" />
    <glyph glyph-name="acutecomb" unicode="&#x301;" 
d="M127 732l-29 38l198 182l53 -73z" />
    <glyph glyph-name="uni0302" unicode="&#x302;" 
d="M70 754l-32 29l152 176h52l153 -176l-32 -29l-148 124z" />
    <glyph glyph-name="tildecomb" unicode="&#x303;" 
d="M362 760q-37 0 -62 20t-48 47q-22 27 -37 40.5t-35 13.5q-27 0 -40.5 -27.5t-16.5 -78.5l-59 6q2 45 15 80.5t38.5 56.5t62.5 21q39 0 64 -19.5t48 -47.5q21 -26 36 -39.5t34 -13.5q18 0 30 12.5t19 35.5t9 56l59 -5q-1 -44 -15 -80t-39.5 -57t-62.5 -21z" />
    <glyph glyph-name="uni0304" unicode="&#x304;" 
d="M451 885v-72h-380v72h380z" />
    <glyph glyph-name="uni0306" unicode="&#x306;" 
d="M246 770q-55 0 -94.5 24.5t-62 62.5t-25.5 77l61 12q7 -26 24 -47.5t41.5 -33.5t55.5 -12q30 0 54.5 12t41.5 33.5t24 47.5l61 -12q-4 -39 -26 -77t-61 -62.5t-94 -24.5z" />
    <glyph glyph-name="uni0307" unicode="&#x307;" 
d="M147 851q-31 0 -53.5 17t-22.5 42q0 28 22.5 45.5t53.5 17.5q35 0 57 -17.5t22 -45.5q0 -25 -22 -42t-57 -17z" />
    <glyph glyph-name="uni0308" unicode="&#x308;" 
d="M395 795q-28 0 -48 15.5t-20 39.5q0 25 20 41t48 16q29 0 49 -16t20 -41q0 -24 -20 -39.5t-49 -15.5zM176 795q-28 0 -48.5 15.5t-20.5 39.5q0 25 20.5 41t48.5 16q30 0 49 -16t19 -41q0 -24 -19 -39.5t-49 -15.5z" />
    <glyph glyph-name="hookabovecomb" unicode="&#x309;" 
d="M227 724q14 22 26 42t12 45t-16 39.5t-46 14.5q-24 0 -45.5 -8.5t-42.5 -20.5l-22 54q24 16 53.5 26t67.5 10q46 0 80.5 -25.5t34.5 -68.5q0 -37 -19 -66t-47 -58z" />
    <glyph glyph-name="uni030A" unicode="&#x30a;" 
d="M207 751q-38 0 -70.5 18.5t-52.5 50.5t-20 71q0 42 20 73t52.5 48.5t70.5 17.5q40 0 72 -18t51.5 -49.5t19.5 -72.5q0 -40 -19.5 -72t-51.5 -49.5t-72 -17.5zM207 805q36 0 60.5 25t24.5 60q0 36 -24.5 61t-60.5 25q-35 0 -60 -24t-25 -61q0 -23 11.5 -42.5t31 -31.5
t42.5 -12z" />
    <glyph glyph-name="uni030B" unicode="&#x30b;" 
d="M355 753l-46 34l114 195l72 -52zM165 753l-46 34l113 195l72 -52z" />
    <glyph glyph-name="uni030C" unicode="&#x30c;" 
d="M363 969l32 -31l-153 -176h-52l-152 176l32 31l146 -125z" />
    <glyph glyph-name="uni0312" unicode="&#x312;" 
d="M64 828q0 42 29.5 87.5t74.5 81.5l24 -26q-37 -34 -56 -67.5t-21 -60.5q9 4 18 5.5t20 1.5q25 0 42.5 -14t17.5 -37q0 -24 -20.5 -40.5t-49.5 -16.5q-34 0 -56.5 23t-22.5 63z" />
    <glyph glyph-name="uni0326" unicode="&#x326;" 
d="M214 -185q0 -42 -29 -88t-74 -83l-24 26q36 34 56 67.5t21 61.5q-9 -5 -18 -6t-21 -1q-24 0 -41.5 14t-17.5 37q0 24 20.5 40.5t48.5 16.5q35 0 57 -22.5t22 -62.5z" />
    <glyph glyph-name="uni0327" unicode="&#x327;" 
d="M152 -249q-40 0 -74.5 13t-68.5 36l29 49q29 -21 57 -31.5t57 -10.5t47.5 12t18.5 32q0 23 -17.5 34t-46.5 11q-17 0 -31 -1t-27 -3l-6 9l50 122h52l-34 -84q5 0 11 0.5t12 0.5q46 0 74.5 -24t28.5 -65q0 -31 -18.5 -53.5t-48.5 -34.5t-65 -12z" />
    <glyph glyph-name="uni0328" unicode="&#x328;" 
d="M144 -282q-29 0 -56.5 12t-44.5 36t-17 59q0 38 21 72t55 61.5t72 46.5l56 -5q-69 -40 -99.5 -79.5t-30.5 -71.5q0 -29 17.5 -44t40.5 -15q22 0 40 11t32 27l33 -51q-21 -24 -52 -41.5t-67 -17.5z" />
    <glyph glyph-name="uni0335" unicode="&#x335;" 
d="M5 265v63h360v-63h-360z" />
    <glyph glyph-name="uni0337" unicode="&#x337;" 
d="M167 88h-81l223 428h81z" />
    <glyph glyph-name="uni0338" unicode="&#x338;" 
d="M111 -105h-89l352 845h88z" />
    <glyph glyph-name="uni0394" unicode="&#x394;" horiz-adv-x="782" 
d="M91 0l275 610h57l267 -610h-599zM223 75h338l-167 409z" />
    <glyph glyph-name="uni03A9" unicode="&#x3a9;" horiz-adv-x="977" 
d="M103 0v76h269l4 -43q-33 23 -65 55t-58.5 71.5t-42 85.5t-15.5 97q0 64 23 117t63 92.5t93.5 61t114.5 21.5q60 0 113 -21.5t93 -61t63 -92.5t23 -117q0 -51 -15.5 -97t-42 -85.5t-58.5 -71.5t-65 -55l4 43h270v-76h-329l-12 48q40 40 72.5 85.5t51.5 97t19 111.5
q0 48 -15 87.5t-40.5 67.5t-59 43t-72.5 15t-73 -15t-60 -43t-40.5 -67.5t-14.5 -87.5q0 -60 19 -111.5t51.5 -97t71.5 -85.5l-12 -48h-328zM46 0v214h87v-214h-87zM845 0v214h86v-214h-86z" />
    <glyph glyph-name="uni03BC" unicode="&#x3bc;" horiz-adv-x="679" 
d="M301 -13q-33 0 -58 10t-42.5 32t-26 58t-8.5 89v295h50v-276q0 -26 5 -47.5t16.5 -37t30.5 -24t45 -8.5q24 0 48.5 10.5t51 30t54 48.5t53.5 67v-79q-25 -36 -49.5 -66.5t-51.5 -53.5t-55.5 -35.5t-62.5 -12.5zM119 -218v689h66v-336q0 -41 7.5 -81.5t15 -79.5t7.5 -77
v-115h-96zM18 388v83h170v-83h-170zM583 -10q-33 0 -58 14t-38.5 41.5t-13.5 67.5v358h98v-350q0 -26 9.5 -37t24.5 -11q9 0 16.5 2t13.5 5l22 -71q-12 -7 -31.5 -13t-42.5 -6z" />
    <glyph glyph-name="pi" unicode="&#x3c0;" horiz-adv-x="691" 
d="M18 388v83h625v-83h-625zM568 -10q-52 0 -83 32t-31 91v358h99v-350q0 -26 10 -37t27 -11q10 0 17.5 2t12.5 5l23 -71q-13 -7 -32 -13t-43 -6zM119 0v471h99v-471h-99z" />
    <glyph glyph-name="Wgrave" unicode="&#x1e80;" horiz-adv-x="1180" 
d="M3 602v84h336v-84h-336zM333 -14l-232 649h111l189 -567l-33 -82h-35zM348 -14l-23 60l238 625h37l21 -94l-237 -591h-36zM796 -14l-248 588l36 97h36l240 -603l-30 -82h-34zM810 -14l-23 60l187 589h103l-231 -649h-36zM842 602v84h335v-84h-335zM610 765l-223 147
l53 73l198 -182z" />
    <glyph glyph-name="wgrave" unicode="&#x1e81;" horiz-adv-x="884" 
d="M14 391v80h257v-73h-145l-4 -7h-108zM240 -13l-165 436h101l130 -374l-23 -62h-43zM272 -13l-32 49l184 422h28l15 -90l-177 -381h-18zM595 -13l-178 381l25 90h37l178 -409l-20 -62h-42zM627 -13l-36 49l135 391h87l-169 -440h-17zM629 398v73h241v-80h-108l-4 7h-129z
M466 550l-223 147l53 73l198 -182z" />
    <glyph glyph-name="Wacute" unicode="&#x1e82;" horiz-adv-x="1180" 
d="M3 602v84h336v-84h-336zM333 -14l-232 649h111l189 -567l-33 -82h-35zM348 -14l-23 60l238 625h37l21 -94l-237 -591h-36zM796 -14l-248 588l36 97h36l240 -603l-30 -82h-34zM810 -14l-23 60l187 589h103l-231 -649h-36zM842 602v84h335v-84h-335zM568 748l-29 38
l198 182l53 -73z" />
    <glyph glyph-name="wacute" unicode="&#x1e83;" horiz-adv-x="884" 
d="M14 391v80h257v-73h-145l-4 -7h-108zM240 -13l-165 436h101l130 -374l-23 -62h-43zM272 -13l-32 49l184 422h28l15 -90l-177 -381h-18zM595 -13l-178 381l25 90h37l178 -409l-20 -62h-42zM627 -13l-36 49l135 391h87l-169 -440h-17zM629 398v73h241v-80h-108l-4 7h-129z
M425 533l-29 38l198 182l53 -73z" />
    <glyph glyph-name="Wdieresis" unicode="&#x1e84;" horiz-adv-x="1180" 
d="M3 602v84h336v-84h-336zM333 -14l-232 649h111l189 -567l-33 -82h-35zM348 -14l-23 60l238 625h37l21 -94l-237 -591h-36zM796 -14l-248 588l36 97h36l240 -603l-30 -82h-34zM810 -14l-23 60l187 589h103l-231 -649h-36zM842 602v84h335v-84h-335zM697 794
q-28 0 -48 15.5t-20 39.5q0 25 20 41t48 16q29 0 49 -16t20 -41q0 -24 -20 -39.5t-49 -15.5zM478 794q-28 0 -48.5 15.5t-20.5 39.5q0 25 20.5 41t48.5 16q30 0 49 -16t19 -41q0 -24 -19 -39.5t-49 -15.5z" />
    <glyph glyph-name="wdieresis" unicode="&#x1e85;" horiz-adv-x="884" 
d="M14 391v80h257v-73h-145l-4 -7h-108zM240 -13l-165 436h101l130 -374l-23 -62h-43zM272 -13l-32 49l184 422h28l15 -90l-177 -381h-18zM595 -13l-178 381l25 90h37l178 -409l-20 -62h-42zM627 -13l-36 49l135 391h87l-169 -440h-17zM629 398v73h241v-80h-108l-4 7h-129z
M554 579q-28 0 -48 15.5t-20 39.5q0 25 20 41t48 16q29 0 49 -16t20 -41q0 -24 -20 -39.5t-49 -15.5zM335 579q-28 0 -48.5 15.5t-20.5 39.5q0 25 20.5 41t48.5 16q30 0 49 -16t19 -41q0 -24 -19 -39.5t-49 -15.5z" />
    <glyph glyph-name="uni1E9E" unicode="&#x1e9e;" horiz-adv-x="878" 
d="M333 0v227l59 5q32 -56 69 -92t76 -53.5t78 -17.5q34 0 61 13t43 36t16 53q0 21 -10 44t-37.5 47t-78 49.5t-131.5 51.5l269 353l67 -54l-197 -257q69 -26 119.5 -59.5t78 -76.5t27.5 -98t-29.5 -97t-77 -64.5t-103.5 -22.5q-52 0 -96.5 19t-83.5 57.5t-75 98.5l50 -11
v-151h-94zM394 705q53 0 104 -16.5t103 -49t106 -82.5l-57 -63q-31 29 -62.5 51.5t-62.5 39t-63 25t-65 8.5q-69 0 -113.5 -42.5t-44.5 -132.5v-443h-225v84h122v357q0 87 32 145.5t90 88.5t136 30z" />
    <glyph glyph-name="uni1EA8" unicode="&#x1ea8;" horiz-adv-x="851" 
d="M83 18l268 627h146l271 -627h-111l-248 624h22l-248 -624h-100zM4 0v84h325v-84h-325zM238 243l23 75h322l22 -75h-367zM520 0v84h327v-84h-327zM231 603v83h386v-83h-386zM277 753l-32 29l152 176h52l153 -176l-32 -29l-148 124zM565 906q14 22 26 42t12 45t-16 39.5
t-46 14.5q-24 0 -45.5 -8.5t-42.5 -20.5l-22 54q24 16 53.5 26t67.5 10q46 0 80.5 -25.5t34.5 -68.5q0 -37 -19 -66t-47 -58z" />
    <glyph glyph-name="Ygrave" unicode="&#x1ef2;" horiz-adv-x="806" 
d="M374 232l-287 398h121l206 -297l202 296h98l-284 -397h-56zM219 0v84h370v-84h-370zM352 36v267h104v-267h-104zM10 602v84h316v-84h-316zM481 602v84h315v-84h-315zM424 765l-223 147l53 73l198 -182z" />
    <glyph glyph-name="ygrave" unicode="&#x1ef3;" horiz-adv-x="654" 
d="M155 -238q-30 0 -53.5 6.5t-44.5 18t-41 24.5l40 75q19 -13 43.5 -25t55.5 -12q28 0 52.5 12t45.5 37t39 66l214 490h92l-226 -506q-28 -61 -60 -102t-71 -62.5t-86 -21.5zM316 -55l-237 484h109l194 -430zM19 392v79h264v-72h-150l-6 -7h-108zM405 399v72h239v-79h-105
l-5 7h-129zM365 550l-223 147l53 73l198 -182z" />
    <glyph glyph-name="endash" unicode="&#x2013;" horiz-adv-x="578" 
d="M550 278v-84h-521v84h521z" />
    <glyph glyph-name="emdash" unicode="&#x2014;" horiz-adv-x="843" 
d="M814 278v-84h-785v84h785z" />
    <glyph glyph-name="quoteleft" unicode="&#x2018;" horiz-adv-x="305" 
d="M154 453q-41 0 -65 24.5t-24 68.5q0 33 16 68.5t45 72t68 69.5l27 -29q-28 -29 -50 -56t-35 -53t-15 -53q10 3 20.5 5t23.5 2q28 0 48.5 -16.5t20.5 -41.5q0 -28 -23.5 -44.5t-56.5 -16.5z" />
    <glyph glyph-name="quoteright" unicode="&#x2019;" horiz-adv-x="305" 
d="M111 444l-28 29q28 29 50 56t35.5 53.5t14.5 52.5q-9 -3 -19.5 -4.5t-24.5 -1.5q-28 0 -48 16t-20 41q0 28 23 44.5t57 16.5q40 0 64.5 -25t24.5 -69q0 -32 -16 -67.5t-45 -71t-68 -70.5z" />
    <glyph glyph-name="quotesinglbase" unicode="&#x201a;" horiz-adv-x="305" 
d="M111 -197l-28 28q28 29 50 56t35.5 53t14.5 53q-9 -3 -19.5 -4.5t-24.5 -1.5q-28 0 -48 16t-20 41q0 28 23 44.5t57 16.5q40 0 64.5 -24.5t24.5 -68.5q0 -32 -16 -68t-45 -71.5t-68 -69.5z" />
    <glyph glyph-name="quotereversed" unicode="&#x201b;" horiz-adv-x="305" 
d="M194 440q-39 34 -68 69.5t-45 71t-16 67.5q0 45 24 69t65 24q33 0 56.5 -16t23.5 -44q0 -26 -20.5 -42t-48.5 -16q-13 0 -23.5 2.5t-20.5 4.5q2 -27 15 -53t35 -53t50 -57z" />
    <glyph glyph-name="quotedblleft" unicode="&#x201c;" horiz-adv-x="531" 
d="M381 452q-42 0 -66 24.5t-24 68.5q0 33 16 68t45.5 71.5t68.5 69.5l27 -28q-28 -29 -50 -56t-35 -53t-15 -54q10 4 20 5.5t23 1.5q28 0 49 -16t21 -41q0 -28 -23.5 -44.5t-56.5 -16.5zM154 453q-41 0 -65 24.5t-24 68.5q0 33 16 68.5t45 72t68 69.5l27 -29
q-28 -29 -50 -56t-35 -53t-15 -53q10 3 20.5 5t23.5 2q28 0 48.5 -16.5t20.5 -41.5q0 -28 -23.5 -44.5t-56.5 -16.5z" />
    <glyph glyph-name="quotedblright" unicode="&#x201d;" horiz-adv-x="531" 
d="M337 439l-28 28q29 29 51 56t35.5 53.5t13.5 52.5q-8 -3 -18.5 -4.5t-23.5 -1.5q-29 0 -49.5 16.5t-20.5 41.5q0 28 23.5 44.5t56.5 16.5q41 0 65.5 -24.5t24.5 -69.5q0 -33 -16 -68.5t-45.5 -71t-68.5 -69.5zM111 441l-28 28q28 29 50 56t35.5 53.5t14.5 53.5
q-9 -3 -19.5 -5t-24.5 -2q-28 0 -48 16t-20 42q0 27 23 44t57 17q40 0 64.5 -25t24.5 -70q0 -32 -16 -67.5t-45 -71t-68 -69.5z" />
    <glyph glyph-name="quotedblbase" unicode="&#x201e;" horiz-adv-x="531" 
d="M337 -197l-28 28q29 29 51 56t35.5 53t13.5 53q-8 -3 -18.5 -4.5t-23.5 -1.5q-29 0 -49.5 16t-20.5 41q0 28 23.5 44.5t56.5 16.5q41 0 65.5 -24.5t24.5 -68.5q0 -32 -16 -68t-45.5 -71.5t-68.5 -69.5zM111 -195l-28 28q28 29 50 56t35.5 53t14.5 53q-9 -3 -19.5 -5
t-24.5 -2q-28 0 -48 16.5t-20 42.5q0 27 23 44t57 17q40 0 64.5 -24.5t24.5 -70.5q0 -32 -16 -67.5t-45 -71t-68 -69.5z" />
    <glyph glyph-name="dagger" unicode="&#x2020;" horiz-adv-x="524" 
d="M264 160q-25 1 -36 15.5t-11 31.5q0 7 2.5 28.5t6.5 51t8 62t6.5 60t3.5 45.5l3 85h32l3 -85q1 -17 4.5 -45l7.5 -60t8 -62t6.5 -51.5t2.5 -28.5q0 -17 -11 -31.5t-36 -15.5zM79 545q-16 0 -31 11.5t-15 36.5q0 24 15 35.5t31 11.5q12 0 29 -5.5t36.5 -12t37.5 -9.5
l30 -6v-31l-30 -5q-19 -3 -38 -9.5t-36 -11.5t-29 -5zM247 644l-4 31q-3 19 -9.5 37.5t-11.5 36t-5 29.5q0 17 11 31t36 15q25 -1 36 -15t11 -31q0 -12 -5.5 -29.5t-12 -36t-9.5 -37.5l-5 -31h-32zM445 545q-11 0 -28 5t-36 11.5t-38 9.5l-31 5v31l31 6q19 3 38 9.5t36 12
t28 5.5q17 0 32 -11.5t15 -35.5q0 -25 -15 -36.5t-32 -11.5z" />
    <glyph glyph-name="daggerdbl" unicode="&#x2021;" horiz-adv-x="524" 
d="M247 644l-4 31q-3 19 -9.5 37.5t-11.5 36t-5 29.5q0 17 11 31t36 15q25 -1 36 -15t11 -31q0 -12 -5.5 -29.5t-12 -36t-9.5 -37.5l-5 -31h-32zM445 545q-11 0 -28 5t-36 11.5t-38 9.5l-31 5v31l31 6q19 3 38 9.5t36 12t28 5.5q17 0 32 -11.5t15 -35.5q0 -25 -15 -36.5
t-32 -11.5zM264 85q-25 1 -36 15.5t-11 31.5q0 12 5 29t11.5 35.5t9.5 37.5l4 31h32l5 -31q3 -19 9.5 -37.5t12 -35.5t5.5 -29q0 -17 -11 -31.5t-36 -15.5zM79 269q-16 0 -31 11.5t-15 35.5q0 26 15 36.5t31 10.5q12 0 29 -5.5t36 -11.5t38 -9l30 -4v-32l-30 -5
q-18 -3 -37.5 -9.5t-36.5 -12t-29 -5.5zM445 269q-11 0 -28 5.5t-36 12t-38 9.5l-31 5v32l31 4q19 3 38 9t36 11.5t28 5.5q17 0 32 -10.5t15 -36.5q0 -24 -15 -35.5t-32 -11.5zM79 545q-16 0 -31 11.5t-15 36.5q0 24 15 35.5t31 11.5q12 0 29 -5.5t36.5 -12t37.5 -9.5l30 -6
v-31l-30 -5q-19 -3 -38 -9.5t-36 -11.5t-29 -5zM247 375q-1 18 -8 40.5t-7 41.5t7 42t8 39h32q1 -16 8.5 -39t7.5 -42t-7.5 -41.5t-8.5 -40.5h-32z" />
    <glyph glyph-name="bullet" unicode="&#x2022;" horiz-adv-x="426" 
d="M214 219q-38 0 -69.5 14.5t-50 39t-18.5 54.5q0 34 18.5 59.5t50 39.5t69.5 14q60 0 98.5 -31t38.5 -82q0 -30 -18 -54.5t-48.5 -39t-70.5 -14.5z" />
    <glyph glyph-name="ellipsis" unicode="&#x2026;" horiz-adv-x="852" 
d="M710 -13q-34 0 -58.5 19t-24.5 47q0 30 24.5 49t58.5 19q37 0 60 -19t23 -49q0 -28 -23 -47t-60 -19zM142 -13q-34 0 -58.5 19t-24.5 47q0 30 24.5 49t58.5 19q37 0 60 -19t23 -49q0 -28 -23 -47t-60 -19zM426 -13q-34 0 -58.5 19t-24.5 47q0 30 24.5 49t58.5 19
q37 0 60 -19t23 -49q0 -28 -23 -47t-60 -19z" />
    <glyph glyph-name="perthousand" unicode="&#x2030;" horiz-adv-x="1290" 
d="M124 -40l-52 51l730 683l51 -52zM218 317q-45 0 -84.5 21t-64.5 58.5t-25 86.5q0 51 25 88t64.5 57t84.5 20q46 0 84.5 -20.5t62.5 -57.5t24 -88q0 -49 -24 -86.5t-62.5 -58t-84.5 -20.5zM218 391q24 0 45 11.5t33 32t12 47.5t-12 47.5t-33 32t-45 11.5t-45 -11
t-34 -31.5t-13 -47.5t13 -47.5t34 -32.5t45 -12zM673 -21q-45 0 -84.5 20.5t-63.5 58t-24 87.5t24 87.5t63.5 58t84.5 20.5q46 0 85 -21.5t63.5 -59t24.5 -86.5q0 -50 -24.5 -87.5t-63.5 -57.5t-85 -20zM673 53q25 0 45.5 11.5t33.5 32t13 47.5t-13 48t-33.5 33t-45.5 12
q-24 0 -45 -12t-33 -32.5t-12 -47.5t12 -47.5t33 -32.5t45 -12zM1073 -21q-45 0 -84.5 20.5t-63.5 58t-24 87.5t24 87.5t63.5 58t84.5 20.5t84 -21.5t64 -59t25 -86.5q0 -50 -25 -87.5t-64 -57.5t-84 -20zM1073 53q24 0 45 11.5t34 32t13 47.5t-13 48t-34 33t-45 12t-45 -12
t-33.5 -32.5t-12.5 -47.5t12.5 -47.5t33.5 -32.5t45 -12z" />
    <glyph glyph-name="guilsinglleft" unicode="&#x2039;" horiz-adv-x="522" 
d="M103 239v8q75 0 136 -17t107 -49t75.5 -77t42.5 -101l-76 -26q-12 52 -41.5 94t-70.5 71t-92.5 44t-109.5 15h-33v85h33q57 0 108.5 15t93 44t71 70.5t41.5 93.5l75 -26q-13 -56 -42.5 -100.5t-75.5 -76.5t-106.5 -49.5t-135.5 -17.5z" />
    <glyph glyph-name="guilsinglright" unicode="&#x203a;" horiz-adv-x="522" 
d="M135 -23l-77 26q13 56 43 101t75.5 77t106.5 49t135 17v-8q-74 0 -135 17.5t-107 49.5t-75.5 76.5t-42.5 100.5l75 26q13 -52 42 -93.5t70.5 -70.5t92.5 -44t108 -15h35v-85h-33q-57 0 -108.5 -15t-93 -44t-70.5 -71t-41 -94z" />
    <glyph glyph-name="fraction" unicode="&#x2044;" horiz-adv-x="191" 
d="M69 328l168 409l68 -29l-187 -398l-169 -410l-69 29z" />
    <glyph glyph-name="Euro" unicode="&#x20ac;" horiz-adv-x="728" 
d="M435 -13q-68 0 -127.5 23t-103.5 65.5t-69 102t-25 131.5q0 75 24.5 135t66 102.5t94.5 65t110 22.5q62 0 108.5 -21.5t79.5 -57.5t53 -79l-47 14l1 130h84l-1 -190l-51 -3q-23 39 -51 68t-65 45t-88 16q-43 0 -82 -17t-69 -49t-47 -77.5t-17 -103.5q0 -55 16 -100
t46 -77.5t70.5 -49.5t89.5 -17t85.5 12t65.5 33.5t55 48.5l48 -66q-43 -44 -104.5 -75t-149.5 -31zM558 269v-61h-524v61h524zM559 393v-60h-524v60h524z" />
    <glyph glyph-name="uni20BA" unicode="&#x20ba;" horiz-adv-x="704" 
d="M172 634h97v-555h42q40 0 80.5 10t76 34t62.5 65.5t40 104.5l74 -22q-14 -85 -61.5 -146t-117.5 -93t-152 -32h-141v634zM52 187v64l447 211v-63zM54 332v64l448 211v-64z" />
    <glyph glyph-name="uni20BD" unicode="&#x20bd;" horiz-adv-x="714" 
d="M58 314v67h380q40 0 72 8.5t51 29t19 53.5t-19 52.5t-51 28t-72 8.5h-176l-23 -11h-181v84h380q82 0 136.5 -19t81 -54.5t26.5 -87.5q0 -54 -26.5 -89t-81 -52.5t-136.5 -17.5h-380zM58 0v84h368v-84h-368zM187 47v541h98v-541h-98zM58 173v58h482v-58h-482z" />
    <glyph glyph-name="uni2113" unicode="&#x2113;" horiz-adv-x="543" 
d="M235 -13q-50 0 -87 20.5t-57 57.5t-20 87q0 16 2 37t5.5 43.5t8.5 42.5l52 224q17 75 48 127.5t73 80t93 27.5q53 0 86 -22.5t48.5 -61.5t15.5 -89q0 -60 -21 -112t-56 -90t-77.5 -59.5t-85.5 -21.5q-34 0 -56.5 10.5t-38.5 27t-32 31.5l32 59q9 -10 19.5 -22.5
t26.5 -21.5t41 -9q27 0 54.5 16.5t50 46.5t36.5 68.5t14 82.5q0 42 -15.5 64.5t-48.5 22.5q-24 0 -45 -18t-37 -52t-28 -84l-62 -251q-5 -21 -7.5 -41.5t-2.5 -38.5q0 -40 22.5 -67.5t64.5 -27.5q43 0 80.5 17t69.5 43l47 -68q-46 -34 -100 -56.5t-113 -22.5z" />
    <glyph glyph-name="uni2120" unicode="&#x2120;" horiz-adv-x="849" 
d="M225 390q-30 0 -57.5 10.5t-49.5 28t-39 38.5l30 -6v-66h-46v106l31 -1q25 -32 57 -50t69 -18q22 0 37.5 8t15.5 24q0 11 -10 19t-31.5 15.5t-56.5 16.5q-37 9 -61.5 23t-37 32t-12.5 41q0 37 27 59t70 22q45 0 79 -22t56 -56l-27 6v66h45v-103l-28 -1q-20 30 -49.5 48
t-65.5 18q-23 0 -37 -9t-14 -25q0 -10 9 -17.5t28 -14.5t49 -15q54 -14 88 -36.5t34 -61.5q0 -37 -28 -58t-75 -21zM554 392l-144 294h50l124 -251l-13 -43h-17zM355 395v44h139v-44h-139zM403 415v271h48v-271h-48zM355 643v43h94v-43h-94zM638 395v44h140v-44h-140z
M563 392l-9 43l121 251h48l-144 -294h-16zM680 415v271h52v-271h-52zM683 643v43h95v-43h-95z" />
    <glyph glyph-name="trademark" unicode="&#x2122;" horiz-adv-x="863" 
d="M567 392l-145 294h52l124 -251l-13 -43h-18zM110 396v44h154v-44h-154zM160 417v243h53v-243h-53zM35 583v103h303v-103h-46v64h-210v-64h-47zM369 395v44h138v-44h-138zM416 415v271h49v-271h-49zM369 643v43h94v-43h-94zM652 395v44h141v-44h-141zM576 392l-10 43
l122 251h49l-145 -294h-16zM693 415v271h52v-271h-52zM697 643v43h96v-43h-96z" />
    <glyph glyph-name="uni2126" unicode="&#x2126;" horiz-adv-x="977" 
d="M103 0v76h269l4 -43q-33 23 -65 55t-58.5 71.5t-42 85.5t-15.5 97q0 64 23 117t63 92.5t93.5 61t114.5 21.5q60 0 113 -21.5t93 -61t63 -92.5t23 -117q0 -51 -15.5 -97t-42 -85.5t-58.5 -71.5t-65 -55l4 43h270v-76h-329l-12 48q40 40 72.5 85.5t51.5 97t19 111.5
q0 48 -15 87.5t-40.5 67.5t-59 43t-72.5 15t-73 -15t-60 -43t-40.5 -67.5t-14.5 -87.5q0 -60 19 -111.5t51.5 -97t71.5 -85.5l-12 -48h-328zM46 0v214h87v-214h-87zM845 0v214h86v-214h-86z" />
    <glyph glyph-name="estimated" unicode="&#x212e;" horiz-adv-x="746" 
d="M363 -13q-57 0 -113 20.5t-101 61t-72 100.5t-27 139q0 82 28 143t74.5 102t103.5 61.5t116 20.5q64 0 115.5 -24t89 -64.5t57.5 -92t20 -107.5q0 -15 -1.5 -30.5t-4.5 -27.5h-576v72h484q0 39 -13.5 74t-37 62.5t-57.5 43.5t-75 17q-39 0 -79 -15.5t-73 -46t-53 -77.5
t-20 -110q0 -57 18 -102t49.5 -76t71.5 -47.5t83 -16.5t84 11.5t79 34t71 54.5l43 -67q-37 -36 -82 -61.5t-95 -38.5t-107 -13zM144 98v408l97 28v-464zM478 330v234l85 -22v-212h-85z" />
    <glyph glyph-name="partialdiff" unicode="&#x2202;" horiz-adv-x="742" 
d="M287 -30q-74 0 -128 26.5t-83.5 75t-29.5 110.5q0 53 21 95t57.5 72.5t83.5 46.5t98 16q61 0 114.5 -18t100.5 -49t86 -71l-29 -68q-35 36 -74.5 65t-83.5 46t-93 17q-47 0 -86.5 -19t-63 -53.5t-23.5 -78.5q0 -58 37 -95.5t101 -37.5q51 0 101 30.5t91 86t65 132
t24 167.5q0 72 -19 118.5t-53 69t-77 22.5q-48 0 -88 -18t-73 -44l-43 74q26 19 58.5 36t71 28t83.5 11q61 0 115.5 -32t88 -98.5t33.5 -169.5q0 -85 -20 -160t-56.5 -136t-84.5 -105.5t-104.5 -68t-117.5 -23.5z" />
    <glyph glyph-name="uni2206" unicode="&#x2206;" horiz-adv-x="782" 
d="M91 0l275 610h57l267 -610h-599zM223 75h338l-167 409z" />
    <glyph glyph-name="product" unicode="&#x220f;" horiz-adv-x="741" 
d="M166 630v84h412v-84h-412zM515 0v714h85v-714h-85zM141 0v714h85v-714h-85z" />
    <glyph glyph-name="summation" unicode="&#x2211;" horiz-adv-x="717" 
d="M613 -125l-581 -3l-6 21l78 65h509v-83zM613 811v-84h-509l-78 64l6 22zM416 357v-22l-295 -462h-89l-6 20l287 452l-287 446l6 21h91zM520 811h93v-260h-93v260zM520 134h93v-259h-93v259z" />
    <glyph glyph-name="minus" unicode="&#x2212;" horiz-adv-x="600" 
d="M529 353v-84h-458v84h458z" />
    <glyph glyph-name="uni2215" unicode="&#x2215;" horiz-adv-x="503" 
d="M111 -171h-89l361 977h89z" />
    <glyph glyph-name="uni2219" unicode="&#x2219;" horiz-adv-x="426" 
d="M214 219q-38 0 -69.5 14.5t-50 39t-18.5 54.5q0 34 18.5 59.5t50 39.5t69.5 14q60 0 98.5 -31t38.5 -82q0 -30 -18 -54.5t-48.5 -39t-70.5 -14.5z" />
    <glyph glyph-name="radical" unicode="&#x221a;" horiz-adv-x="678" 
d="M388 93l-8 -94h-46l-168 452l86 34zM633 821l-253 -822h-46l-8 94l217 751zM47 325l-28 71l233 89l24 -70z" />
    <glyph glyph-name="infinity" unicode="&#x221e;" horiz-adv-x="1012" 
d="M482 345q34 43 63.5 78t60 60t64 38.5t73.5 13.5q72 0 121 -32.5t74 -82.5t25 -104q0 -38 -15.5 -76.5t-44.5 -70t-69.5 -50.5t-90.5 -19q-60 0 -103.5 23t-80 63.5t-77.5 94.5q-39 52 -70.5 92t-63 62.5t-73.5 22.5q-39 0 -71 -19.5t-50.5 -52t-18.5 -70.5t18 -69.5
t49.5 -50.5t72.5 -19t72 19.5t62.5 57.5t72.5 91zM531 286q-32 -41 -61 -75.5t-59.5 -59t-65 -38t-76.5 -13.5q-54 0 -95.5 19t-69.5 50t-42 69.5t-14 77.5q0 40 15.5 78.5t44.5 70.5t70 50.5t91 18.5q60 0 103.5 -24.5t80 -66t76.5 -91.5q43 -55 76 -94t65.5 -60t74.5 -21
q36 0 65.5 19.5t47.5 51.5t18 68q0 40 -17.5 72t-48 51t-69.5 19t-71 -21t-64.5 -59.5t-74.5 -91.5z" />
    <glyph glyph-name="integral" unicode="&#x222b;" horiz-adv-x="394" 
d="M43 -259q-31 0 -59 6t-53 16.5t-47 22.5l34 77q25 -13 52.5 -24.5t62.5 -11.5q37 0 62.5 17.5t39.5 52.5t14 89v612q0 86 27 141t73.5 81t104.5 26q33 0 59.5 -6t50.5 -16.5t47 -23.5l-35 -77q-24 14 -50.5 25t-60.5 11q-56 0 -87.5 -39t-31.5 -119v-612
q0 -87 -26.5 -142t-72.5 -80.5t-104 -25.5z" />
    <glyph glyph-name="approxequal" unicode="&#x2248;" horiz-adv-x="600" 
d="M413 324q-32 0 -60 12t-61 34q-32 21 -51.5 31t-46.5 10q-30 0 -54 -21t-44 -58l-68 39q17 34 39.5 62t52.5 45t67 17q32 0 60 -12.5t60 -32.5q32 -22 52 -32.5t47 -10.5q30 0 54 21.5t44 58.5l68 -40q-16 -33 -39 -61t-52.5 -45t-67.5 -17zM413 115q-32 0 -60 12t-61 33
q-32 23 -51.5 33t-46.5 10q-30 0 -54 -21.5t-44 -59.5l-68 41q17 33 39.5 61t52.5 45t67 17q32 0 60 -12t60 -33t52 -32t47 -11q30 0 54 21.5t44 59.5l68 -41q-16 -33 -39 -61t-52.5 -45t-67.5 -17z" />
    <glyph glyph-name="notequal" unicode="&#x2260;" horiz-adv-x="600" 
d="M130 79l257 463h81l-256 -463h-82zM71 175v84h458v-84h-458zM71 361v84h458v-84h-458z" />
    <glyph glyph-name="lessequal" unicode="&#x2264;" horiz-adv-x="600" 
d="M90 39v85h429v-85h-429zM500 215l-413 225v23l64 25l349 -177v-96zM151 416l-64 24v23l413 226v-95z" />
    <glyph glyph-name="greaterequal" unicode="&#x2265;" horiz-adv-x="600" 
d="M100 215v96l349 178l62 -24v-25zM81 39v85h428v-85h-428zM449 417l-349 177v95l411 -224v-25z" />
    <glyph glyph-name="lozenge" unicode="&#x25ca;" horiz-adv-x="828" 
d="M386 -99l-221 415l228 412h56l215 -412l-222 -415h-56zM413 12l155 304l-149 301l-158 -302z" />
    <glyph glyph-name="happy" unicode="&#x1f60a;" horiz-adv-x="1022" 
d="M510 -218q-97 0 -181.5 33.5t-148.5 94t-100 143t-36 180.5q0 99 36 181.5t100 143.5t148.5 94t181.5 33q99 0 184 -33t148.5 -94t99.5 -143.5t36 -181.5q0 -98 -36 -180.5t-99.5 -143t-148.5 -94t-184 -33.5zM510 -32q-45 0 -88 16t-81 48l7 31q41 -22 79 -32t83 -10
q47 0 85 10t78 32l8 -31q-38 -32 -81 -48t-90 -16zM334 157q-24 0 -40.5 16.5t-16.5 40.5q0 23 16.5 39.5t40.5 16.5q23 0 39.5 -16.5t16.5 -39.5q0 -24 -16.5 -40.5t-39.5 -16.5zM247 341l-15 34q25 23 52 38t58.5 25t65.5 14l15 -66q-29 0 -58.5 -5t-59 -14.5t-58.5 -25.5
zM510 -163q86 0 159.5 30t128.5 83.5t85.5 125.5t29.5 157q1 86 -29.5 158t-85.5 126t-128.5 83.5t-159.5 29.5q-85 0 -158.5 -29.5t-128 -83.5t-85.5 -126t-31 -158q0 -85 31 -157t85.5 -125.5t128 -83.5t158.5 -30zM690 157q-24 0 -40.5 16.5t-16.5 40.5q0 23 16.5 39.5
t40.5 16.5t40 -16.5t16 -39.5q0 -24 -16 -40.5t-40 -16.5zM771 341q-28 16 -57.5 25.5t-59.5 14.5t-60 5l17 66q34 -4 65 -14t59 -25t51 -38z" />
    <glyph glyph-name="neutral" unicode="&#x1f610;" horiz-adv-x="1022" 
d="M510 -218q-97 0 -181.5 33.5t-148.5 94t-100 143t-36 180.5q0 99 36 181.5t100 143.5t148.5 94t181.5 33q99 0 184 -33t148.5 -94t99.5 -143.5t36 -181.5q0 -98 -36 -180.5t-99.5 -143t-148.5 -94t-184 -33.5zM510 -6q-30 0 -57 1.5t-54 4.5t-58 6v30q31 4 58 6t54 3.5
t57 1.5q31 0 58.5 -1.5t54.5 -3.5t58 -6v-30q-31 -3 -58 -6t-54.5 -4.5t-58.5 -1.5zM334 157q-24 0 -40.5 16.5t-16.5 40.5q0 23 16.5 39.5t40.5 16.5q23 0 39.5 -16.5t16.5 -39.5q0 -24 -16.5 -40.5t-39.5 -16.5zM246 357l-9 35q28 18 58 28.5t62 14.5t67 2l3 -67
q-28 4 -58.5 4.5t-61 -3.5t-61.5 -14zM510 -163q86 0 159.5 30t128.5 83.5t85.5 125.5t29.5 157q1 86 -29.5 158t-85.5 126t-128.5 83.5t-159.5 29.5q-85 0 -158.5 -29.5t-128 -83.5t-85.5 -126t-31 -158q0 -85 31 -157t85.5 -125.5t128 -83.5t158.5 -30zM690 157
q-24 0 -40.5 16.5t-16.5 40.5q0 23 16.5 39.5t40.5 16.5t40 -16.5t16 -39.5q0 -24 -16 -40.5t-40 -16.5zM772 357q-31 10 -61.5 14t-60.5 3.5t-59 -4.5l4 67q35 2 66.5 -2t62 -14.5t57.5 -28.5z" />
    <glyph glyph-name="sad" unicode="&#x1f61e;" horiz-adv-x="1022" 
d="M510 -218q-97 0 -181.5 33.5t-148.5 94t-100 143t-36 180.5q0 99 36 181.5t100 143.5t148.5 94t181.5 33q99 0 184 -33t148.5 -94t99.5 -143.5t36 -181.5q0 -98 -36 -180.5t-99.5 -143t-148.5 -94t-184 -33.5zM510 68q47 0 90 -15.5t81 -47.5l-8 -32q-40 22 -78 32
t-85 10q-45 0 -83 -10t-79 -32l-7 32q38 32 81 47.5t88 15.5zM334 157q-24 0 -40.5 16.5t-16.5 40.5q0 23 16.5 39.5t40.5 16.5q23 0 39.5 -16.5t16.5 -39.5q0 -24 -16.5 -40.5t-39.5 -16.5zM510 -163q86 0 159.5 30t128.5 83.5t85.5 125.5t29.5 157q1 86 -29.5 158
t-85.5 126t-128.5 83.5t-159.5 29.5q-85 0 -158.5 -29.5t-128 -83.5t-85.5 -126t-31 -158q0 -85 31 -157t85.5 -125.5t128 -83.5t158.5 -30zM690 157q-24 0 -40.5 16.5t-16.5 40.5q0 23 16.5 39.5t40.5 16.5t40 -16.5t16 -39.5q0 -24 -16 -40.5t-40 -16.5zM247 341l-15 34
q25 23 52 38t58.5 25t65.5 14l15 -66q-29 0 -58.5 -5t-59 -14.5t-58.5 -25.5zM771 341q-28 16 -57.5 25.5t-59.5 14.5t-60 5l17 66q34 -4 65 -14t59 -25t51 -38z" />
    <glyph glyph-name="angry" unicode="&#x1f620;" horiz-adv-x="1022" 
d="M510 -218q-97 0 -181.5 33.5t-148.5 94t-100 143t-36 180.5q0 99 36 181.5t100 143.5t148.5 94t181.5 33q99 0 184 -33t148.5 -94t99.5 -143.5t36 -181.5q0 -98 -36 -180.5t-99.5 -143t-148.5 -94t-184 -33.5zM510 68q47 0 90 -15.5t81 -47.5l-8 -32q-40 22 -78 32
t-85 10q-45 0 -83 -10t-79 -32l-7 32q38 32 81 47.5t88 15.5zM334 157q-24 0 -40.5 16.5t-16.5 40.5q0 23 16.5 39.5t40.5 16.5q23 0 39.5 -16.5t16.5 -39.5q0 -24 -16.5 -40.5t-39.5 -16.5zM510 -163q86 0 159.5 30t128.5 83.5t85.5 125.5t29.5 157q1 86 -29.5 158
t-85.5 126t-128.5 83.5t-159.5 29.5q-85 0 -158.5 -29.5t-128 -83.5t-85.5 -126t-31 -158q0 -85 31 -157t85.5 -125.5t128 -83.5t158.5 -30zM690 157q-24 0 -40.5 16.5t-16.5 40.5q0 23 16.5 39.5t40.5 16.5t40 -16.5t16 -39.5q0 -24 -16 -40.5t-40 -16.5zM247 460
q29 -14 58.5 -24t59 -14.5t58.5 -6.5l-15 -64q-52 6 -95.5 24t-80.5 51zM771 460l15 -34q-35 -33 -79.5 -51t-95.5 -24l-17 64q30 2 60 6.5t59.5 14.5t57.5 24z" />
    <glyph glyph-name="disgusted" unicode="&#x1f621;" horiz-adv-x="1022" 
d="M510 -218q-97 0 -181.5 33.5t-148.5 94t-100 143t-36 180.5q0 99 36 181.5t100 143.5t148.5 94t181.5 33q99 0 184 -33t148.5 -94t99.5 -143.5t36 -181.5q0 -98 -36 -180.5t-99.5 -143t-148.5 -94t-184 -33.5zM334 150q-26 0 -44.5 18.5t-18.5 45.5q0 26 18.5 44.5
t44.5 18.5q25 0 43.5 -18.5t18.5 -44.5q0 -27 -18.5 -45.5t-43.5 -18.5zM241 372l-3 38q31 12 62 16.5t63.5 3t65.5 -8.5l-7 -68q-28 9 -58 15t-60.5 7t-62.5 -3zM510 -163q86 0 159.5 30t128.5 83.5t85.5 125.5t29.5 157q1 86 -29.5 158t-85.5 126t-128.5 83.5t-159.5 29.5
q-85 0 -158.5 -29.5t-128 -83.5t-85.5 -126t-31 -158q0 -85 31 -157t85.5 -125.5t128 -83.5t158.5 -30zM690 150q-26 0 -45 18.5t-19 45.5q0 26 19 44.5t45 18.5t44.5 -18.5t18.5 -44.5q0 -27 -18.5 -45.5t-44.5 -18.5zM750 326q-25 21 -51.5 36t-54 26.5t-56.5 19.5l29 60
q32 -11 60 -27t52.5 -36.5t42.5 -47.5zM484 68q31 0 67 -7t70.5 -21t59.5 -35l-8 -32q-27 15 -59 24t-65.5 13.5t-64.5 4.5q-45 0 -79.5 -10t-56.5 -32l-7 32q12 21 34 35t50.5 21t58.5 7z" />
    <glyph glyph-name="afraid" unicode="&#x1f628;" horiz-adv-x="1022" 
d="M510 -218q-97 0 -181.5 33.5t-148.5 94t-100 143t-36 180.5q0 99 36 181.5t100 143.5t148.5 94t181.5 33q99 0 184 -33t148.5 -94t99.5 -143.5t36 -181.5q0 -98 -36 -180.5t-99.5 -143t-148.5 -94t-184 -33.5zM510 -6q-30 0 -57 1.5t-54 4.5t-58 6v30q31 4 58 6t54 3.5
t57 1.5q31 0 58.5 -1.5t54.5 -3.5t58 -6v-30q-31 -3 -58 -6t-54.5 -4.5t-58.5 -1.5zM334 157q-24 0 -40.5 16.5t-16.5 40.5q0 23 16.5 39.5t40.5 16.5q23 0 39.5 -16.5t16.5 -39.5q0 -24 -16.5 -40.5t-39.5 -16.5zM510 -163q86 0 159.5 30t128.5 83.5t85.5 125.5t29.5 157
q1 86 -29.5 158t-85.5 126t-128.5 83.5t-159.5 29.5q-85 0 -158.5 -29.5t-128 -83.5t-85.5 -126t-31 -158q0 -85 31 -157t85.5 -125.5t128 -83.5t158.5 -30zM690 157q-24 0 -40.5 16.5t-16.5 40.5q0 23 16.5 39.5t40.5 16.5t40 -16.5t16 -39.5q0 -24 -16 -40.5t-40 -16.5z
M255 342l-15 35q23 22 51 37t59 24.5t65 13.5l16 -64q-29 -1 -58.5 -6.5t-59 -15t-58.5 -24.5zM763 341q-28 16 -57.5 25.5t-59 15t-59.5 6.5l16 64q35 -4 65.5 -13.5t58.5 -24.5t52 -37z" />
    <glyph glyph-name="surprised" unicode="&#x1f632;" horiz-adv-x="1022" 
d="M510 -218q-97 0 -181.5 33.5t-148.5 94t-100 143t-36 180.5q0 99 36 181.5t100 143.5t148.5 94t181.5 33q99 0 184 -33t148.5 -94t99.5 -143.5t36 -181.5q0 -98 -36 -180.5t-99.5 -143t-148.5 -94t-184 -33.5zM334 152q-26 0 -44 18t-18 44q0 25 18 43t44 18q25 0 43 -18
t18 -43q0 -26 -18 -44t-43 -18zM255 342l-15 35q23 22 51 37t59 24.5t65 13.5l16 -64q-29 -1 -58.5 -6.5t-59 -15t-58.5 -24.5zM510 -163q86 0 159.5 30t128.5 83.5t85.5 125.5t29.5 157q1 86 -29.5 158t-85.5 126t-128.5 83.5t-159.5 29.5q-85 0 -158.5 -29.5t-128 -83.5
t-85.5 -126t-31 -158q0 -85 31 -157t85.5 -125.5t128 -83.5t158.5 -30zM690 152q-25 0 -43.5 18t-18.5 44q0 25 18.5 43t43.5 18t43 -18t18 -43q0 -26 -18 -44t-43 -18zM763 341q-28 16 -57.5 25.5t-59 15t-59.5 6.5l16 64q35 -4 65.5 -13.5t58.5 -24.5t52 -37zM510 -56
q-18 0 -26.5 15.5t-18.5 44.5v20q10 28 18.5 43.5t26.5 15.5q20 0 28.5 -15.5t18.5 -43.5v-20q-10 -29 -18.5 -44.5t-28.5 -15.5z" />
    <glyph glyph-name="A.alt" horiz-adv-x="887" 
d="M469 700l339 -682h-116l-275 593h48l-275 -593h-110l339 682h50zM547 0v84h333v-84h-333zM7 0v84h333v-84h-333zM622 225h-362l23 77h317z" />
    <glyph glyph-name="Aacute.alt" horiz-adv-x="887" 
d="M469 700l339 -682h-116l-275 593h48l-275 -593h-110l339 682h50zM547 0v84h333v-84h-333zM7 0v84h333v-84h-333zM622 225h-362l23 77h317zM420 763l-29 38l198 182l53 -73z" />
    <glyph glyph-name="Abreve.alt" horiz-adv-x="887" 
d="M469 700l339 -682h-116l-275 593h48l-275 -593h-110l339 682h50zM547 0v84h333v-84h-333zM7 0v84h333v-84h-333zM622 225h-362l23 77h317zM442 784q-55 0 -94.5 24.5t-62 62.5t-25.5 77l61 12q7 -26 24 -47.5t41.5 -33.5t55.5 -12q30 0 54.5 12t41.5 33.5t24 47.5l61 -12
q-4 -39 -26 -77t-61 -62.5t-94 -24.5z" />
    <glyph glyph-name="Acircumflex.alt" horiz-adv-x="887" 
d="M469 700l339 -682h-116l-275 593h48l-275 -593h-110l339 682h50zM547 0v84h333v-84h-333zM7 0v84h333v-84h-333zM622 225h-362l23 77h317zM296 767l-32 29l152 176h52l153 -176l-32 -29l-148 124z" />
    <glyph glyph-name="uni1EA8.alt" horiz-adv-x="887" 
d="M469 700l339 -682h-116l-275 593h48l-275 -593h-110l339 682h50zM547 0v84h333v-84h-333zM7 0v84h333v-84h-333zM622 225h-362l23 77h317zM296 767l-32 29l152 176h52l153 -176l-32 -29l-148 124zM592 915q14 22 26 42t12 45t-16 39.5t-46 14.5q-24 0 -45.5 -8.5
t-42.5 -20.5l-22 54q24 16 53.5 26t67.5 10q46 0 80.5 -25.5t34.5 -68.5q0 -37 -19 -66t-47 -58z" />
    <glyph glyph-name="Adieresis.alt" horiz-adv-x="887" 
d="M469 700l339 -682h-116l-275 593h48l-275 -593h-110l339 682h50zM547 0v84h333v-84h-333zM7 0v84h333v-84h-333zM622 225h-362l23 77h317zM550 808q-28 0 -48 15.5t-20 39.5q0 25 20 41t48 16q29 0 49 -16t20 -41q0 -24 -20 -39.5t-49 -15.5zM331 808q-28 0 -48.5 15.5
t-20.5 39.5q0 25 20.5 41t48.5 16q30 0 49 -16t19 -41q0 -24 -19 -39.5t-49 -15.5z" />
    <glyph glyph-name="Agrave.alt" horiz-adv-x="887" 
d="M469 700l339 -682h-116l-275 593h48l-275 -593h-110l339 682h50zM547 0v84h333v-84h-333zM7 0v84h333v-84h-333zM622 225h-362l23 77h317zM462 779l-223 147l53 73l198 -182z" />
    <glyph glyph-name="Amacron.alt" horiz-adv-x="887" 
d="M469 700l339 -682h-116l-275 593h48l-275 -593h-110l339 682h50zM547 0v84h333v-84h-333zM7 0v84h333v-84h-333zM622 225h-362l23 77h317zM628 877v-72h-380v72h380z" />
    <glyph glyph-name="Aogonek.alt" horiz-adv-x="887" 
d="M469 700l339 -682h-116l-275 593h48l-275 -593h-110l339 682h50zM547 0v84h333v-84h-333zM7 0v84h333v-84h-333zM622 225h-362l23 77h317zM681 -274q-29 0 -56.5 12t-44.5 36t-17 59q0 38 21 72t55 61.5t72 46.5l56 -5q-69 -40 -99.5 -79.5t-30.5 -71.5q0 -29 17.5 -44
t40.5 -15q22 0 40 11t32 27l33 -51q-21 -24 -52 -41.5t-67 -17.5z" />
    <glyph glyph-name="Aring.alt" horiz-adv-x="887" 
d="M469 700l339 -682h-116l-275 593h48l-275 -593h-110l339 682h50zM547 0v84h333v-84h-333zM7 0v84h333v-84h-333zM622 225h-362l23 77h317zM441 765q-38 0 -70.5 18.5t-52.5 50.5t-20 71q0 42 20 73t52.5 48.5t70.5 17.5q40 0 72 -18t51.5 -49.5t19.5 -72.5
q0 -40 -19.5 -72t-51.5 -49.5t-72 -17.5zM441 819q36 0 60.5 25t24.5 60q0 36 -24.5 61t-60.5 25q-35 0 -60 -24t-25 -61q0 -23 11.5 -42.5t31 -31.5t42.5 -12z" />
    <glyph glyph-name="Atilde.alt" horiz-adv-x="887" 
d="M469 700l339 -682h-116l-275 593h48l-275 -593h-110l339 682h50zM547 0v84h333v-84h-333zM7 0v84h333v-84h-333zM622 225h-362l23 77h317zM527 774q-37 0 -62 20t-48 47q-22 27 -37 40.5t-35 13.5q-27 0 -40.5 -27.5t-16.5 -78.5l-59 6q2 45 15 80.5t38.5 56.5t62.5 21
q39 0 64 -19.5t48 -47.5q21 -26 36 -39.5t34 -13.5q18 0 30 12.5t19 35.5t9 56l59 -5q-1 -44 -15 -80t-39.5 -57t-62.5 -21z" />
    <glyph glyph-name="G.alt" horiz-adv-x="793" 
d="M398 -14q-73 0 -136.5 26t-111.5 74t-75 113.5t-27 143.5q0 79 27 144t73.5 113t107.5 74t129 26q72 0 127 -22.5t94 -58.5t61 -78l-44 13v132h92v-214l-66 -4q-21 40 -54.5 73.5t-79.5 54t-107 20.5q-52 0 -97.5 -20t-80.5 -56.5t-54.5 -86.5t-19.5 -110t18.5 -110
t51.5 -86.5t78 -56.5t97 -20q70 0 121 28t79 73t29 95h-229v83h335v-27q0 -47 -13.5 -95.5t-40.5 -91.5t-68 -76.5t-95 -53t-121 -19.5z" />
    <glyph glyph-name="Gbreve.alt" horiz-adv-x="793" 
d="M398 -14q-73 0 -136.5 26t-111.5 74t-75 113.5t-27 143.5q0 79 27 144t73.5 113t107.5 74t129 26q72 0 127 -22.5t94 -58.5t61 -78l-44 13v132h92v-214l-66 -4q-21 40 -54.5 73.5t-79.5 54t-107 20.5q-52 0 -97.5 -20t-80.5 -56.5t-54.5 -86.5t-19.5 -110t18.5 -110
t51.5 -86.5t78 -56.5t97 -20q70 0 121 28t79 73t29 95h-229v83h335v-27q0 -47 -13.5 -95.5t-40.5 -91.5t-68 -76.5t-95 -53t-121 -19.5zM404 784q-55 0 -94.5 24.5t-62 62.5t-25.5 77l61 12q7 -26 24 -47.5t41.5 -33.5t55.5 -12q30 0 54.5 12t41.5 33.5t24 47.5l61 -12
q-4 -39 -26 -77t-61 -62.5t-94 -24.5z" />
    <glyph glyph-name="uni0122.alt" horiz-adv-x="793" 
d="M398 -14q-73 0 -136.5 26t-111.5 74t-75 113.5t-27 143.5q0 79 27 144t73.5 113t107.5 74t129 26q72 0 127 -22.5t94 -58.5t61 -78l-44 13v132h92v-214l-66 -4q-21 40 -54.5 73.5t-79.5 54t-107 20.5q-52 0 -97.5 -20t-80.5 -56.5t-54.5 -86.5t-19.5 -110t18.5 -110
t51.5 -86.5t78 -56.5t97 -20q70 0 121 28t79 73t29 95h-229v83h335v-27q0 -47 -13.5 -95.5t-40.5 -91.5t-68 -76.5t-95 -53t-121 -19.5zM481 -199q0 -42 -29 -88t-74 -83l-24 26q36 34 56 67.5t21 61.5q-9 -5 -18 -6t-21 -1q-24 0 -41.5 14t-17.5 37q0 24 20.5 40.5
t48.5 16.5q35 0 57 -22.5t22 -62.5z" />
    <glyph glyph-name="Gdotaccent.alt" horiz-adv-x="793" 
d="M398 -14q-73 0 -136.5 26t-111.5 74t-75 113.5t-27 143.5q0 79 27 144t73.5 113t107.5 74t129 26q72 0 127 -22.5t94 -58.5t61 -78l-44 13v132h92v-214l-66 -4q-21 40 -54.5 73.5t-79.5 54t-107 20.5q-52 0 -97.5 -20t-80.5 -56.5t-54.5 -86.5t-19.5 -110t18.5 -110
t51.5 -86.5t78 -56.5t97 -20q70 0 121 28t79 73t29 95h-229v83h335v-27q0 -47 -13.5 -95.5t-40.5 -91.5t-68 -76.5t-95 -53t-121 -19.5zM403 803q-31 0 -53.5 17t-22.5 42q0 28 22.5 45.5t53.5 17.5q35 0 57 -17.5t22 -45.5q0 -25 -22 -42t-57 -17z" />
    <glyph glyph-name="Q.swsh" horiz-adv-x="823" 
d="M1073 -257q-58 0 -113.5 17t-112 52.5t-118 92.5t-131.5 136q-62 70 -111 116.5t-96 73.5t-102 38t-128 11h-49v77h47q71 0 127 -8.5t104 -27t93.5 -50.5t94 -79t106.5 -113q57 -65 106 -112.5t95 -77.5t92.5 -45t95.5 -15q41 0 77 8t68 22.5t59 33.5l41 -72
q-30 -21 -68 -38.5t-82 -28.5t-95 -11zM408 -13q-76 0 -141 26t-113.5 73.5t-75.5 112.5t-27 144t27 144.5t75.5 113t113.5 73.5t141 26q75 0 139.5 -26t112.5 -73.5t75.5 -113t27.5 -144.5t-27.5 -144t-75.5 -112.5t-112.5 -73.5t-139.5 -26zM407 70q56 0 102 20t79.5 56.5
t51.5 86.5t18 110q0 61 -18 111t-51.5 86.5t-79.5 56.5t-102 20t-102.5 -20t-79.5 -56.5t-51 -87t-18 -110.5t18 -110t51 -86.5t79.5 -56.5t102.5 -20z" />
    <glyph glyph-name="R.swsh" horiz-adv-x="786" 
d="M1066 -264q-66 0 -124.5 15.5t-114 50t-110 92.5t-112.5 143q-53 76 -90 126.5t-64 79t-51.5 40.5t-54.5 12h-78v22h141q39 0 72 -12t65 -39t68.5 -73t82.5 -115q64 -96 123 -152.5t119 -80t128 -23.5q36 0 70 5.5t65 15.5t59 24t52 31l43 -69q-28 -21 -60 -38
t-67.5 -29.5t-75.5 -19t-86 -6.5zM36 0v83h362v-83h-362zM165 47v591h104v-591h-104zM235 295v80h228q41 0 75 12t54 38t20 65q0 37 -19.5 62t-53 37.5t-76.5 12.5h-427v84h432q81 0 136 -25.5t82.5 -69.5t27.5 -101q0 -49 -27.5 -94t-82 -73t-136.5 -28h-233z" />
    <glyph glyph-name="Racute.swsh" horiz-adv-x="786" 
d="M1066 -264q-66 0 -124.5 15.5t-114 50t-110 92.5t-112.5 143q-53 76 -90 126.5t-64 79t-51.5 40.5t-54.5 12h-78v22h141q39 0 72 -12t65 -39t68.5 -73t82.5 -115q64 -96 123 -152.5t119 -80t128 -23.5q36 0 70 5.5t65 15.5t59 24t52 31l43 -69q-28 -21 -60 -38
t-67.5 -29.5t-75.5 -19t-86 -6.5zM36 0v83h362v-83h-362zM165 47v591h104v-591h-104zM235 295v80h228q41 0 75 12t54 38t20 65q0 37 -19.5 62t-53 37.5t-76.5 12.5h-427v84h432q81 0 136 -25.5t82.5 -69.5t27.5 -101q0 -49 -27.5 -94t-82 -73t-136.5 -28h-233zM391 748
l-29 38l198 182l53 -73z" />
    <glyph glyph-name="Rcaron.swsh" horiz-adv-x="786" 
d="M1066 -264q-66 0 -124.5 15.5t-114 50t-110 92.5t-112.5 143q-53 76 -90 126.5t-64 79t-51.5 40.5t-54.5 12h-78v22h141q39 0 72 -12t65 -39t68.5 -73t82.5 -115q64 -96 123 -152.5t119 -80t128 -23.5q36 0 70 5.5t65 15.5t59 24t52 31l43 -69q-28 -21 -60 -38
t-67.5 -29.5t-75.5 -19t-86 -6.5zM36 0v83h362v-83h-362zM165 47v591h104v-591h-104zM235 295v80h228q41 0 75 12t54 38t20 65q0 37 -19.5 62t-53 37.5t-76.5 12.5h-427v84h432q81 0 136 -25.5t82.5 -69.5t27.5 -101q0 -49 -27.5 -94t-82 -73t-136.5 -28h-233zM559 969
l32 -31l-153 -176h-52l-152 176l32 31l146 -125z" />
    <glyph glyph-name="uni0156.swsh" horiz-adv-x="786" 
d="M1066 -264q-66 0 -124.5 15.5t-114 50t-110 92.5t-112.5 143q-53 76 -90 126.5t-64 79t-51.5 40.5t-54.5 12h-78v22h141q39 0 72 -12t65 -39t68.5 -73t82.5 -115q64 -96 123 -152.5t119 -80t128 -23.5q36 0 70 5.5t65 15.5t59 24t52 31l43 -69q-28 -21 -60 -38
t-67.5 -29.5t-75.5 -19t-86 -6.5zM36 0v83h362v-83h-362zM165 47v591h104v-591h-104zM235 295v80h228q41 0 75 12t54 38t20 65q0 37 -19.5 62t-53 37.5t-76.5 12.5h-427v84h432q81 0 136 -25.5t82.5 -69.5t27.5 -101q0 -49 -27.5 -94t-82 -73t-136.5 -28h-233zM537 -185
q0 -42 -29 -88t-74 -83l-24 26q36 34 56 67.5t21 61.5q-9 -5 -18 -6t-21 -1q-24 0 -41.5 14t-17.5 37q0 24 20.5 40.5t48.5 16.5q35 0 57 -22.5t22 -62.5z" />
    <glyph glyph-name="i.loclTRK" horiz-adv-x="355" 
d="M135 22v449h99v-449h-99zM29 0v79h312v-79h-312zM29 392v79h182v-79h-182zM172 574q-31 0 -53.5 17t-22.5 42q0 28 22.5 45.5t53.5 17.5q35 0 57 -17.5t22 -45.5q0 -25 -22 -42t-57 -17z" />
    <glyph glyph-name="a.alt" horiz-adv-x="629" 
d="M519 -8q-34 0 -59 14.5t-38.5 40.5t-13.5 60v194q0 36 -15 57.5t-40.5 31.5t-58.5 10q-51 0 -95.5 -13.5t-94.5 -34.5l-22 78q38 16 73 28t71 18.5t75 6.5q62 0 107 -21t69.5 -62t24.5 -103v-191q0 -20 9 -33t26 -13t25.5 13.5t8.5 31.5v50h55v-49q0 -36 -14 -61t-38 -39
t-55 -14zM214 -14q-44 0 -82 17t-60.5 50.5t-22.5 82.5q0 50 28.5 84.5t73.5 52t96 17.5q59 0 103 -13.5t91 -33.5v-64q-53 23 -96.5 30.5t-80.5 7.5q-31 1 -57.5 -8t-43.5 -26t-17 -44q0 -23 13.5 -39t35 -23.5t46.5 -7.5q26 0 58.5 10.5t68.5 32.5t73 55l-2 -68
q-34 -34 -71.5 -59.5t-76 -39.5t-77.5 -14z" />
    <glyph glyph-name="aacute.alt" horiz-adv-x="629" 
d="M519 -8q-34 0 -59 14.5t-38.5 40.5t-13.5 60v194q0 36 -15 57.5t-40.5 31.5t-58.5 10q-51 0 -95.5 -13.5t-94.5 -34.5l-22 78q38 16 73 28t71 18.5t75 6.5q62 0 107 -21t69.5 -62t24.5 -103v-191q0 -20 9 -33t26 -13t25.5 13.5t8.5 31.5v50h55v-49q0 -36 -14 -61t-38 -39
t-55 -14zM214 -14q-44 0 -82 17t-60.5 50.5t-22.5 82.5q0 50 28.5 84.5t73.5 52t96 17.5q59 0 103 -13.5t91 -33.5v-64q-53 23 -96.5 30.5t-80.5 7.5q-31 1 -57.5 -8t-43.5 -26t-17 -44q0 -23 13.5 -39t35 -23.5t46.5 -7.5q26 0 58.5 10.5t68.5 32.5t73 55l-2 -68
q-34 -34 -71.5 -59.5t-76 -39.5t-77.5 -14zM273 546l-29 38l198 182l53 -73z" />
    <glyph glyph-name="abreve.alt" horiz-adv-x="629" 
d="M519 -8q-34 0 -59 14.5t-38.5 40.5t-13.5 60v194q0 36 -15 57.5t-40.5 31.5t-58.5 10q-51 0 -95.5 -13.5t-94.5 -34.5l-22 78q38 16 73 28t71 18.5t75 6.5q62 0 107 -21t69.5 -62t24.5 -103v-191q0 -20 9 -33t26 -13t25.5 13.5t8.5 31.5v50h55v-49q0 -36 -14 -61t-38 -39
t-55 -14zM214 -14q-44 0 -82 17t-60.5 50.5t-22.5 82.5q0 50 28.5 84.5t73.5 52t96 17.5q59 0 103 -13.5t91 -33.5v-64q-53 23 -96.5 30.5t-80.5 7.5q-31 1 -57.5 -8t-43.5 -26t-17 -44q0 -23 13.5 -39t35 -23.5t46.5 -7.5q26 0 58.5 10.5t68.5 32.5t73 55l-2 -68
q-34 -34 -71.5 -59.5t-76 -39.5t-77.5 -14zM294 568q-55 0 -94.5 24.5t-62 62.5t-25.5 77l61 12q7 -26 24 -47.5t41.5 -33.5t55.5 -12q30 0 54.5 12t41.5 33.5t24 47.5l61 -12q-4 -39 -26 -77t-61 -62.5t-94 -24.5z" />
    <glyph glyph-name="acircumflex.alt" horiz-adv-x="629" 
d="M519 -8q-34 0 -59 14.5t-38.5 40.5t-13.5 60v194q0 36 -15 57.5t-40.5 31.5t-58.5 10q-51 0 -95.5 -13.5t-94.5 -34.5l-22 78q38 16 73 28t71 18.5t75 6.5q62 0 107 -21t69.5 -62t24.5 -103v-191q0 -20 9 -33t26 -13t25.5 13.5t8.5 31.5v50h55v-49q0 -36 -14 -61t-38 -39
t-55 -14zM214 -14q-44 0 -82 17t-60.5 50.5t-22.5 82.5q0 50 28.5 84.5t73.5 52t96 17.5q59 0 103 -13.5t91 -33.5v-64q-53 23 -96.5 30.5t-80.5 7.5q-31 1 -57.5 -8t-43.5 -26t-17 -44q0 -23 13.5 -39t35 -23.5t46.5 -7.5q26 0 58.5 10.5t68.5 32.5t73 55l-2 -68
q-34 -34 -71.5 -59.5t-76 -39.5t-77.5 -14zM148 551l-32 29l152 176h52l153 -176l-32 -29l-148 124z" />
    <glyph glyph-name="adieresis.alt" horiz-adv-x="629" 
d="M519 -8q-34 0 -59 14.5t-38.5 40.5t-13.5 60v194q0 36 -15 57.5t-40.5 31.5t-58.5 10q-51 0 -95.5 -13.5t-94.5 -34.5l-22 78q38 16 73 28t71 18.5t75 6.5q62 0 107 -21t69.5 -62t24.5 -103v-191q0 -20 9 -33t26 -13t25.5 13.5t8.5 31.5v50h55v-49q0 -36 -14 -61t-38 -39
t-55 -14zM214 -14q-44 0 -82 17t-60.5 50.5t-22.5 82.5q0 50 28.5 84.5t73.5 52t96 17.5q59 0 103 -13.5t91 -33.5v-64q-53 23 -96.5 30.5t-80.5 7.5q-31 1 -57.5 -8t-43.5 -26t-17 -44q0 -23 13.5 -39t35 -23.5t46.5 -7.5q26 0 58.5 10.5t68.5 32.5t73 55l-2 -68
q-34 -34 -71.5 -59.5t-76 -39.5t-77.5 -14zM402 592q-28 0 -48 15.5t-20 39.5q0 25 20 41t48 16q29 0 49 -16t20 -41q0 -24 -20 -39.5t-49 -15.5zM183 592q-28 0 -48.5 15.5t-20.5 39.5q0 25 20.5 41t48.5 16q30 0 49 -16t19 -41q0 -24 -19 -39.5t-49 -15.5z" />
    <glyph glyph-name="agrave.alt" horiz-adv-x="629" 
d="M519 -8q-34 0 -59 14.5t-38.5 40.5t-13.5 60v194q0 36 -15 57.5t-40.5 31.5t-58.5 10q-51 0 -95.5 -13.5t-94.5 -34.5l-22 78q38 16 73 28t71 18.5t75 6.5q62 0 107 -21t69.5 -62t24.5 -103v-191q0 -20 9 -33t26 -13t25.5 13.5t8.5 31.5v50h55v-49q0 -36 -14 -61t-38 -39
t-55 -14zM214 -14q-44 0 -82 17t-60.5 50.5t-22.5 82.5q0 50 28.5 84.5t73.5 52t96 17.5q59 0 103 -13.5t91 -33.5v-64q-53 23 -96.5 30.5t-80.5 7.5q-31 1 -57.5 -8t-43.5 -26t-17 -44q0 -23 13.5 -39t35 -23.5t46.5 -7.5q26 0 58.5 10.5t68.5 32.5t73 55l-2 -68
q-34 -34 -71.5 -59.5t-76 -39.5t-77.5 -14zM314 563l-223 147l53 73l198 -182z" />
    <glyph glyph-name="amacron.alt" horiz-adv-x="629" 
d="M519 -8q-34 0 -59 14.5t-38.5 40.5t-13.5 60v194q0 36 -15 57.5t-40.5 31.5t-58.5 10q-51 0 -95.5 -13.5t-94.5 -34.5l-22 78q38 16 73 28t71 18.5t75 6.5q62 0 107 -21t69.5 -62t24.5 -103v-191q0 -20 9 -33t26 -13t25.5 13.5t8.5 31.5v50h55v-49q0 -36 -14 -61t-38 -39
t-55 -14zM214 -14q-44 0 -82 17t-60.5 50.5t-22.5 82.5q0 50 28.5 84.5t73.5 52t96 17.5q59 0 103 -13.5t91 -33.5v-64q-53 23 -96.5 30.5t-80.5 7.5q-31 1 -57.5 -8t-43.5 -26t-17 -44q0 -23 13.5 -39t35 -23.5t46.5 -7.5q26 0 58.5 10.5t68.5 32.5t73 55l-2 -68
q-34 -34 -71.5 -59.5t-76 -39.5t-77.5 -14zM480 661v-72h-380v72h380z" />
    <glyph glyph-name="aogonek.alt" horiz-adv-x="629" 
d="M519 -8q-34 0 -59 14.5t-38.5 40.5t-13.5 60v194q0 36 -15 57.5t-40.5 31.5t-58.5 10q-51 0 -95.5 -13.5t-94.5 -34.5l-22 78q38 16 73 28t71 18.5t75 6.5q62 0 107 -21t69.5 -62t24.5 -103v-191q0 -20 9 -33t26 -13t25.5 13.5t8.5 31.5v50h55v-49q0 -36 -14 -61t-38 -39
t-55 -14zM214 -14q-44 0 -82 17t-60.5 50.5t-22.5 82.5q0 50 28.5 84.5t73.5 52t96 17.5q59 0 103 -13.5t91 -33.5v-64q-53 23 -96.5 30.5t-80.5 7.5q-31 1 -57.5 -8t-43.5 -26t-17 -44q0 -23 13.5 -39t35 -23.5t46.5 -7.5q26 0 58.5 10.5t68.5 32.5t73 55l-2 -68
q-34 -34 -71.5 -59.5t-76 -39.5t-77.5 -14zM493 -270q-29 0 -56.5 12t-44.5 36t-17 59q0 38 21 72t55 61.5t72 46.5l56 -5q-69 -40 -99.5 -79.5t-30.5 -71.5q0 -29 17.5 -44t40.5 -15q22 0 40 11t32 27l33 -51q-21 -24 -52 -41.5t-67 -17.5z" />
    <glyph glyph-name="aring.alt" horiz-adv-x="629" 
d="M519 -8q-34 0 -59 14.5t-38.5 40.5t-13.5 60v194q0 36 -15 57.5t-40.5 31.5t-58.5 10q-51 0 -95.5 -13.5t-94.5 -34.5l-22 78q38 16 73 28t71 18.5t75 6.5q62 0 107 -21t69.5 -62t24.5 -103v-191q0 -20 9 -33t26 -13t25.5 13.5t8.5 31.5v50h55v-49q0 -36 -14 -61t-38 -39
t-55 -14zM214 -14q-44 0 -82 17t-60.5 50.5t-22.5 82.5q0 50 28.5 84.5t73.5 52t96 17.5q59 0 103 -13.5t91 -33.5v-64q-53 23 -96.5 30.5t-80.5 7.5q-31 1 -57.5 -8t-43.5 -26t-17 -44q0 -23 13.5 -39t35 -23.5t46.5 -7.5q26 0 58.5 10.5t68.5 32.5t73 55l-2 -68
q-34 -34 -71.5 -59.5t-76 -39.5t-77.5 -14zM293 549q-38 0 -70.5 18.5t-52.5 50.5t-20 71q0 42 20 73t52.5 48.5t70.5 17.5q40 0 72 -18t51.5 -49.5t19.5 -72.5q0 -40 -19.5 -72t-51.5 -49.5t-72 -17.5zM293 603q36 0 60.5 25t24.5 60q0 36 -24.5 61t-60.5 25q-35 0 -60 -24
t-25 -61q0 -23 11.5 -42.5t31 -31.5t42.5 -12z" />
    <glyph glyph-name="atilde.alt" horiz-adv-x="629" 
d="M519 -8q-34 0 -59 14.5t-38.5 40.5t-13.5 60v194q0 36 -15 57.5t-40.5 31.5t-58.5 10q-51 0 -95.5 -13.5t-94.5 -34.5l-22 78q38 16 73 28t71 18.5t75 6.5q62 0 107 -21t69.5 -62t24.5 -103v-191q0 -20 9 -33t26 -13t25.5 13.5t8.5 31.5v50h55v-49q0 -36 -14 -61t-38 -39
t-55 -14zM214 -14q-44 0 -82 17t-60.5 50.5t-22.5 82.5q0 50 28.5 84.5t73.5 52t96 17.5q59 0 103 -13.5t91 -33.5v-64q-53 23 -96.5 30.5t-80.5 7.5q-31 1 -57.5 -8t-43.5 -26t-17 -44q0 -23 13.5 -39t35 -23.5t46.5 -7.5q26 0 58.5 10.5t68.5 32.5t73 55l-2 -68
q-34 -34 -71.5 -59.5t-76 -39.5t-77.5 -14zM380 558q-37 0 -62 20t-48 47q-22 27 -37 40.5t-35 13.5q-27 0 -40.5 -27.5t-16.5 -78.5l-59 6q2 45 15 80.5t38.5 56.5t62.5 21q39 0 64 -19.5t48 -47.5q21 -26 36 -39.5t34 -13.5q18 0 30 12.5t19 35.5t9 56l59 -5
q-1 -44 -15 -80t-39.5 -57t-62.5 -21z" />
    <glyph glyph-name="d.alt" horiz-adv-x="677" 
d="M269 -14q-61 0 -113 30.5t-83.5 85.5t-31.5 127q0 57 18.5 103t52.5 80t78.5 52.5t95.5 18.5q52 0 92 -19t70.5 -47t53.5 -56v-72q-24 29 -54.5 54t-65.5 40.5t-74 15.5q-36 0 -66 -12.5t-52.5 -34.5t-34.5 -53.5t-12 -68.5q0 -48 19 -84.5t53.5 -56.5t77.5 -19
q41 1 77.5 18.5t69 44.5t59.5 54v-76q-18 -19 -41.5 -40.5t-51.5 -41t-62 -31.5t-75 -12zM558 -11q-51 0 -81.5 31.5t-30.5 82.5v583h96v-584q0 -20 8 -32.5t26 -12.5t26 13t8 32v50h54v-50q0 -35 -13 -60.5t-36.5 -39t-56.5 -13.5zM340 607v79h193v-79h-193z" />
    <glyph glyph-name="dcaron.alt" horiz-adv-x="677" 
d="M269 -14q-61 0 -113 30.5t-83.5 85.5t-31.5 127q0 57 18.5 103t52.5 80t78.5 52.5t95.5 18.5q52 0 92 -19t70.5 -47t53.5 -56v-72q-24 29 -54.5 54t-65.5 40.5t-74 15.5q-36 0 -66 -12.5t-52.5 -34.5t-34.5 -53.5t-12 -68.5q0 -48 19 -84.5t53.5 -56.5t77.5 -19
q41 1 77.5 18.5t69 44.5t59.5 54v-76q-18 -19 -41.5 -40.5t-51.5 -41t-62 -31.5t-75 -12zM558 -11q-51 0 -81.5 31.5t-30.5 82.5v583h96v-584q0 -20 8 -32.5t26 -12.5t26 13t8 32v50h54v-50q0 -35 -13 -60.5t-36.5 -39t-56.5 -13.5zM340 607v79h193v-79h-193zM628 696
l81 -10q-2 -52 -21.5 -97.5t-49.5 -84.5l-43 12q13 30 21 60t11 60.5t1 59.5z" />
    <glyph glyph-name="dcroat.alt" horiz-adv-x="677" 
d="M269 -14q-61 0 -113 31t-83.5 85.5t-31.5 126.5q0 57 18.5 103.5t52.5 80t78.5 52t95.5 18.5q52 0 92 -19t70.5 -47t53.5 -56v-71q-24 29 -54.5 54t-65.5 41t-74 16q-36 0 -66 -13t-52.5 -35.5t-34.5 -54t-12 -68.5q0 -48 19 -84.5t53.5 -56t77.5 -19.5q41 1 77.5 18.5
t69 44.5t59.5 54v-76q-18 -19 -41.5 -40.5t-51.5 -41t-62 -31.5t-75 -12zM558 -11q-51 0 -81.5 31.5t-30.5 82.5v583h96v-584q0 -20 8 -32.5t26 -12.5t26 13t8 32v50h54v-50q0 -35 -13 -60.5t-36.5 -39t-56.5 -13.5zM244 537v65h384v-65h-384zM340 607v79h193v-79h-193z" />
    <glyph glyph-name="f.alt" horiz-adv-x="407" 
d="M136 36v432q-33 27 -56 60t-23 73q0 38 24 67.5t65 47t92 17.5q41 0 75.5 -5.5t65.5 -15t59 -21.5l-31 -75q-30 15 -65.5 24t-73.5 9q-49 0 -79 -20.5t-30 -54.5q0 -29 21 -59.5t53 -54.5v-424h-97zM29 0v79h323v-79h-323zM29 392v79h327v-79h-327z" />
    <glyph glyph-name="g.alt" horiz-adv-x="633" 
d="M307 -244q-46 0 -86 9t-75.5 23.5t-72.5 32.5l34 79q32 -16 63 -29t63 -21t67 -8q37 0 70 15t53.5 45t20.5 73v434l39 75h58v-509q0 -53 -19 -94t-52.5 -68.5t-75 -42t-87.5 -14.5zM269 -14q-61 0 -113 30.5t-83.5 85.5t-31.5 127q0 57 18.5 103t52.5 80t78.5 52.5
t95.5 18.5q52 0 92 -19t70.5 -47t53.5 -56v-72q-24 29 -54.5 54t-65.5 40.5t-74 15.5q-36 0 -66 -12.5t-52.5 -34.5t-34.5 -53.5t-12 -68.5q0 -48 19 -84.5t53.5 -56.5t77.5 -19q41 1 77.5 18.5t69 44.5t59.5 54v-76q-18 -19 -41.5 -40.5t-51.5 -41t-62 -31.5t-75 -12z" />
    <glyph glyph-name="gbreve.alt" horiz-adv-x="633" 
d="M307 -244q-46 0 -86 9t-75.5 23.5t-72.5 32.5l34 79q32 -16 63 -29t63 -21t67 -8q37 0 70 15t53.5 45t20.5 73v434l39 75h58v-509q0 -53 -19 -94t-52.5 -68.5t-75 -42t-87.5 -14.5zM269 -14q-61 0 -113 30.5t-83.5 85.5t-31.5 127q0 57 18.5 103t52.5 80t78.5 52.5
t95.5 18.5q52 0 92 -19t70.5 -47t53.5 -56v-72q-24 29 -54.5 54t-65.5 40.5t-74 15.5q-36 0 -66 -12.5t-52.5 -34.5t-34.5 -53.5t-12 -68.5q0 -48 19 -84.5t53.5 -56.5t77.5 -19q41 1 77.5 18.5t69 44.5t59.5 54v-76q-18 -19 -41.5 -40.5t-51.5 -41t-62 -31.5t-75 -12z
M315 567q-55 0 -94.5 24.5t-62 62.5t-25.5 77l61 12q7 -26 24 -47.5t41.5 -33.5t55.5 -12q30 0 54.5 12t41.5 33.5t24 47.5l61 -12q-4 -39 -26 -77t-61 -62.5t-94 -24.5z" />
    <glyph glyph-name="uni0123.alt" horiz-adv-x="633" 
d="M307 -244q-46 0 -86 9t-75.5 23.5t-72.5 32.5l34 79q32 -16 63 -29t63 -21t67 -8q37 0 70 15t53.5 45t20.5 73v434l39 75h58v-509q0 -53 -19 -94t-52.5 -68.5t-75 -42t-87.5 -14.5zM269 -14q-61 0 -113 30.5t-83.5 85.5t-31.5 127q0 57 18.5 103t52.5 80t78.5 52.5
t95.5 18.5q52 0 92 -19t70.5 -47t53.5 -56v-72q-24 29 -54.5 54t-65.5 40.5t-74 15.5q-36 0 -66 -12.5t-52.5 -34.5t-34.5 -53.5t-12 -68.5q0 -48 19 -84.5t53.5 -56.5t77.5 -19q41 1 77.5 18.5t69 44.5t59.5 54v-76q-18 -19 -41.5 -40.5t-51.5 -41t-62 -31.5t-75 -12z
M236 669q0 42 29.5 87.5t74.5 81.5l24 -26q-37 -34 -56 -67.5t-21 -60.5q9 4 18 5.5t20 1.5q25 0 42.5 -14t17.5 -37q0 -24 -20.5 -40.5t-49.5 -16.5q-34 0 -56.5 23t-22.5 63z" />
    <glyph glyph-name="gdotaccent.alt" horiz-adv-x="633" 
d="M307 -244q-46 0 -86 9t-75.5 23.5t-72.5 32.5l34 79q32 -16 63 -29t63 -21t67 -8q37 0 70 15t53.5 45t20.5 73v434l39 75h58v-509q0 -53 -19 -94t-52.5 -68.5t-75 -42t-87.5 -14.5zM269 -14q-61 0 -113 30.5t-83.5 85.5t-31.5 127q0 57 18.5 103t52.5 80t78.5 52.5
t95.5 18.5q52 0 92 -19t70.5 -47t53.5 -56v-72q-24 29 -54.5 54t-65.5 40.5t-74 15.5q-36 0 -66 -12.5t-52.5 -34.5t-34.5 -53.5t-12 -68.5q0 -48 19 -84.5t53.5 -56.5t77.5 -19q41 1 77.5 18.5t69 44.5t59.5 54v-76q-18 -19 -41.5 -40.5t-51.5 -41t-62 -31.5t-75 -12z
M315 586q-31 0 -53.5 17t-22.5 42q0 28 22.5 45.5t53.5 17.5q35 0 57 -17.5t22 -45.5q0 -25 -22 -42t-57 -17z" />
    <glyph glyph-name="k.alt" horiz-adv-x="671" 
d="M206 129l-5 71l275 215l113 2zM23 0v79h294v-79h-294zM128 22v664h99v-664h-99zM23 607v79h198v-79h-198zM497 59l-197 188l64 50l250 -238h-117zM388 0v79h270v-79h-270zM361 395v76h266v-76h-266z" />
    <glyph glyph-name="uni0137.alt" horiz-adv-x="671" 
d="M206 129l-5 71l275 215l113 2zM23 0v79h294v-79h-294zM128 22v664h99v-664h-99zM23 607v79h198v-79h-198zM497 59l-197 188l64 50l250 -238h-117zM388 0v79h270v-79h-270zM361 395v76h266v-76h-266zM431 -185q0 -42 -29 -88t-74 -83l-24 26q36 34 56 67.5t21 61.5
q-9 -5 -18 -6t-21 -1q-24 0 -41.5 14t-17.5 37q0 24 20.5 40.5t48.5 16.5q35 0 57 -22.5t22 -62.5z" />
    <glyph glyph-name="t.alt" horiz-adv-x="443" 
d="M389 392h-347v79h347v-79zM427 31q-18 -12 -40 -22.5t-49 -16.5t-61 -6q-52 0 -93 21t-65 63t-24 105q0 36 5.5 71.5t14.5 70t19.5 68.5t19.5 66l-7 9v141h97v-143l5 -9q-11 -33 -21 -66.5t-18 -66t-12.5 -65t-4.5 -62.5q0 -40 13 -66t34 -37.5t45 -11.5q31 0 57 8.5
t53 25.5z" />
    <glyph glyph-name="tbar.alt" horiz-adv-x="448" 
d="M42 265v63h343v-63h-343zM393 392h-347v79h347v-79zM431 31q-18 -12 -40 -22.5t-49 -16.5t-60 -6q-53 0 -94 21t-65 63t-24 105q0 36 5.5 71.5t14.5 70t19.5 68.5t19.5 66l-7 9v141h97v-143l5 -9q-11 -33 -21 -66.5t-17.5 -66t-12.5 -65t-5 -62.5q0 -40 13 -66t34 -37.5
t45 -11.5q31 0 57 8.5t53 25.5z" />
    <glyph glyph-name="tcaron.alt" horiz-adv-x="443" 
d="M389 392h-347v79h347v-79zM427 31q-18 -12 -40 -22.5t-49 -16.5t-61 -6q-52 0 -93 21t-65 63t-24 105q0 36 5.5 71.5t14.5 70t19.5 68.5t19.5 66l-7 9v141h97v-143l5 -9q-11 -33 -21 -66.5t-18 -66t-12.5 -65t-4.5 -62.5q0 -40 13 -66t34 -37.5t45 -11.5q31 0 57 8.5
t53 25.5zM325 738l81 -10q-2 -52 -21.5 -97.5t-49.5 -84.5l-43 12q13 30 21 60t11 60.5t1 59.5z" />
    <glyph glyph-name="uni0163.alt" horiz-adv-x="443" 
d="M389 392h-347v79h347v-79zM427 31q-18 -12 -40 -22.5t-49 -16.5t-61 -6q-52 0 -93 21t-65 63t-24 105q0 36 5.5 71.5t14.5 70t19.5 68.5t19.5 66l-7 9v141h97v-143l5 -9q-11 -33 -21 -66.5t-18 -66t-12.5 -65t-4.5 -62.5q0 -40 13 -66t34 -37.5t45 -11.5q31 0 57 8.5
t53 25.5zM229 -263q-40 0 -74.5 13t-68.5 36l29 49q29 -21 57 -31.5t57 -10.5t47.5 12t18.5 32q0 23 -17.5 34t-46.5 11q-17 0 -31 -1t-27 -3l-6 9l50 122h52l-34 -84q5 0 11 0.5t12 0.5q46 0 74.5 -24t28.5 -65q0 -31 -18.5 -53.5t-48.5 -34.5t-65 -12z" />
    <glyph glyph-name="uni021B.alt" horiz-adv-x="443" 
d="M389 392h-347v79h347v-79zM427 31q-18 -12 -40 -22.5t-49 -16.5t-61 -6q-52 0 -93 21t-65 63t-24 105q0 36 5.5 71.5t14.5 70t19.5 68.5t19.5 66l-7 9v141h97v-143l5 -9q-11 -33 -21 -66.5t-18 -66t-12.5 -65t-4.5 -62.5q0 -40 13 -66t34 -37.5t45 -11.5q31 0 57 8.5
t53 25.5zM338 -199q0 -42 -29 -88t-74 -83l-24 26q36 34 56 67.5t21 61.5q-9 -5 -18 -6t-21 -1q-24 0 -41.5 14t-17.5 37q0 24 20.5 40.5t48.5 16.5q35 0 57 -22.5t22 -62.5z" />
    <glyph glyph-name="u.alt" horiz-adv-x="700" 
d="M267 -14q-38 0 -68.5 13t-51.5 39t-32 64.5t-11 89.5v279h98v-276q0 -26 5.5 -47.5t17 -37.5t30.5 -24.5t47 -8.5q25 0 51 11t53 31t54 49.5t53 65.5v-79q-31 -40 -60.5 -71t-59 -53t-60.5 -33.5t-66 -11.5zM10 392v79h172v-79h-172zM380 392v79h169v-79h-169zM580 -11
q-53 0 -83.5 31.5t-30.5 82.5v368h97v-369q0 -20 9 -32.5t26 -12.5q18 0 26 13t8 32v50h55v-50q0 -35 -14 -60.5t-38 -39t-55 -13.5z" />
    <glyph glyph-name="uacute.alt" horiz-adv-x="700" 
d="M267 -14q-38 0 -68.5 13t-51.5 39t-32 64.5t-11 89.5v279h98v-276q0 -26 5.5 -47.5t17 -37.5t30.5 -24.5t47 -8.5q25 0 51 11t53 31t54 49.5t53 65.5v-79q-31 -40 -60.5 -71t-59 -53t-60.5 -33.5t-66 -11.5zM10 392v79h172v-79h-172zM380 392v79h169v-79h-169zM580 -11
q-53 0 -83.5 31.5t-30.5 82.5v368h97v-369q0 -20 9 -32.5t26 -12.5q18 0 26 13t8 32v50h55v-50q0 -35 -14 -60.5t-38 -39t-55 -13.5zM290 533l-29 38l198 182l53 -73z" />
    <glyph glyph-name="ucircumflex.alt" horiz-adv-x="700" 
d="M267 -14q-38 0 -68.5 13t-51.5 39t-32 64.5t-11 89.5v279h98v-276q0 -26 5.5 -47.5t17 -37.5t30.5 -24.5t47 -8.5q25 0 51 11t53 31t54 49.5t53 65.5v-79q-31 -40 -60.5 -71t-59 -53t-60.5 -33.5t-66 -11.5zM10 392v79h172v-79h-172zM380 392v79h169v-79h-169zM580 -11
q-53 0 -83.5 31.5t-30.5 82.5v368h97v-369q0 -20 9 -32.5t26 -12.5q18 0 26 13t8 32v50h55v-50q0 -35 -14 -60.5t-38 -39t-55 -13.5zM166 538l-32 29l152 176h52l153 -176l-32 -29l-148 124z" />
    <glyph glyph-name="udieresis.alt" horiz-adv-x="700" 
d="M267 -14q-38 0 -68.5 13t-51.5 39t-32 64.5t-11 89.5v279h98v-276q0 -26 5.5 -47.5t17 -37.5t30.5 -24.5t47 -8.5q25 0 51 11t53 31t54 49.5t53 65.5v-79q-31 -40 -60.5 -71t-59 -53t-60.5 -33.5t-66 -11.5zM10 392v79h172v-79h-172zM380 392v79h169v-79h-169zM580 -11
q-53 0 -83.5 31.5t-30.5 82.5v368h97v-369q0 -20 9 -32.5t26 -12.5q18 0 26 13t8 32v50h55v-50q0 -35 -14 -60.5t-38 -39t-55 -13.5zM419 579q-28 0 -48 15.5t-20 39.5q0 25 20 41t48 16q29 0 49 -16t20 -41q0 -24 -20 -39.5t-49 -15.5zM200 579q-28 0 -48.5 15.5
t-20.5 39.5q0 25 20.5 41t48.5 16q30 0 49 -16t19 -41q0 -24 -19 -39.5t-49 -15.5z" />
    <glyph glyph-name="ugrave.alt" horiz-adv-x="700" 
d="M267 -14q-38 0 -68.5 13t-51.5 39t-32 64.5t-11 89.5v279h98v-276q0 -26 5.5 -47.5t17 -37.5t30.5 -24.5t47 -8.5q25 0 51 11t53 31t54 49.5t53 65.5v-79q-31 -40 -60.5 -71t-59 -53t-60.5 -33.5t-66 -11.5zM10 392v79h172v-79h-172zM380 392v79h169v-79h-169zM580 -11
q-53 0 -83.5 31.5t-30.5 82.5v368h97v-369q0 -20 9 -32.5t26 -12.5q18 0 26 13t8 32v50h55v-50q0 -35 -14 -60.5t-38 -39t-55 -13.5zM332 550l-223 147l53 73l198 -182z" />
    <glyph glyph-name="uhungarumlaut.alt" horiz-adv-x="700" 
d="M267 -14q-38 0 -68.5 13t-51.5 39t-32 64.5t-11 89.5v279h98v-276q0 -26 5.5 -47.5t17 -37.5t30.5 -24.5t47 -8.5q25 0 51 11t53 31t54 49.5t53 65.5v-79q-31 -40 -60.5 -71t-59 -53t-60.5 -33.5t-66 -11.5zM10 392v79h172v-79h-172zM380 392v79h169v-79h-169zM580 -11
q-53 0 -83.5 31.5t-30.5 82.5v368h97v-369q0 -20 9 -32.5t26 -12.5q18 0 26 13t8 32v50h55v-50q0 -35 -14 -60.5t-38 -39t-55 -13.5zM390 546l-46 34l114 195l72 -52zM200 546l-46 34l113 195l72 -52z" />
    <glyph glyph-name="umacron.alt" horiz-adv-x="700" 
d="M267 -14q-38 0 -68.5 13t-51.5 39t-32 64.5t-11 89.5v279h98v-276q0 -26 5.5 -47.5t17 -37.5t30.5 -24.5t47 -8.5q25 0 51 11t53 31t54 49.5t53 65.5v-79q-31 -40 -60.5 -71t-59 -53t-60.5 -33.5t-66 -11.5zM10 392v79h172v-79h-172zM380 392v79h169v-79h-169zM580 -11
q-53 0 -83.5 31.5t-30.5 82.5v368h97v-369q0 -20 9 -32.5t26 -12.5q18 0 26 13t8 32v50h55v-50q0 -35 -14 -60.5t-38 -39t-55 -13.5zM498 648v-72h-380v72h380z" />
    <glyph glyph-name="uogonek.alt" horiz-adv-x="700" 
d="M267 -14q-38 0 -68.5 13t-51.5 39t-32 64.5t-11 89.5v279h98v-276q0 -26 5.5 -47.5t17 -37.5t30.5 -24.5t47 -8.5q25 0 51 11t53 31t54 49.5t53 65.5v-79q-31 -40 -60.5 -71t-59 -53t-60.5 -33.5t-66 -11.5zM10 392v79h172v-79h-172zM380 392v79h169v-79h-169zM580 -11
q-53 0 -83.5 31.5t-30.5 82.5v368h97v-369q0 -20 9 -32.5t26 -12.5q18 0 26 13t8 32v50h55v-50q0 -35 -14 -60.5t-38 -39t-55 -13.5zM550 -270q-29 0 -56.5 12t-44.5 36t-17 59q0 38 21 72t55 61.5t72 46.5l56 -5q-69 -40 -99.5 -79.5t-30.5 -71.5q0 -29 17.5 -44t40.5 -15
q22 0 40 11t32 27l33 -51q-21 -24 -52 -41.5t-67 -17.5z" />
    <glyph glyph-name="uring.alt" horiz-adv-x="700" 
d="M267 -14q-38 0 -68.5 13t-51.5 39t-32 64.5t-11 89.5v279h98v-276q0 -26 5.5 -47.5t17 -37.5t30.5 -24.5t47 -8.5q25 0 51 11t53 31t54 49.5t53 65.5v-79q-31 -40 -60.5 -71t-59 -53t-60.5 -33.5t-66 -11.5zM10 392v79h172v-79h-172zM380 392v79h169v-79h-169zM580 -11
q-53 0 -83.5 31.5t-30.5 82.5v368h97v-369q0 -20 9 -32.5t26 -12.5q18 0 26 13t8 32v50h55v-50q0 -35 -14 -60.5t-38 -39t-55 -13.5zM311 536q-38 0 -70.5 18.5t-52.5 50.5t-20 71q0 42 20 73t52.5 48.5t70.5 17.5q40 0 72 -18t51.5 -49.5t19.5 -72.5q0 -40 -19.5 -72
t-51.5 -49.5t-72 -17.5zM311 590q36 0 60.5 25t24.5 60q0 36 -24.5 61t-60.5 25q-35 0 -60 -24t-25 -61q0 -23 11.5 -42.5t31 -31.5t42.5 -12z" />
    <glyph glyph-name="x.alt" horiz-adv-x="696" 
d="M509 -12q-38 0 -68.5 18t-54.5 50t-44 74.5t-36 92.5l-4 1q-20 58 -38 97t-37 59t-44 20q-24 0 -39 -13t-21.5 -35.5t-6.5 -53.5l-87 9q3 38 13 70t28.5 56t46 37.5t66.5 13.5q52 0 88.5 -31.5t63.5 -85t49 -119.5l4 -1q21 -58 39 -96.5t37.5 -58t44.5 -19.5q21 0 36 12
t24.5 34.5t9.5 55.5l86 -8q-2 -40 -13.5 -72.5t-31.5 -56.5t-48 -37t-63 -13zM27 -1v80h121h17h124v-80h-262zM80 61l233 203h28l160 148h110l-234 -204h-28l-158 -147h-111zM403 392v79h263v-79h-122h-26h-115z" />
    <glyph glyph-name="z.alt" horiz-adv-x="582" 
d="M52 0v53l302 309q12 12 28.5 22t27.5 15l-2 3q-12 -3 -28.5 -8t-34.5 -5h-202v-101h-83v181h473v-53l-307 -315q-8 -7 -25.5 -17t-27.5 -15l1 -3q11 3 30 8t34 5h210v102h84v-181h-480z" />
    <glyph glyph-name="zacute.alt" horiz-adv-x="582" 
d="M52 0v53l302 309q12 12 28.5 22t27.5 15l-2 3q-12 -3 -28.5 -8t-34.5 -5h-202v-101h-83v181h473v-53l-307 -315q-8 -7 -25.5 -17t-27.5 -15l1 -3q11 3 30 8t34 5h210v102h84v-181h-480zM283 533l-29 38l198 182l53 -73z" />
    <glyph glyph-name="zcaron.alt" horiz-adv-x="582" 
d="M52 0v53l302 309q12 12 28.5 22t27.5 15l-2 3q-12 -3 -28.5 -8t-34.5 -5h-202v-101h-83v181h473v-53l-307 -315q-8 -7 -25.5 -17t-27.5 -15l1 -3q11 3 30 8t34 5h210v102h84v-181h-480zM452 754l32 -31l-153 -176h-52l-152 176l32 31l146 -125z" />
    <glyph glyph-name="zdotaccent.alt" horiz-adv-x="582" 
d="M52 0v53l302 309q12 12 28.5 22t27.5 15l-2 3q-12 -3 -28.5 -8t-34.5 -5h-202v-101h-83v181h473v-53l-307 -315q-8 -7 -25.5 -17t-27.5 -15l1 -3q11 3 30 8t34 5h210v102h84v-181h-480zM304 574q-31 0 -53.5 17t-22.5 42q0 28 22.5 45.5t53.5 17.5q35 0 57 -17.5
t22 -45.5q0 -25 -22 -42t-57 -17z" />
    <glyph glyph-name="a.alt2" horiz-adv-x="650" 
d="M269 -14q-61 0 -113 31t-83.5 85.5t-31.5 126.5q0 57 18.5 103.5t52.5 80.5t78.5 52.5t95.5 18.5q52 0 92 -19.5t70.5 -47.5t53.5 -56v-72q-24 29 -54.5 54t-65.5 41t-74 16q-36 0 -66 -12.5t-52.5 -35t-34.5 -54t-12 -68.5q0 -48 19 -84.5t53.5 -56t77.5 -19.5
q41 1 77.5 18.5t69 44.5t59.5 54v-76q-18 -19 -41.5 -40.5t-51.5 -41t-62 -31.5t-75 -12zM549 -10q-47 0 -76 33t-29 91v296l39 76h58v-363q0 -28 10.5 -38.5t25.5 -10.5q10 0 17 2t13 5l20 -72q-15 -7 -34 -13t-44 -6z" />
    <glyph glyph-name="aacute.alt2" horiz-adv-x="650" 
d="M269 -14q-61 0 -113 31t-83.5 85.5t-31.5 126.5q0 57 18.5 103.5t52.5 80.5t78.5 52.5t95.5 18.5q52 0 92 -19.5t70.5 -47.5t53.5 -56v-72q-24 29 -54.5 54t-65.5 41t-74 16q-36 0 -66 -12.5t-52.5 -35t-34.5 -54t-12 -68.5q0 -48 19 -84.5t53.5 -56t77.5 -19.5
q41 1 77.5 18.5t69 44.5t59.5 54v-76q-18 -19 -41.5 -40.5t-51.5 -41t-62 -31.5t-75 -12zM549 -10q-47 0 -76 33t-29 91v296l39 76h58v-363q0 -28 10.5 -38.5t25.5 -10.5q10 0 17 2t13 5l20 -72q-15 -7 -34 -13t-44 -6zM301 552l-29 38l198 182l53 -73z" />
    <glyph glyph-name="abreve.alt2" horiz-adv-x="650" 
d="M269 -14q-61 0 -113 31t-83.5 85.5t-31.5 126.5q0 57 18.5 103.5t52.5 80.5t78.5 52.5t95.5 18.5q52 0 92 -19.5t70.5 -47.5t53.5 -56v-72q-24 29 -54.5 54t-65.5 41t-74 16q-36 0 -66 -12.5t-52.5 -35t-34.5 -54t-12 -68.5q0 -48 19 -84.5t53.5 -56t77.5 -19.5
q41 1 77.5 18.5t69 44.5t59.5 54v-76q-18 -19 -41.5 -40.5t-51.5 -41t-62 -31.5t-75 -12zM549 -10q-47 0 -76 33t-29 91v296l39 76h58v-363q0 -28 10.5 -38.5t25.5 -10.5q10 0 17 2t13 5l20 -72q-15 -7 -34 -13t-44 -6zM322 574q-55 0 -94.5 24.5t-62 62.5t-25.5 77l61 12
q7 -26 24 -47.5t41.5 -33.5t55.5 -12q30 0 54.5 12t41.5 33.5t24 47.5l61 -12q-4 -39 -26 -77t-61 -62.5t-94 -24.5z" />
    <glyph glyph-name="acircumflex.alt2" horiz-adv-x="650" 
d="M269 -14q-61 0 -113 31t-83.5 85.5t-31.5 126.5q0 57 18.5 103.5t52.5 80.5t78.5 52.5t95.5 18.5q52 0 92 -19.5t70.5 -47.5t53.5 -56v-72q-24 29 -54.5 54t-65.5 41t-74 16q-36 0 -66 -12.5t-52.5 -35t-34.5 -54t-12 -68.5q0 -48 19 -84.5t53.5 -56t77.5 -19.5
q41 1 77.5 18.5t69 44.5t59.5 54v-76q-18 -19 -41.5 -40.5t-51.5 -41t-62 -31.5t-75 -12zM549 -10q-47 0 -76 33t-29 91v296l39 76h58v-363q0 -28 10.5 -38.5t25.5 -10.5q10 0 17 2t13 5l20 -72q-15 -7 -34 -13t-44 -6zM176 557l-32 29l152 176h52l153 -176l-32 -29
l-148 124z" />
    <glyph glyph-name="adieresis.alt2" horiz-adv-x="650" 
d="M269 -14q-61 0 -113 31t-83.5 85.5t-31.5 126.5q0 57 18.5 103.5t52.5 80.5t78.5 52.5t95.5 18.5q52 0 92 -19.5t70.5 -47.5t53.5 -56v-72q-24 29 -54.5 54t-65.5 41t-74 16q-36 0 -66 -12.5t-52.5 -35t-34.5 -54t-12 -68.5q0 -48 19 -84.5t53.5 -56t77.5 -19.5
q41 1 77.5 18.5t69 44.5t59.5 54v-76q-18 -19 -41.5 -40.5t-51.5 -41t-62 -31.5t-75 -12zM549 -10q-47 0 -76 33t-29 91v296l39 76h58v-363q0 -28 10.5 -38.5t25.5 -10.5q10 0 17 2t13 5l20 -72q-15 -7 -34 -13t-44 -6zM430 598q-28 0 -48 15.5t-20 39.5q0 25 20 41t48 16
q29 0 49 -16t20 -41q0 -24 -20 -39.5t-49 -15.5zM211 598q-28 0 -48.5 15.5t-20.5 39.5q0 25 20.5 41t48.5 16q30 0 49 -16t19 -41q0 -24 -19 -39.5t-49 -15.5z" />
    <glyph glyph-name="agrave.alt2" horiz-adv-x="650" 
d="M269 -14q-61 0 -113 31t-83.5 85.5t-31.5 126.5q0 57 18.5 103.5t52.5 80.5t78.5 52.5t95.5 18.5q52 0 92 -19.5t70.5 -47.5t53.5 -56v-72q-24 29 -54.5 54t-65.5 41t-74 16q-36 0 -66 -12.5t-52.5 -35t-34.5 -54t-12 -68.5q0 -48 19 -84.5t53.5 -56t77.5 -19.5
q41 1 77.5 18.5t69 44.5t59.5 54v-76q-18 -19 -41.5 -40.5t-51.5 -41t-62 -31.5t-75 -12zM549 -10q-47 0 -76 33t-29 91v296l39 76h58v-363q0 -28 10.5 -38.5t25.5 -10.5q10 0 17 2t13 5l20 -72q-15 -7 -34 -13t-44 -6zM342 569l-223 147l53 73l198 -182z" />
    <glyph glyph-name="amacron.alt2" horiz-adv-x="650" 
d="M269 -14q-61 0 -113 31t-83.5 85.5t-31.5 126.5q0 57 18.5 103.5t52.5 80.5t78.5 52.5t95.5 18.5q52 0 92 -19.5t70.5 -47.5t53.5 -56v-72q-24 29 -54.5 54t-65.5 41t-74 16q-36 0 -66 -12.5t-52.5 -35t-34.5 -54t-12 -68.5q0 -48 19 -84.5t53.5 -56t77.5 -19.5
q41 1 77.5 18.5t69 44.5t59.5 54v-76q-18 -19 -41.5 -40.5t-51.5 -41t-62 -31.5t-75 -12zM549 -10q-47 0 -76 33t-29 91v296l39 76h58v-363q0 -28 10.5 -38.5t25.5 -10.5q10 0 17 2t13 5l20 -72q-15 -7 -34 -13t-44 -6zM508 667v-72h-380v72h380z" />
    <glyph glyph-name="aogonek.alt2" horiz-adv-x="650" 
d="M269 -14q-61 0 -113 31t-83.5 85.5t-31.5 126.5q0 57 18.5 103.5t52.5 80.5t78.5 52.5t95.5 18.5q52 0 92 -19.5t70.5 -47.5t53.5 -56v-72q-24 29 -54.5 54t-65.5 41t-74 16q-36 0 -66 -12.5t-52.5 -35t-34.5 -54t-12 -68.5q0 -48 19 -84.5t53.5 -56t77.5 -19.5
q41 1 77.5 18.5t69 44.5t59.5 54v-76q-18 -19 -41.5 -40.5t-51.5 -41t-62 -31.5t-75 -12zM549 -10q-47 0 -76 33t-29 91v296l39 76h58v-363q0 -28 10.5 -38.5t25.5 -10.5q10 0 17 2t13 5l20 -72q-15 -7 -34 -13t-44 -6zM522 -270q-29 0 -56.5 12t-44.5 36t-17 59q0 38 21 72
t55 61.5t72 46.5l56 -5q-69 -40 -99.5 -79.5t-30.5 -71.5q0 -29 17.5 -44t40.5 -15q22 0 40 11t32 27l33 -51q-21 -24 -52 -41.5t-67 -17.5z" />
    <glyph glyph-name="aring.alt2" horiz-adv-x="650" 
d="M269 -14q-61 0 -113 31t-83.5 85.5t-31.5 126.5q0 57 18.5 103.5t52.5 80.5t78.5 52.5t95.5 18.5q52 0 92 -19.5t70.5 -47.5t53.5 -56v-72q-24 29 -54.5 54t-65.5 41t-74 16q-36 0 -66 -12.5t-52.5 -35t-34.5 -54t-12 -68.5q0 -48 19 -84.5t53.5 -56t77.5 -19.5
q41 1 77.5 18.5t69 44.5t59.5 54v-76q-18 -19 -41.5 -40.5t-51.5 -41t-62 -31.5t-75 -12zM549 -10q-47 0 -76 33t-29 91v296l39 76h58v-363q0 -28 10.5 -38.5t25.5 -10.5q10 0 17 2t13 5l20 -72q-15 -7 -34 -13t-44 -6zM321 555q-38 0 -70.5 18.5t-52.5 50.5t-20 71
q0 42 20 73t52.5 48.5t70.5 17.5q40 0 72 -18t51.5 -49.5t19.5 -72.5q0 -40 -19.5 -72t-51.5 -49.5t-72 -17.5zM321 609q36 0 60.5 25t24.5 60q0 36 -24.5 61t-60.5 25q-35 0 -60 -24t-25 -61q0 -23 11.5 -42.5t31 -31.5t42.5 -12z" />
    <glyph glyph-name="atilde.alt2" horiz-adv-x="650" 
d="M269 -14q-61 0 -113 31t-83.5 85.5t-31.5 126.5q0 57 18.5 103.5t52.5 80.5t78.5 52.5t95.5 18.5q52 0 92 -19.5t70.5 -47.5t53.5 -56v-72q-24 29 -54.5 54t-65.5 41t-74 16q-36 0 -66 -12.5t-52.5 -35t-34.5 -54t-12 -68.5q0 -48 19 -84.5t53.5 -56t77.5 -19.5
q41 1 77.5 18.5t69 44.5t59.5 54v-76q-18 -19 -41.5 -40.5t-51.5 -41t-62 -31.5t-75 -12zM549 -10q-47 0 -76 33t-29 91v296l39 76h58v-363q0 -28 10.5 -38.5t25.5 -10.5q10 0 17 2t13 5l20 -72q-15 -7 -34 -13t-44 -6zM408 564q-37 0 -62 20t-48 47q-22 27 -37 40.5
t-35 13.5q-27 0 -40.5 -27.5t-16.5 -78.5l-59 6q2 45 15 80.5t38.5 56.5t62.5 21q39 0 64 -19.5t48 -47.5q21 -26 36 -39.5t34 -13.5q18 0 30 12.5t19 35.5t9 56l59 -5q-1 -44 -15 -80t-39.5 -57t-62.5 -21z" />
    <glyph glyph-name="two.alt" horiz-adv-x="637" 
d="M91 41l-63 43l273 193q48 34 79.5 60.5t48 51t16.5 53.5q0 33 -18 57.5t-49 37.5t-70 13q-65 0 -117 -31.5t-99 -80.5l-56 63q36 37 79 67t92.5 48t105.5 18q45 0 87 -11.5t75 -34t52.5 -57.5t19.5 -82q0 -45 -22.5 -82.5t-65.5 -73.5t-103 -76zM29 0v84h469v115h85v-199
h-554z" />
    <glyph glyph-name="seven.alt" horiz-adv-x="601" 
d="M42 618h530v-72q0 -49 -11.5 -87.5t-36 -71t-62.5 -62t-91 -60.5q-66 -40 -99.5 -80.5t-44.5 -86t-11 -98.5h-92q0 49 7.5 93t26.5 84t53.5 75.5t88.5 67.5q49 30 82.5 54t54.5 48t30.5 51t9.5 62h-352v-143h-83v226z" />
    <glyph glyph-name="zero.slash" horiz-adv-x="723" 
d="M361 -13q-48 0 -94.5 13.5t-86.5 40.5t-70.5 66t-47.5 90t-17 113t16.5 113.5t47 90t70.5 66t86.5 41t95.5 13.5t95.5 -13.5t86.5 -41t71 -66t48 -90t17 -113.5t-17.5 -113t-47.5 -90t-70 -66t-86.5 -40.5t-96.5 -13.5zM361 67q48 0 87 17.5t67.5 49.5t44 77t15.5 99
q0 55 -16 100t-44.5 77t-67.5 49.5t-86 17.5t-86 -17.5t-67.5 -49.5t-43.5 -77t-15 -100q0 -54 16 -99t44.5 -77t67 -49.5t84.5 -17.5zM361 245q-29 0 -50 18.5t-21 45.5q0 31 21 49t50 18q33 0 53 -18t20 -49q0 -27 -20 -45.5t-53 -18.5z" />
    <glyph glyph-name="two.dnom" horiz-adv-x="384" 
d="M289 122h54v-122h-314v49q2 37 20.5 62.5t50.5 44.5t71 35q38 16 59 28t29.5 23t8.5 25q-1 23 -21 37t-55 14q-24 0 -46 -7.5t-42.5 -20t-39.5 -28.5l-33 40q31 28 72.5 48.5t92.5 21.5q38 0 68.5 -12.5t48.5 -36t18 -56.5q0 -30 -16 -51t-45.5 -38.5t-72.5 -37.5
q-31 -14 -53.5 -26.5t-35.5 -26.5t-15 -33h196v68z" />
    <glyph glyph-name="four.dnom" horiz-adv-x="399" 
d="M61 105l-50 20l221 241h73zM11 67v58h370v-58h-370zM236 366h72v-379h-72v379z" />
    <glyph glyph-name="one.numr" horiz-adv-x="305" 
d="M61 495l-21 61q33 4 60.5 24.5t34.5 52.5l26 -42q-9 -37 -35 -63.5t-65 -32.5zM47 266v59h222v-59h-222zM135 288v345h73v-345h-73z" />
    <glyph glyph-name="three.numr" horiz-adv-x="367" 
d="M182 255q-38 0 -69 8.5t-54 21.5t-41 26l30 48q17 -13 39 -24t46.5 -17.5t49.5 -6.5q23 0 41.5 5.5t29.5 16.5t11 27q0 25 -29.5 39.5t-92.5 14.5h-51v53h51q52 0 79.5 17t27.5 43q0 24 -20.5 38t-52.5 14t-62 -14.5t-55 -35.5l-34 43q18 17 41.5 31.5t52 22.5t59.5 8
q38 0 69.5 -11.5t51 -34.5t19.5 -56q0 -31 -22 -53.5t-59 -35t-84 -12.5v18q58 0 97.5 -10t61 -31t21.5 -55q0 -28 -19.5 -50.5t-53.5 -35t-79 -12.5z" />
    <glyph glyph-name="periodcentered.loclCAT" horiz-adv-x="283" 
d="M141 274q-33 0 -57.5 19t-24.5 47q0 30 24.5 49t57.5 19q37 0 60.5 -19t23.5 -49q0 -28 -23.5 -47t-60.5 -19z" />
    <glyph glyph-name="periodcentered.loclCAT.case" horiz-adv-x="283" 
d="M141 360q-33 0 -57.5 19t-24.5 47q0 30 24.5 49t57.5 19q37 0 60.5 -19t23.5 -49q0 -28 -23.5 -47t-60.5 -19z" />
    <glyph glyph-name="ampersand.swsh" horiz-adv-x="812" 
d="M864 -250q-87 0 -164.5 27.5t-144 77t-120 116.5t-91 147t-57.5 168t-20 179q0 66 25.5 118.5t71 83t104.5 30.5q53 0 91 -20t58 -53t20 -72q0 -58 -36.5 -102t-101 -75t-149.5 -48q-66 -14 -113 -31.5t-72 -43t-25 -63.5q0 -37 28 -65t79.5 -43t119.5 -15
q61 0 113.5 14.5t92.5 40t62 61t22 77.5q0 34 -9 58t-24 48l83 37q20 -31 33.5 -63t13.5 -82q0 -48 -26 -96t-75.5 -87.5t-121 -64t-163.5 -24.5q-98 -1 -172.5 22.5t-116 68t-41.5 107.5q0 60 34 102t98.5 70t154.5 46q51 11 91 25.5t67.5 33t42 40.5t14.5 47
q0 31 -19.5 50.5t-50.5 19.5q-27 0 -49.5 -17t-35.5 -50.5t-13 -84.5q0 -79 16.5 -156t48.5 -146.5t76 -127.5t99 -101t118.5 -67t133.5 -24q42 0 79.5 8.5t70 23.5t60.5 36l41 -83q-29 -20 -66 -38t-82.5 -29t-102.5 -11z" />
    <glyph glyph-name="uni030C.alt" 
d="M124 836l81 -10q-2 -52 -21.5 -97.5t-49.5 -84.5l-43 12q13 30 21 60t11 60.5t1 59.5z" />
    <glyph glyph-name="uni0328.alt" 
d="M184 -282q-51 0 -84.5 33.5t-33.5 86.5q0 34 9 64t25.5 56t37.5 47l64 -5q-22 -24 -35.5 -48.5t-20.5 -48t-7 -42.5q0 -31 16 -48t40 -17q30 0 49.5 20.5t31.5 43.5l49 -46q-25 -44 -61 -70t-80 -26z" />
    <glyph glyph-name="afraid.rev" horiz-adv-x="1022" 
d="M510 -218q99 0 184 33.5t148.5 94t99.5 143t36 180.5q0 99 -36 181.5t-99.5 143.5t-148.5 94t-184 33q-97 0 -181.5 -33t-148.5 -94t-100 -143.5t-36 -181.5q0 -98 36 -180.5t100 -143t148.5 -94t181.5 -33.5zM510 -6q-30 0 -57 1.5t-54 4.5t-58 6v30q31 4 58 6t54 3.5
t57 1.5q31 0 58.5 -1.5t54.5 -3.5t58 -6v-30q-31 -3 -58 -6t-54.5 -4.5t-58.5 -1.5zM334 157q-24 0 -40.5 16.5t-16.5 40.5q0 23 16.5 39.5t40.5 16.5q23 0 39.5 -16.5t16.5 -39.5q0 -24 -16.5 -40.5t-39.5 -16.5zM255 342l-15 35q23 22 51 37t59 24.5t65 13.5l16 -64
q-29 -1 -58.5 -6.5t-59 -15t-58.5 -24.5zM690 157q-24 0 -40.5 16.5t-16.5 40.5q0 23 16.5 39.5t40.5 16.5t40 -16.5t16 -39.5q0 -24 -16 -40.5t-40 -16.5zM763 341q-28 16 -57.5 25.5t-59 15t-59.5 6.5l16 64q35 -4 65.5 -13.5t58.5 -24.5t52 -37z" />
    <glyph glyph-name="angry.rev" horiz-adv-x="1022" 
d="M510 -218q99 0 184 33.5t148.5 94t99.5 143t36 180.5q0 99 -36 181.5t-99.5 143.5t-148.5 94t-184 33q-97 0 -181.5 -33t-148.5 -94t-100 -143.5t-36 -181.5q0 -98 36 -180.5t100 -143t148.5 -94t181.5 -33.5zM348 -27l-7 32q38 32 81 47.5t88 15.5q47 0 90 -15.5
t81 -47.5l-8 -32q-40 22 -78 32t-85 10q-45 0 -83 -10t-79 -32zM334 157q-24 0 -40.5 16.5t-16.5 40.5q0 23 16.5 39.5t40.5 16.5q23 0 39.5 -16.5t16.5 -39.5q0 -24 -16.5 -40.5t-39.5 -16.5zM690 157q-24 0 -40.5 16.5t-16.5 40.5q0 23 16.5 39.5t40.5 16.5t40 -16.5
t16 -39.5q0 -24 -16 -40.5t-40 -16.5zM408 351q-52 6 -95.5 24t-80.5 51l15 34q29 -14 58.5 -24t59 -14.5t58.5 -6.5zM611 351l-17 64q30 2 60 6.5t59.5 14.5t57.5 24l15 -34q-35 -33 -79.5 -51t-95.5 -24z" />
    </font>
</defs>
</svg>
